<?xml version="1.0" standalone="no"?>
<!DOCTYPE svg PUBLIC "-//W3C//DTD SVG 1.1//EN" "http://www.w3.org/Graphics/SVG/1.1/DTD/svg11.dtd" >
<svg xmlns="http://www.w3.org/2000/svg" xmlns:xlink="http://www.w3.org/1999/xlink" version="1.1">
<metadata>
Created by FontForge 20200314 at Sun Jan 27 07:57:02 2019
 By www-data
Copyright(c) Shenzhen YiPin Information Technology Co., Ltd
</metadata>
<defs>
<font id="_NPOS" horiz-adv-x="550" >
  <font-face 
    font-family="_e:NP[OS
"
    font-weight="400"
    font-stretch="normal"
    units-per-em="512"
    panose-1="2 1 6 0 1 1 1 1 1 1"
    ascent="409"
    descent="-103"
    x-height="208"
    cap-height="374"
    bbox="-1 -126 550 476"
    underline-thickness="0"
    underline-position="0"
    unicode-range="U+001D-FFE5"
  />
<missing-glyph horiz-adv-x="451" 
d="M369 -126h-285v602h285v-602zM151 436v-20h59v-22h-59v-20h149v20h-59v22h59v20h-149zM151 358v-62h149v20h-59v42h-90zM210 316h-30v22h30v-22zM151 279v-19h59v-23h-59v-19h90v42h59v19h-149zM270 243v-39h-119v-21h149v60h-30zM210 170v-34h31v14h29v-28h-90v48h-29
v-68h149v68h-90zM151 66v-68h149v68h-149zM270 18h-90v28h90v-28zM151 -16v-20h63l-63 -28v-20h149v20h-92l63 28h29v20h-149z" />
    <glyph glyph-name=".notdef" horiz-adv-x="451" 
d="M369 -126h-285v602h285v-602zM151 436v-20h59v-22h-59v-20h149v20h-59v22h59v20h-149zM151 358v-62h149v20h-59v42h-90zM210 316h-30v22h30v-22zM151 279v-19h59v-23h-59v-19h90v42h59v19h-149zM270 243v-39h-119v-21h149v60h-30zM210 170v-34h31v14h29v-28h-90v48h-29
v-68h149v68h-90zM151 66v-68h149v68h-149zM270 18h-90v28h90v-28zM151 -16v-20h63l-63 -28v-20h149v20h-92l63 28h29v20h-149z" />
    <glyph glyph-name=".notdef" horiz-adv-x="451" 
d="M369 -126h-285v602h285v-602zM151 436v-20h59v-22h-59v-20h149v20h-59v22h59v20h-149zM151 358v-62h149v20h-59v42h-90zM210 316h-30v22h30v-22zM151 279v-19h59v-23h-59v-19h90v42h59v19h-149zM270 243v-39h-119v-21h149v60h-30zM210 170v-34h31v14h29v-28h-90v48h-29
v-68h149v68h-90zM151 66v-68h149v68h-149zM270 18h-90v28h90v-28zM151 -16v-20h63l-63 -28v-20h149v20h-92l63 28h29v20h-149z" />
    <glyph glyph-name="exclam" unicode="!" horiz-adv-x="179" 
d="M86 -8q-14 0 -18.5 11t0 21.5t18.5 10.5t19 -10.5t0 -21.5t-19 -11zM84 96q-1 0 -1.5 0.5l-1.5 1.5t-1 3l-13 235q1 8 6 11.5t11 3.5q7 0 12.5 -3.5t6.5 -10.5l-15 -235q0 -3 -1 -4t-2 -1.5l-1 -0.5v0z" />
    <glyph glyph-name="quotedbl" unicode="&#x22;" horiz-adv-x="194" 
d="M64 403l-1 -13v0q0 -3 -1 -26t-1 -56t2 -66l1 -12l-26 -2v13q-2 33 -2 67t0.5 57.5t1.5 25.5v13zM157 403v-13v0q-1 -3 -1.5 -26t-0.5 -56t2 -66l1 -12l-26 -2l-1 13q-2 33 -2 67t1 57.5t1 25.5l1 13z" />
    <glyph glyph-name="numbersign" unicode="#" horiz-adv-x="374" 
d="M227 160q4 67 9 123q-50 0 -92 -2q-5 -57 -9 -123q42 1 92 2zM273 399l-1 -13v0q-1 -7 -8 -78q33 0 66 -1l12 -1l-1 -25h-12q-34 2 -67 2q-5 -56 -9 -123q36 0 73 -2h12l-1 -26l-12 1q-37 1 -74 1q-3 -53 -3 -101v-13l-26 1v12q1 48 4 101q-51 0 -92 -2q-2 -48 -3 -91
v-13h-26l1 13q0 43 2 90q-56 -4 -59 -4l-13 -1l-2 25l13 1q3 1 63 4q4 66 8 124q-61 -4 -65 -5l-13 -1l-2 26l13 1q4 1 70 4q3 41 5.5 65.5t2.5 25.5l2 13l25 -3l-1 -12q0 -2 -2.5 -25.5t-6.5 -62.5q42 2 92 3q4 35 6 57t2 23l2 12z" />
    <glyph glyph-name="dollar" unicode="$" horiz-adv-x="274" 
d="M201 141q1 22 -12.5 32.5t-38.5 17.5v-105q48 8 51 55zM124 226v116q-13 -1 -28 -6q-13 -6 -23.5 -16.5t-10.5 -23.5q0 -34 18 -48.5t44 -21.5zM124 417h26v-50q23 -3 40.5 -10.5t28 -14.5t11.5 -8l10 -8l-17 -20l-10 8q0 1 -8.5 7t-22.5 12t-32 9v-124q30 -7 53 -23.5
t24 -54.5q-5 -67 -74 -80h-2h-1v-49h-26v48q-53 6 -79 27l-10 7l14 21l11 -7q21 -17 64 -22v114q-21 6 -41 16t-33 29t-13 52q0 23 15.5 39.5t34.5 23.5q20 8 37 9v49z" />
    <glyph glyph-name="percent" unicode="%" horiz-adv-x="440" 
d="M373 367l-9 -10q-3 -3 -48 -54t-108 -124t-119 -142l-8 -10l-20 16l8 10q56 69 119 142.5t108.5 124.5t48.5 54l9 10zM65 315q-14 -32 5 -59q40 -40 85 -7q7 6 10 15q14 36 -4 63q-18 23 -50 21q-32 -3 -46 -33zM50 239l-1 1q-27 40 -8 86q21 43 68 48q46 2 72 -32
q27 -38 8 -88q-6 -15 -18 -25q-26 -21 -55 -20q-36 0 -66 30zM284 90q41 -40 86 -7q7 6 10 15q14 36 -4 63q-18 23 -50 21q-32 -3 -47 -33q-13 -32 5 -59zM386 63q-27 -21 -56 -21q-35 0 -65 31l-1 1q-27 40 -8 86q21 43 68 47q46 3 72 -31q27 -38 8 -88q-6 -15 -18 -25z
" />
    <glyph glyph-name="ampersand" unicode="&#x26;" horiz-adv-x="306" 
d="M109 234q39 16 56 41.5t12 48.5q-8 35 -50 35l-9 -1q-46 -3 -56 -46q-4 -19 6 -40.5t38 -38.5q2 0 3 1zM204 103l-97 101h-1q-31 -17 -43.5 -43t-7.5 -51q13 -51 69 -51q45 0 69 27q6 8 11 17zM202 329q6 -29 -11.5 -60.5t-59.5 -52.5l82 -85q3 15 3 28.5t-0.5 21.5
t-0.5 9l-2 12l25 4l2 -12q0 -2 1 -14.5t0 -31t-7 -39.5l44 -45l-19 -18l-36 38q-5 -8 -11 -15q-31 -36 -88 -36q-44 0 -67 22.5t-27 50.5q-12 63 50 113q-29 22 -38 48.5t-5 48.5q15 63 80 68h10q60 0 75 -55z" />
    <glyph glyph-name="quotesingle" unicode="'" horiz-adv-x="152" 
d="M80 405q9 11 19.5 11.5t17.5 -5.5q8 -7 10 -17.5t-6 -21.5l-88 -77q-2 -2 -4 -2t-3 2q-4 3 -2 7z" />
    <glyph glyph-name="parenleft" unicode="(" horiz-adv-x="300" 
d="M112 205q-2 -59 28 -119.5t103 -89.5l12 -4l-8 -24l-12 4q-72 25 -113 93q-36 63 -36 140q9 167 149 219l12 4l8 -25l-12 -3q-71 -25 -101 -81t-30 -114z" />
    <glyph glyph-name="parenright" unicode=")" horiz-adv-x="300" 
d="M64 -1q73 28 103 89t28 120q0 58 -30 114t-101 80l-12 4l8 25l12 -4q140 -52 149 -219q0 -77 -36 -140q-41 -68 -113 -93l-12 -4l-8 24z" />
    <glyph glyph-name="asterisk" unicode="*" horiz-adv-x="250" 
d="M39 283l10 -8q29 -23 58 -44q0 40 1 84v13l26 -1l-1 -13q-1 -44 -1 -85q33 24 69 48l10 7l15 -22l-11 -7q-38 -25 -72 -49q31 -22 51 -35t21 -13l11 -7l-14 -22l-10 7q-1 1 -20 13t-49 32q1 -32 1.5 -51t0.5 -20v-13l-25 -1l-1 13v0q0 8 -2 71q-26 -20 -41.5 -31.5
t-16.5 -12.5l-10 -8l-15 20l10 8v0q2 2 19.5 15.5t45.5 33.5q-33 24 -66 50l-10 8z" />
    <glyph glyph-name="plus" unicode="+" horiz-adv-x="300" 
d="M139 310h26v-116q58 1 107 -1l13 -1l-1 -25h-13q-49 2 -106 1v-121h-26v121q-45 -1 -75.5 -2t-32.5 -2h-12l-1 25l12 1q2 0 33 1t76 2v117z" />
    <glyph glyph-name="comma" unicode="," horiz-adv-x="127" 
d="M45 -28v0l3.5 3.5t7.5 10t7 16.5q3 11 -1.5 18t-9.5 10q-2 2 -4 3l-1 1q-9 10 -5.5 24t20.5 14q11 0 17 -7l1 -2q6 -8 6.5 -18.5t-0.5 -19.5q-4 -19 -12.5 -36.5t-18.5 -24.5q-3 -2 -6 -2t-5 2q-1 2 -1 4t2 4z" />
    <glyph glyph-name="hyphen" unicode="-" horiz-adv-x="300" 
d="M17 197l13 1v0q7 0 79 2.5t164 0.5l12 -1v-25h-13q-60 2 -114.5 1t-89.5 -2.5t-37 -1.5l-13 -1z" />
    <glyph glyph-name="period" unicode="." horiz-adv-x="125" 
d="M65 70q15 0 19.5 -11t0 -22t-19.5 -11q-14 0 -18.5 11t0 22t18.5 11z" />
    <glyph glyph-name="slash" unicode="/" horiz-adv-x="342" 
d="M34 -31l6 12q55 92 106.5 173.5t94.5 152t45 75.5l7 10l22 -13l-7 -11q-3 -4 -45.5 -74.5t-93 -151.5t-106.5 -173l-6 -12z" />
    <glyph glyph-name="zero" unicode="0" horiz-adv-x="225" 
d="M107 301q-27 -2 -45 -36q-25 -48 -25 -95t25 -91q19 -30 49 -30q22 1 36 13.5t22 27.5q19 48 18.5 93t-20.5 87q-20 31 -50 32h-6zM40 277q23 40 58 48l7 1h5v0v0v0h1h6h6q40 -4 65 -43q23 -48 24 -99.5t-22 -105.5q-26 -45 -67 -52l1 -1h-13v0v0v0h-2h-1v0l-9 1
q-36 5 -58 41q-29 49 -29 102.5t28 107.5z" />
    <glyph glyph-name="one" unicode="1" horiz-adv-x="225" 
d="M153 322v-13q0 -6 -0.5 -101t0.5 -175v-13h-25l-1 13q-1 46 -0.5 125t0.5 121l-38 -34l-17 18l55 51l1 8h25z" />
    <glyph glyph-name="two" unicode="2" horiz-adv-x="225" 
d="M175 233q-23 -35 -54.5 -75.5t-58.5 -73.5q-3 -5 -5 -10.5t-1 -7.5q0 -2 5.5 -3.5t18.5 -0.5q108 7 118 6v0l13 -1l-1 -24h-12q-6 2 -116 -5q-4 -1 -10 -1q-10 0 -20.5 3.5t-17.5 13.5q-5 9 -3 19t6 17t6 9q27 33 58 73t53 74q16 24 7 39q-8 12 -26.5 17.5t-40.5 2.5
q-43 -6 -54 -49l-3 -12l-24 6l3 12q16 58 75 67q25 4 50.5 -3.5t39.5 -27.5q6 -8 7.5 -24.5t-13.5 -40.5z" />
    <glyph glyph-name="three" unicode="3" horiz-adv-x="225" 
d="M193 287q4 -16 -8.5 -42t-56.5 -59q20 -9 41 -26t29 -42q9 -32 -17 -65q-13 -16 -30 -22t-34 -6q-24 0 -42 6l-21 7l-12 6l11 24l12 -6q1 0 11.5 -3.5t26 -6t31 0.5t27.5 17q17 22 12 41q-9 23 -34.5 38.5t-41.5 20.5l-3 24q76 52 73 89q-3 11 -12 16.5t-15 7.5
q-21 5 -47 -1.5t-46 -29.5l-9 -10l-20 17l9 11q26 29 59.5 37.5t60.5 0.5q40 -12 46 -45z" />
    <glyph glyph-name="four" unicode="4" horiz-adv-x="225" 
d="M15 150q-7 7 -9.5 19.5t6.5 33.5q13 25 40 56.5t51 55.5t28 27l9 10l21 -18l-10 -9l-15 -15t-34 -35.5t-38 -43.5t-26 -38q-9 -19 -1 -27t30.5 -10t51.5 0q1 37 2.5 61t1.5 25l1 13l28 -2l-1 -13v0q0 -2 -1.5 -24t-2.5 -57q20 4 44 10l14 3l7 -25l-14 -3q-16 -4 -51 -11
q-1 -49 2 -100l1 -12l-28 -2l-1 13q-3 50 -3 98q-13 -1 -27 -1q-23 0 -43.5 4.5t-32.5 16.5z" />
    <glyph glyph-name="five" unicode="5" horiz-adv-x="225" 
d="M181 266q-35 1 -69.5 -1.5t-48.5 -3.5q-4 -30 -5 -62q20 5 48 5.5t51 -16.5q30 -23 23 -77q-5 -42 -35 -65q-17 -12 -36 -16t-34 -4q-11 0 -18 1t-8 1l-13 3l5 26l13 -3q1 0 8 -1t19 -0.5t24.5 4t24.5 11.5q21 15 24 47q5 38 -14 53q-20 13 -48 10t-43 -9l-18 12
q0 36 4 70.5t8 58t4 26.5l3 12l26 -5l-3 -13l-2 -11.5t-5 -30.5q18 1 50.5 3t64.5 1h13v-26h-13z" />
    <glyph glyph-name="six" unicode="6" horiz-adv-x="225" 
d="M150 315q-2 0 -14.5 -4t-30 -17t-32.5 -38.5t-21 -67.5q-10 -78 17 -113q7 -9 14 -13t11.5 -5l4.5 -1h2l6 -1t15 -1t19 2.5t19 9.5q19 14 21 47q2 46 -19 61q-18 10 -40 6.5t-33 -8.5l-12 -5l-10 23l11 5q2 1 11.5 4.5t24.5 6t31.5 1t31.5 -11.5q33 -23 29 -83
q-2 -45 -31 -67q-14 -10 -29 -13.5t-27 -3.5q-18 0 -23 3q-4 0 -18 5.5t-28 22.5q-35 43 -24 132q8 50 26.5 80t40.5 45t37.5 19.5t16.5 4.5l13 2l3 -26z" />
    <glyph glyph-name="seven" unicode="7" horiz-adv-x="225" 
d="M198 334l9 -20q-2 -1 -20.5 -37t-37.5 -97t-22 -137v-13l-25 1v12q3 95 28.5 165.5t44.5 101.5q-33 2 -65.5 1.5t-54 -2t-22.5 -1.5l-13 -2l-2 26l13 1q3 1 29 2.5t63.5 2t74.5 -3.5z" />
    <glyph glyph-name="eight" unicode="8" horiz-adv-x="225" 
d="M60 157q-16 -17 -16 -42t17.5 -46.5t51.5 -21.5q33 0 50.5 21.5t17.5 46.5t-16 42q-19 19 -52 19q-34 0 -53 -19zM56 252q0 -6 3 -17.5t15.5 -21t38.5 -10.5q26 1 38 10.5t15 21t3 17.5q0 22 -15 40.5t-41 19.5q-27 -1 -42 -19.5t-15 -40.5zM17 115q0 35 24 61q8 9 19 14
q-31 27 -31 62q0 32 22 59t62 28q39 -1 61.5 -28t22.5 -59q0 -31 -21 -53q-5 -5 -11 -9q11 -5 19 -14q24 -26 24 -61t-24.5 -65t-70.5 -30q-47 0 -71.5 30t-24.5 65z" />
    <glyph glyph-name="nine" unicode="9" horiz-adv-x="225" 
d="M75 61q2 -1 14 2t28.5 14t31 36.5t21.5 70.5q10 76 -16 110q-7 9 -14 13t-12 5.5t-5 0.5l-1 1h-10t-21.5 -2.5t-23.5 -11.5q-18 -14 -20 -43q-3 -42 16 -57q16 -10 37.5 -7.5t32.5 7.5l12 5l9 -24l-12 -5q-1 0 -10.5 -3t-24 -5t-30 0t-29.5 12q-31 23 -27 79q4 40 30 61
q15 12 31.5 16t28.5 3.5t14 -0.5q4 0 18.5 -5.5t29.5 -22.5q35 -43 22 -131q-8 -55 -27.5 -84.5t-38.5 -41.5q-14 -9 -25.5 -13t-19.5 -5l-8 -1h-13v26h12z" />
    <glyph glyph-name="colon" unicode=":" horiz-adv-x="101" 
d="M52 291q14 0 18.5 -11t0 -22t-18.5 -11t-19 11t0 22t19 11zM52 85q14 0 18.5 -11t0 -22t-18.5 -11t-19 11t0 22t19 11z" />
    <glyph glyph-name="semicolon" unicode=";" horiz-adv-x="100" 
d="M52 247q-14 0 -18.5 11t0 22t18.5 11t19 -11t0 -22t-19 -11zM33 -20v0q1 0 4 3t7.5 10t7.5 17q3 11 -1.5 18t-9.5 10q-3 1 -5 4q-9 10 -5.5 24t19.5 14q12 0 17 -8l1 -1q6 -8 7 -19t-1 -20q-3 -19 -12 -36.5t-18 -23.5q-4 -3 -7 -3t-4 3q-2 1 -2 3.5t2 4.5z" />
    <glyph glyph-name="less" unicode="&#x3c;" horiz-adv-x="401" 
d="M353 301l9 -23l-281 -111l278 -124l-11 -24l-306 137l1 24z" />
    <glyph glyph-name="equal" unicode="=" horiz-adv-x="380" 
d="M345 232q-61 3 -132.5 2t-124 -3t-55.5 -2l-13 -1l-1 26h13q3 1 56 2.5t124.5 2.5t133.5 -1l13 -1l-1 -25h-13zM347 110q-61 2 -132.5 1t-124 -3t-55.5 -2h-13l-1 25l13 1q3 0 55.5 2t124.5 3t134 -2h13l-2 -26z" />
    <glyph glyph-name="greater" unicode="&#x3e;" horiz-adv-x="400" 
d="M41 269l9 24l310 -121l1 -24l-306 -137l-11 23l279 125z" />
    <glyph glyph-name="question" unicode="?" horiz-adv-x="235" 
d="M125 57q14 0 19 -11t0 -22t-19 -11t-19 11t0 22t19 11zM111 338q-11 -2 -25.5 -9.5t-27.5 -25.5l-7 -11l-21 14l7 11q17 24 36 34t34 12q43 6 74 -18q25 -21 24 -56q0 -14 -11 -36t-45 -44q-6 -4 -6 -13q-2 -75 0 -73l1 -13l-26 -2l-1 13q-1 -2 0 76q2 22 19 33
q41 26 43 60q1 13 -3.5 22t-10.5 13q-22 17 -54 13z" />
    <glyph glyph-name="at" unicode="@" horiz-adv-x="427" 
d="M246 176q4 36 16 71q-6 10 -25 22.5t-42 12.5q-29 -5 -43 -37.5t-18 -69.5q-6 -46 9 -58q8 -5 18.5 -3.5t17.5 5.5q26 12 45 29.5t22 27.5zM316 370q50 -32 73 -85t10 -107q-24 -81 -110 -87h-2q-22 3 -33 21q-6 10 -8 22q-27 -25 -57 -39q-20 -8 -34 -8q-19 0 -27 9
q-27 21 -20 82q11 72 34 99.5t46 29.5q25 3 47 -7t36 -25q3 9 6 17l1 1l3 11l24 -6l-3 -12q0 -1 -1 -3q-7 -20 -13 -38q-1 -4 -2 -7q-25 -83 -10 -113q4 -7 13 -8q44 4 62.5 26t22.5 42q10 39 -7 85.5t-64 77.5q-86 46 -165 10q-70 -37 -84 -127q-8 -112 41 -164
q43 -43 128 -41q22 0 65 15t76 48l9 9l19 -17l-9 -10q-36 -36 -83.5 -53.5t-76.5 -17.5h-10q-88 0 -136 50q-57 59 -49 184q16 104 99 147q91 41 189 -11z" />
    <glyph glyph-name="A" unicode="A" horiz-adv-x="440" 
d="M261 280q1 -3 17 -45t41 -100.5t54 -110.5l6 -11l-22 -13l-7 11q-27 51 -53 108q-33 1 -70 -1t-64 -4t-30 -2v0l-5 -1q-23 -48 -50 -95l-7 -12l-22 13l6 11q48 83 81 161t50 129l18 54l3 12l25 -7l-4 -12q0 -4 -22.5 -68.5t-64.5 -158.5q21 2 62.5 4.5t83.5 2.5
q-22 52 -35.5 87.5t-14.5 38.5v0l-4 12l24 9z" />
    <glyph glyph-name="B" unicode="B" horiz-adv-x="400" 
d="M73 352l13 2q11 1 54 4.5t89.5 1t69.5 -17.5q6 -6 8.5 -11.5t3.5 -9.5q2 -30 -1 -59.5t-7 -49.5t-4 -22l-1 -1q6 -3 11 -7q13 -10 15 -25q3 -37 -1 -72.5t-10 -53.5q0 -3 -2.5 -7.5t-7 -9t-11.5 -6.5q-34 -8 -133 -8q-22 0 -46 1v-10h-25v294h25v-258q136 -2 173 6
q1 1 3 6q5 14 8.5 47.5t0.5 68.5q0 1 -1 3t-3 4q-18 11 -56.5 11t-69.5 -5l-13 -1l-4 25l13 2q5 1 22.5 3t41 2.5t46.5 -3.5q0 2 4 20.5t7 46.5t0 55q0 1 -0.5 2t-1.5 2q-22 13 -82.5 13t-111.5 -7l-13 -1z" />
    <glyph glyph-name="C" unicode="C" horiz-adv-x="429" 
d="M333 101l1 12l25 -2l-1 -13q-6 -45 -44.5 -71.5t-96.5 -26.5q-98 0 -133 95q-23 93 3 176l1 1q32 82 130 87q123 3 134 -90l1 -13l-25 -2l-2 12q-5 44 -38 57t-69 11q-81 -4 -107 -71q-24 -76 -4 -161q29 -76 109 -76q40 0 75 18t41 57z" />
    <glyph glyph-name="D" unicode="D" horiz-adv-x="418" 
d="M72 344l13 2q3 1 35.5 4.5t76.5 4.5q123 2 137 -44q14 -48 11.5 -119.5t-12.5 -121.5q-11 -50 -60 -55q-47 -3 -91 -3q-40 0 -63 1v-20h-25v268h25v-222q20 -1 64 -1.5t88 3.5q31 2 37 34q10 47 12 115.5t-10 112.5q-7 16 -44 22t-86 4t-92 -8l-12 -2z" />
    <glyph glyph-name="E" unicode="E" horiz-adv-x="400" 
d="M325 355l-1 -26l-13 1q-40 1 -91 -0.5t-89 -3t-41 -1.5l-13 -1l-1 26h13q2 0 40.5 2t90 3t92.5 0h13zM113 276v-12v-1q0 -4 -0.5 -22.5t-0.5 -45.5q22 1 78.5 3t103.5 1h13l-1 -26l-13 1q-30 0 -68 -0.5t-70 -2t-43 -1.5q-1 -53 -1 -94q0 -24 12 -35q14 -13 48 -14.5
t83 1.5q26 1 56 2l13 1l1 -26h-13q-30 -1 -56 -2q-35 -2 -63 -2q-30 0 -51.5 4.5t-35.5 17.5q-19 18 -19 53v73.5t0.5 74.5t0.5 39v1v13z" />
    <glyph glyph-name="F" unicode="F" horiz-adv-x="400" 
d="M86 355q3 0 42 1.5t91.5 3t93.5 0.5h13l-1 -26l-13 1q-40 0 -92 -1t-91 -2.5t-42 -2.5h-13l-1 25zM86 280h26v-86q10 0 40 1.5t66.5 2t65.5 0.5l13 -1l-1 -25h-13q-29 1 -66.5 0t-67.5 -2t-37 -2v-167h-26v279z" />
    <glyph glyph-name="G" unicode="G" horiz-adv-x="454" 
d="M256 154q3 0 25.5 1t52 2t52.5 0h13v-26h-13q-22 1 -49 0v-121h-25v39q-36 -36 -103 -37h-1q-96 4 -128 87q-23 83 4 171q33 82 130 87q123 3 134 -91l1 -12l-25 -3l-1 13q-6 43 -39 56.5t-69 10.5q-81 -4 -107 -70q-24 -80 -3 -154q11 -32 38.5 -50.5t64.5 -18.5h1
q75 2 99 50l4 8v35q-22 -1 -37.5 -1.5t-16.5 -0.5h-1l-12 -1l-2 25z" />
    <glyph glyph-name="H" unicode="H" horiz-adv-x="400" 
d="M67 359l26 -1l-2 -159q3 1 29.5 2t62.5 2t67 0h13l-1 -26l-13 1q-30 1 -66.5 0t-62.5 -2.5t-28 -1.5h-2l-2 -169l-26 1zM339 354l-5 -353h-26l5 353h26z" />
    <glyph glyph-name="I" unicode="I" horiz-adv-x="221" 
d="M128 348q-3 1 -7 1v-323h8h12v-26h-13q-6 1 -13.5 0.5t-14 -0.5h-8.5v0l-13 -1l-1 26h13h5v323h-4l-13 -1l-1 26h13q1 0 7.5 0.5t15 0.5h15.5h12v-26h-13z" />
    <glyph glyph-name="J" unicode="J" horiz-adv-x="326" 
d="M245 341h-45q1 -19 2.5 -95t-2.5 -160q-2 -44 -16.5 -63.5t-48.5 -21.5q-5 -1 -10 -1q-28 0 -45 15q-20 17 -21 49l-1 12l26 2v-13q1 -21 12 -31q8 -6 18 -7.5t19 -0.5q19 0 29.5 11t12.5 51q3 84 2 159.5t-2 92.5q-20 -1 -33 -1.5t-16 -0.5v0l-13 -1l-1 26h12
q3 1 24 1.5t48.5 1.5t49.5 0h13l-1 -26z" />
    <glyph glyph-name="K" unicode="K" horiz-adv-x="380" 
d="M144 205q15 -24 55 -76t94 -97l10 -8l-16 -20l-10 8q-58 49 -99.5 103t-56.5 78q-8 -4 -17 -8v-185h-26v359h26v-146q79 42 123.5 81.5t45.5 42.5l9 9l19 -17l-9 -9q-2 -4 -40 -39t-108 -76z" />
    <glyph glyph-name="L" unicode="L" horiz-adv-x="400" 
d="M315 5l-13 -1q-25 -1 -48 -2q-35 -2 -64 -2q-59 -3 -87 22q-19 18 -19 53q1 55 4 115t5.5 102.5t3.5 44.5l1 13l25 -2l-1 -13q0 -2 -3 -44.5t-6 -101.5t-3 -114q0 -24 11 -35q15 -13 49.5 -14.5t82.5 2.5q23 1 48 2h13z" />
    <glyph glyph-name="M" unicode="M" horiz-adv-x="451" 
d="M394 -2h-26v274l-95 -162q-8 -15 -18 -23.5t-25 -8.5q-16 0 -25.5 9.5t-16.5 21.5l-96 163v-274h-26v337h26v-12l118 -201q6 -8 9.5 -12t6 -5t4.5 -1q3 0 6 1t6.5 5t8.5 13l117 199v12h26v-336z" />
    <glyph glyph-name="N" unicode="N" horiz-adv-x="400" 
d="M337 1h-25v14l-7 7q-60 60 -123 140t-95 125v-287h-26v356h26v-25l5 -8q2 -3 37 -50.5t85.5 -110t97.5 -111.5v304h25v-354z" />
    <glyph glyph-name="O" unicode="O" horiz-adv-x="411" 
d="M97 79q11 -23 32.5 -39.5t74.5 -16.5q62 0 82 17t28 38q17 43 17 104t-17 99q-9 21 -30 38.5t-73 17.5h-6q-48 -1 -71.5 -15.5t-36.5 -40.5v-1q-16 -33 -17 -97.5t17 -103.5zM337 67q-12 -29 -38.5 -49t-94.5 -20q-64 0 -90.5 21.5t-38.5 47.5q-22 45 -21 116.5t21 109.5
q33 70 130 69q62 1 91 -20.5t41 -48.5q20 -45 20 -111t-19 -114q0 -1 -1 -1z" />
    <glyph glyph-name="P" unicode="P" horiz-adv-x="400" 
d="M324 330q6 -5 8.5 -10.5t2.5 -9.5q3 -39 -1 -70t-9 -45q-5 -12 -18 -15q-15 -4 -60 -8t-103 -4q-20 0 -41 1v-170h-26v267h26v-71l1 -1q72 -1 126 3t71 7q5 14 8 42.5t1 61.5l-2 2q-24 15 -97 15t-135 -7l-12 -2l-3 26l13 1q20 3 71 6t103.5 0t75.5 -19z" />
    <glyph glyph-name="Q" unicode="Q" horiz-adv-x="463" 
d="M333 74q4 6 7 13q17 42 17 103t-17 100q-9 21 -30 38t-73 17h-6q-48 -1 -71.5 -15.5t-36.5 -40.5v0q-16 -33 -17 -98t17 -103q11 -24 32.5 -40t74.5 -16q35 0 55 6t31 15q-14 23 -23 38t-10 17l-6 11l23 12l6 -11l7.5 -13t19.5 -33zM381 3l7 -10l-20 -15l-8 10
q-16 22 -30 43q-14 -11 -38 -18t-62 -7q-64 0 -90.5 21.5t-38.5 47.5q-22 45 -21 116.5t21 109.5q33 70 130 70q62 0 91 -21t41 -49q20 -44 20 -110.5t-19 -114.5h-1q-6 -14 -15 -26q15 -23 33 -47z" />
    <glyph glyph-name="R" unicode="R" horiz-adv-x="400" 
d="M326 337q6 -6 8.5 -11t2.5 -9q3 -39 -1 -66t-6 -35q-7 -23 -30 -28q-20 -4 -53 -7q11 -22 33.5 -68t40.5 -92l4 -12l-24 -9l-5 12q-13 37 -31 75t-31.5 64.5t-14.5 27.5h-35h-35l-13 1l1 25h13q105 -2 145 8q8 2 10 9q2 8 5.5 32.5t0.5 60.5l-2 2q-24 15 -96.5 14.5
t-134.5 -6.5l-13 -2l-2 26l12 1q20 3 71.5 6t104 0t75.5 -19zM85 12v-13l-26 2l1 13q7 111 9.5 181.5t2.5 73.5v12h26v-13q0 -3 -3 -73.5t-10 -182.5z" />
    <glyph glyph-name="S" unicode="S" horiz-adv-x="400" 
d="M194 33q31 0 53.5 18t24.5 44q2 30 -22 47.5t-67 32.5q-40 14 -71 37t-22 68q5 21 20 37.5t35 23.5q35 13 62.5 10.5t47.5 -13.5t33 -24.5t19 -23.5t6 -11l5 -12l-23 -10l-5 11q-1 2 -9 14t-24 25t-41.5 18t-61.5 -8q-14 -5 -25 -17t-14 -25q-7 -29 14.5 -45t63.5 -31
q40 -14 73 -37t32 -68q-3 -37 -33 -61.5t-71 -24.5q-32 0 -58 10.5t-41 24.5l-9 9l17 19l10 -9q8 -8 29.5 -18.5t51.5 -10.5z" />
    <glyph glyph-name="T" unicode="T" horiz-adv-x="416" 
d="M76 349q3 0 49 2t107.5 3t111.5 -2l13 -1l-1 -25h-13q-53 3 -118 2v-325h-25v325q-51 -1 -86 -2.5t-37 -2.5h-13l-1 25z" />
    <glyph glyph-name="U" unicode="U" horiz-adv-x="400" 
d="M305 131v214h26v-215q0 -1 -2 -17.5t-10.5 -38.5t-27.5 -42q-34 -33 -89 -33h-2q-37 1 -61.5 14t-38.5 32.5t-20.5 39t-8.5 32.5t-2 14v215h26v-214q0 -4 3 -20t13 -36t31.5 -35t57.5 -17q46 0 73 26q15 16 22 34.5t8.5 32t1.5 14.5z" />
    <glyph glyph-name="V" unicode="V" horiz-adv-x="420" 
d="M322 312l4 12l24 -8l-4 -12q0 -3 -14.5 -45.5t-36.5 -103t-46 -115.5q-15 -33 -37 -34h-1q-8 0 -18.5 6.5t-21.5 26.5q-29 52 -50.5 112t-34 104.5t-13.5 49.5l-3 12l25 6l3 -12q0 -3 12.5 -46.5t33.5 -103t50 -110.5q13 -20 17 -20q2 0 6 4t9 15q23 55 45 115t36 102z
" />
    <glyph glyph-name="W" unicode="W" horiz-adv-x="499" 
d="M406 299l2 12l26 -5l-3 -12q0 -3 -8.5 -45t-21.5 -98.5t-26 -103.5q-7 -29 -25 -30h-1q-9 0 -15 5.5t-10 12t-6 10.5q-20 47 -35.5 95t-24.5 82t-10 38q-1 5 -4 5t-5 -4q-2 -6 -12 -39.5t-26 -81t-36 -93.5q-1 -4 -5 -11t-11 -12.5t-16 -5.5q-17 2 -24 31
q-13 47 -25 103.5t-19.5 98.5t-8.5 45l-2 12l25 5l2 -13q1 -3 8.5 -44.5t19 -97.5t24.5 -103q2 -5 3 -8q2 3 6 11q20 47 36.5 95t26 81t9.5 35l1 1q8 21 30 21q21 -2 28 -24q1 -2 9.5 -35t24 -81t35.5 -95q3 -8 6 -11l3 9q12 46 25 102t21.5 98t8.5 45z" />
    <glyph glyph-name="X" unicode="X" horiz-adv-x="400" 
d="M304 24q-59 56 -105 117q-45 -58 -103 -120l-8 -9l-19 18l9 9q60 64 105 123q-44 61 -69.5 103.5t-27.5 47.5l-6 11l23 12l6 -11q1 -2 24.5 -42.5t65.5 -99.5q47 62 72 101.5t26 40.5l6 12l22 -13l-6 -11q-1 -2 -27.5 -44t-76.5 -107q46 -62 106 -119l10 -8l-18 -19z" />
    <glyph glyph-name="Y" unicode="Y" horiz-adv-x="400" 
d="M321 356l-6 -11q-2 -3 -15.5 -25t-36 -52t-50.5 -56q0 -20 -0.5 -74t0.5 -113v-13h-26v12v114.5v73.5q-27 28 -49.5 57.5t-36.5 51t-15 23.5l-7 11l22 13l7 -11q0 -1 12.5 -20.5t33.5 -47.5t46 -54q26 25 46.5 53t33 48t12.5 21l6 11z" />
    <glyph glyph-name="Z" unicode="Z" horiz-adv-x="400" 
d="M233 206q-52 -55 -89 -104q-15 -20 -21 -33t-7 -19.5t0 -8.5q4 -7 25 -9q33 -1 71.5 -1t68 0.5t33.5 0.5h1l12 1l1 -26h-13q-2 0 -32.5 -1t-69.5 -1q-38 0 -73 2q-38 2 -47 24q-11 28 22.5 75t98.5 117q40 44 73 84q1 2 3.5 5.5t3.5 7t0 5.5q0 2 -4.5 5t-15.5 6t-31.5 5
t-54.5 1q-39 -2 -68 -5t-32 -3v0l-13 -2l-3 25l13 2q3 1 32.5 4t69.5 4q49 2 76 -2.5t38.5 -12t15.5 -14.5t3 -19t-13 -28q-34 -41 -74 -85z" />
    <glyph glyph-name="bracketleft" unicode="[" horiz-adv-x="242" 
d="M178 387h-82v-386h78v-25h-91l-13 13v411l13 13h95v-26z" />
    <glyph glyph-name="backslash" unicode="\" horiz-adv-x="242" 
d="M45 389l168 -391l-21 -9l-168 391z" />
    <glyph glyph-name="bracketright" unicode="]" horiz-adv-x="238" 
d="M65 414h95l13 -13v-411l-13 -13h-90v25h77v386h-82v26z" />
    <glyph glyph-name="asciicircum" unicode="^" horiz-adv-x="222" 
d="M105 418h15l83 -62l-15 -20l-75 55l-80 -57l-15 21z" />
    <glyph glyph-name="underscore" unicode="_" horiz-adv-x="256" 
d="M13 17q4 0 73.5 0.5t62 0.5t94.5 -1h13v-25h-13q-102 1 -94.5 1t-62 -0.5t-73.5 -0.5h-13v25h13z" />
    <glyph glyph-name="grave" unicode="`" horiz-adv-x="183" 
d="M82 402l57 -102q2 -4 -1 -7q-2 -1 -3 -1q-2 0 -4 1l-90 75q-9 12 -7 22t9 17q8 6 18.5 5.5t20.5 -10.5z" />
    <glyph glyph-name="a" unicode="a" horiz-adv-x="341" 
d="M58 60l-1 1q-13 57 3 109q27 55 83 55q29 0 51 -14l11 -7l-14 -22l-10 7q-11 11 -38 11q-40 0 -59 -39q-14 -44 -2 -93q8 -22 25 -32t35 -11q28 0 44.5 8.5t28.5 23.5l3 3v149h26v-155q0 -4 2 -11.5t7 -10.5q4 -3 9.5 -2t10.5 4l12 5l10 -24l-12 -5q-13 -6 -24 -6
q-12 0 -20 6q-11 8 -15 19q-14 -14 -32.5 -21.5t-46.5 -7.5h-3q-25 0 -49 14.5t-35 45.5z" />
    <glyph glyph-name="b" unicode="b" horiz-adv-x="319" 
d="M253 170q16 -50 2 -106q-21 -55 -84 -60h-10q-42 0 -73 24v-29h-26v329h26v-268q20 -17 37.5 -24.5t44.5 -5.5q46 3 60 42q12 47 -2 90q-19 38 -59 38q-13 0 -21.5 -3t-18.5 -10l-10 -8l-15 21l10 7q13 10 24.5 14.5t30.5 4.5q56 0 84 -56z" />
    <glyph glyph-name="c" unicode="c" horiz-adv-x="286" 
d="M155 201q-42 -2 -59 -39q-14 -44 -2 -93q8 -22 25.5 -32.5t34.5 -10.5q38 0 49 28l5 12l24 -9l-5 -12q-19 -44 -73 -44q-24 0 -48.5 14.5t-35.5 46.5q-14 57 2 109q23 53 83 55q47 0 71 -38l6 -11l-22 -13l-7 11q-15 26 -48 26z" />
    <glyph glyph-name="d" unicode="d" horiz-adv-x="346" 
d="M280 25l12 5l10 -24l-11 -5q-14 -6 -25 -6t-20 6q-13 10 -17 24q-13 -13 -31.5 -20t-45.5 -7h-3q-25 0 -49 15t-35 45v2q-7 30 -4.5 52.5t10.5 48.5q22 55 83 55q29 0 51 -14l11 -7l-14 -22l-10 7q-11 11 -38 11q-45 0 -59 -39q-7 -22 -9 -41t4 -46q7 -21 24.5 -31
t35.5 -10q27 -1 43.5 7.5t29.5 23.5l3 4v276h25v-290q0 -4 2 -11.5t7 -11.5q4 -2 9.5 -1t10.5 4z" />
    <glyph glyph-name="e" unicode="e" horiz-adv-x="321" 
d="M70 64q-6 20 -7 49.5t6 55.5q7 22 28.5 41.5t64.5 21.5q18 2 39.5 -3.5t38.5 -23.5q27 -28 22 -81l-1 -13l-7 1h-130v25h114q0 33 -16 51q-13 12 -29 16t-30 3q-53 -2 -70 -46q-6 -21 -5 -46.5t7 -43.5q9 -23 29.5 -34.5t41.5 -11.5q59 0 67 34l3 12l25 -7l-4 -12
q-8 -26 -26 -37t-37 -13t-28 -2q-27 0 -55 15t-41 49z" />
    <glyph glyph-name="f" unicode="f" horiz-adv-x="333" 
d="M175 182q44 1 81 -1l13 -1l-2 -26l-13 1q-36 2 -79 1q0 -52 2 -93.5t3 -46.5v-10.5t-3 -15t-12 -12.5q-6 -3 -12 -3q-12 0 -22.5 6.5t-15.5 10.5l-10 8l16 20l10 -8q10 -8 15.5 -10t6.5 -2q1 2 1.5 5.5t-0.5 7.5q0 6 -2.5 47.5t-2.5 95.5q-27 -1 -45 -2t-19 -1h-13l-1 25
l12 1q3 0 21 1t45 1q1 37 5 65q7 42 31 49q12 3 23.5 -2.5t19.5 -13t10 -10.5l9 -10l-20 -16l-8 9q-6 7 -14 13t-14 5t-11 -28q-4 -26 -5 -60z" />
    <glyph glyph-name="g" unicode="g" horiz-adv-x="301" 
d="M138 207q-30 0 -45 -30q-10 -35 -1 -73q6 -17 19 -24.5t27 -7.5q41 -1 65 27l6 6q0 41 -0.5 69.5t-0.5 32.5v0l-1 13l26 1v-13v0q0 -5 1 -38.5t1 -78.5t-2 -82q-4 -53 -42 -74q-12 -8 -32 -8q-26 0 -67 24l-11 7l14 21l11 -7q45 -28 74 -14q24 14 27 52q1 27 2 59
q-29 -23 -70 -23h-2q-21 0 -40.5 12.5t-29.5 38.5q-11 46 2 89q23 46 69 46q24 0 43 -12l11 -6l-14 -22l-11 7q-8 8 -29 8z" />
    <glyph glyph-name="h" unicode="h" horiz-adv-x="320" 
d="M58 6l1 13q13 109 4 263l-1 12l26 2v-13q3 -51 4 -96q21 8 53 13t55 -8q6 -5 11 -14t4 -25v-8v-2q-2 -16 -3 -41t1 -47.5t10 -28.5q5 -2 17 6l10 6l14 -21l-10 -7q-16 -10 -29 -10q-8 0 -15 4q-20 14 -23 52t2 89q1 5 1 10q0 6 -1 9t-2 4.5t-2 2.5q-13 8 -41 3t-52 -14
q0 -79 -7 -144l-2 -13z" />
    <glyph glyph-name="i" unicode="i" horiz-adv-x="227" 
d="M112 327q15 0 19.5 -11t0 -21.5t-19.5 -10.5q-14 0 -18.5 10.5t0 21.5t18.5 11zM80 156l-13 22l45 29l20 -11v-166q4 2 6.5 3l2.5 1l12 6l10 -24l-11 -5q-9 -4 -15 -6.5t-9 -4t-5.5 -2t-3.5 -0.5l-13 13v162z" />
    <glyph glyph-name="j" unicode="j" horiz-adv-x="214" 
d="M108 335q14 0 19 -11t0 -22t-19 -11t-18.5 11t0 22t18.5 11zM143 218q4 -32 3.5 -87.5t-3.5 -93.5q-4 -32 -26 -40q-4 -1 -9 -1q-7 0 -16 4.5t-20 17.5l-8 10l20 16l8 -10q12 -14 17 -12q2 0 4.5 4.5t3.5 12.5q4 38 4 88t-2 82l-34 -22l-14 22l39 25q10 6 21 1t12 -17z
" />
    <glyph glyph-name="k" unicode="k" horiz-adv-x="242" 
d="M139 125l6 5t13 12t12 15q7 12 5 16q-7 8 -34 8t-57 -5q-1 -79 -5 -165l-1 -13l-26 1l1 13q3 66 4.5 130.5t2 107.5t0.5 45v13h26v-13l-0.5 -26t-0.5 -67q24 5 59 4.5t52 -19.5q5 -6 5.5 -16.5t-9.5 -26.5q-6 -10 -15 -19t-15.5 -14.5t-7.5 -6.5l-4 -2q23 -32 47 -80
l5 -11l-23 -11l-6 12q-12 26 -27 49t-25.5 37t-11.5 15l-8 10l20 16l8 -10v0q1 -1 5 -7z" />
    <glyph glyph-name="l" unicode="l" horiz-adv-x="173" 
d="M86 281v-13q0 -3 -0.5 -42.5t-0.5 -91t1 -91.5q0 -9 2 -13.5t3 -5.5q1 0 3 3l9 9l19 -17l-9 -9q-11 -12 -23 -12q-4 0 -8 2q-21 8 -22 43q-1 39 -0.5 91t0.5 92v42v13h26z" />
    <glyph glyph-name="m" unicode="m" horiz-adv-x="398" 
d="M315 5q-8 6 -11 15t-3.5 16.5t-0.5 9.5q1 4 1.5 29t1 55.5t-2.5 50.5q0 4 -1.5 6t-3.5 3q-13 6 -35.5 1t-41.5 -14q1 -25 0.5 -61t-1 -65t-0.5 -33v-13l-25 1v13v19t0.5 45t0.5 53.5t-1 43.5q0 4 -1 5l-2 2q-11 6 -35 2t-46 -12q1 -8 1 -18q1 -61 1 -103t-1 -44v-13
l-25 1v13v0q0 3 0.5 44.5t-0.5 100.5q0 11 -1 18.5t-2.5 12t-3 7t-2 3t-1.5 0.5q-1 1 -3.5 0t-4.5 -2l-10 -8l-16 19l10 8q1 1 6 4.5t12.5 4.5t16.5 -2q12 -6 18 -21q19 7 49 12t50 -6q5 -2 8 -6q15 7 44.5 14t52.5 -3q16 -9 19 -29q2 -22 2 -53.5t-1 -57t-1 -28.5v-1v0
q-1 -5 0.5 -10.5t3.5 -7.5t12 2l11 5l11 -23l-12 -5q-12 -5 -20 -5q-11 0 -17 5z" />
    <glyph glyph-name="n" unicode="n" horiz-adv-x="329" 
d="M254 29l11 6l11 -24l-12 -5q-11 -5 -19 -5q-11 0 -17 5q-9 7 -12 16t-3.5 17.5t-0.5 11.5q0 1 1 14.5t1.5 33.5t0 40.5t-2.5 35.5q0 7 -6 9q-12 7 -34.5 3t-41.5 -11q1 -7 1 -16q1 -61 0.5 -103t-0.5 -44v-13l-26 1l1 13v0v44.5v101.5q-1 21 -4 30.5t-6 10.5
q-1 0 -2.5 -0.5t-3.5 -1.5t-3 -1l-9 -8l-17 19l10 8q1 1 6.5 4.5t13 5t16.5 -2.5q12 -6 18 -23q18 7 45.5 11.5t48.5 -5.5q16 -10 19 -29q2 -22 2 -51t-1 -52t-1 -26q-1 -7 0.5 -13.5t4.5 -8.5q1 -2 11 2z" />
    <glyph glyph-name="o" unicode="o" horiz-adv-x="289" 
d="M199 51q9 24 8.5 55.5t-8.5 49.5q-5 11 -15 19t-36 8h-3q-24 -1 -35.5 -7.5t-17.5 -19.5v-1q-8 -16 -8.5 -49.5t8.5 -53.5q4 -10 14 -18.5t39 -8.5q30 0 40 8t14 18zM145 208q36 1 53 -11.5t24 -28.5q11 -25 11 -62.5t-11 -64.5v-1v0q-7 -16 -22.5 -28t-54.5 -12
q-37 0 -53 12.5t-23 27.5q-12 26 -11.5 66t12.5 62q19 41 75 40z" />
    <glyph glyph-name="p" unicode="p" horiz-adv-x="330" 
d="M262 55q-22 -32 -65 -34q-7 -1 -14 -1q-36 0 -68 11q-1 -40 -3 -93q-1 -28 -17 -38q-5 -4 -15 -4q-8 0 -18 4l-12 6l11 23l12 -5q7 -3 9 -2q1 1 2.5 5t1.5 12q5 116 3 185v13l25 1l1 -13q1 -31 0 -66l1 -1q38 -15 80 -12q30 2 44 23q12 20 12.5 44t-3.5 37q-5 15 -20 28
t-49 16q-32 1 -87 -13l-12 -3l-6 25l12 3q21 6 46.5 10t48.5 3q69 -3 91 -61q6 -15 5.5 -45t-16.5 -58z" />
    <glyph glyph-name="q" unicode="q" horiz-adv-x="321" 
d="M233 -64l12 5l11 -23l-12 -6q-10 -4 -18 -4q-10 0 -15 4q-6 4 -11 12.5t-6 25.5q-1 41 1 75q-18 -4 -35 -4t-37 5q-30 8 -46 34q-14 26 -14.5 53.5t4.5 43.5q16 58 74 63q44 4 84 -11l12 -4l-9 -24l-12 4q-34 13 -73 10q-41 -3 -51 -44q-4 -15 -3.5 -37t10.5 -41
q10 -17 31 -23q18 -4 32.5 -3.5t33.5 4.5q3 41 7 76l1 13l25 -3l-1 -13q-9 -70 -8 -173q0 -9 1.5 -12.5t2.5 -4.5q2 -1 9 2z" />
    <glyph glyph-name="r" unicode="r" horiz-adv-x="320" 
d="M142 183q15 19 41.5 28.5t63.5 -4.5l12 -5l-10 -23l-12 5q-22 8 -38.5 5t-27.5 -12.5t-16.5 -18.5t-5.5 -10l-6 -12q1 -54 0.5 -90.5t-0.5 -38.5v-12h-26v13q0 2 0.5 46.5t-0.5 108.5q0 23 -3.5 33t-6.5 11q-2 1 -4 0.5t-3.5 -1.5t-2.5 -2l-10 -8l-16 20l9 8q2 1 7 4
t13 5t17 -2q20 -9 25 -48z" />
    <glyph glyph-name="s" unicode="s" horiz-adv-x="315" 
d="M231 58q-3 -28 -25.5 -47.5t-51.5 -19.5q-23 0 -43.5 8t-31.5 18l-9 8l17 19l10 -9q5 -5 21 -11.5t36 -6.5q21 0 35.5 13.5t15.5 29.5q1 18 -15 29.5t-45 21.5q-28 10 -50.5 27t-16.5 51q4 16 15 29t24 18q39 14 65 7t40 -21.5t18 -26.5l5 -12l-24 -9l-5 12
q-2 8 -12.5 18t-29.5 14t-48 -6q-8 -2 -14.5 -10.5t-8.5 -18.5q-4 -16 9 -26.5t43 -21.5q28 -9 52 -26t24 -51z" />
    <glyph glyph-name="t" unicode="t" horiz-adv-x="274" 
d="M148 211q32 1 59 -1l13 -1l-2 -25l-13 1q-26 1 -58 0q-1 -59 -2 -143q0 -13 7 -15q4 -1 9 2.5t9 11.5l6 11l23 -11l-6 -11q-16 -29 -39 -29q-4 0 -8 1q-26 8 -27 41q1 83 3 142q-21 -1 -34 -1.5t-14 -0.5l-13 -1l-1 26l13 1v0q3 0 16.5 0.5t32.5 1.5q2 64 2 67l1 12
l26 -1l-1 -12q0 -3 -2 -66z" />
    <glyph glyph-name="u" unicode="u" horiz-adv-x="345" 
d="M255 32l12 4l9 -24l-12 -4q-10 -3 -16 -3q-13 0 -19 6q-6 5 -9 11q-43 -22 -73 -22q-20 0 -35 10q-16 11 -23 27t-8 29.5t-1 17.5v129h26v-130v-7t1.5 -14.5t6 -16.5t12.5 -14q26 -16 84 15l4 2q0 2 1 3v159h25v-160q0 -5 1 -11t3 -8q3 -2 11 1z" />
    <glyph glyph-name="v" unicode="v" horiz-adv-x="320" 
d="M231 206l4 13l24 -8l-4 -12q0 -2 -9.5 -30t-24 -68t-30.5 -76q-11 -24 -28 -25h-1q-6 0 -14 4.5t-16 19.5q-19 35 -33.5 74.5t-22.5 68.5t-9 32l-3 13l25 6l3 -12q0 -2 8 -30.5t22 -67t32 -72.5q6 -9 8 -10q2 1 6 9q15 36 29 74.5t23.5 66.5t10.5 30v0z" />
    <glyph glyph-name="w" unicode="w" horiz-adv-x="426" 
d="M333 211l3 13l25 -6l-3 -13q0 -2 -7.5 -32.5t-17.5 -71.5t-20 -75q-6 -23 -21 -25h-2q-7 0 -12 4.5t-8 10t-5 8.5q-22 53 -35.5 101t-15.5 56v1v0v0q-2 -10 -17 -57t-37 -99q-1 -4 -4.5 -9.5t-9 -10t-13.5 -3.5q-15 1 -21 25q-9 34 -18.5 75t-16 71.5t-7.5 32.5l-2 13
l25 5l2 -13q1 -2 7 -32t15.5 -70.5t19.5 -73.5v0q15 34 26.5 69t18.5 59t7 25l1 1q7 18 25 18q18 -2 24 -20q0 -2 6.5 -26t17.5 -58.5t26 -68.5v0v-1q9 34 19 74.5t17.5 70.5t7.5 32z" />
    <glyph glyph-name="x" unicode="x" horiz-adv-x="305" 
d="M171 99q31 -38 63 -70l10 -9l-18 -19l-10 9q-32 32 -62 69q-31 -37 -67 -69l-10 -9l-17 20l10 8q36 33 68 70q-26 32 -42.5 55t-18.5 25l-7 11l21 15l8 -11v0q1 -2 16.5 -23t39.5 -52q26 33 42 55t16 24l7 10l22 -14l-7 -10q-2 -3 -19 -27t-45 -58z" />
    <glyph glyph-name="y" unicode="y" horiz-adv-x="287" 
d="M169 -41q10 5 14 15.5t5 21.5q6 47 8 101q-14 -14 -30.5 -26t-33.5 -13q-6 0 -12 3q-35 13 -19 116q2 13 1 17q-2 -1 -4.5 -2.5t-4.5 -2.5l-10 -9l-17 22l10 8q2 2 8.5 6t15 5.5t16.5 -2.5q9 -5 11.5 -14t2 -18t-1.5 -14q-2 -15 -3 -26.5t-1.5 -20.5t0 -15.5t1.5 -11
t2 -7t2 -4t1.5 -2l0.5 -0.5q7 -2 25.5 12.5t36.5 37.5l4 5q1 30 1 49.5t-1 21.5v1v13l28 1v-14v-40.5t-2 -86t-7 -94.5q-4 -27 -14.5 -40.5t-20.5 -17.5q-11 -5 -24 -5q-25 0 -55 20l-12 7l15 23l12 -7q32 -22 52 -13z" />
    <glyph glyph-name="z" unicode="z" horiz-adv-x="282" 
d="M146 128q24 26 44 50q3 4 3 5q-8 7 -41.5 7.5t-75.5 -5.5l-13 -1l-3 25l13 2q1 0 19 2t42 3q70 2 82 -21q3 -5 2.5 -13.5t-8.5 -19.5q-21 -25 -45 -51q-30 -32 -51 -60q-6 -8 -9 -13.5t-5 -9t-2.5 -6t-0.5 -3.5v-1v0q1 0 3 -1t7 -1q20 -1 43.5 -1t41 0.5t18.5 0.5l13 1
l1 -26h-13q-2 0 -20 -0.5t-41 -0.5t-44 1q-26 1 -33 17q-7 19 13.5 48t59.5 72z" />
    <glyph glyph-name="braceleft" unicode="{" horiz-adv-x="187" 
d="M156 -28h-1l1 -26h-1q-2 0 -9.5 2t-17.5 11q-30 30 -28 114q0 31 -8 50.5t-19 29.5t-20 14t-11 4q-4 1 -7 4.5t-3 8.5q0 4 2.5 8t7.5 5q1 0 10 4t20 14.5t18.5 30t6.5 50.5q-4 84 25 115q10 9 18 11.5t9 2.5v-26h1q-5 0 -12 -9t-12 -31t-3 -62q1 -48 -15 -75t-34 -38
q18 -10 35 -36.5t17 -74.5q-1 -40 4.5 -62t13 -31t12.5 -8z" />
    <glyph glyph-name="bar" unicode="|" horiz-adv-x="100" 
d="M41 -30v437h26v-437h-26z" />
    <glyph glyph-name="braceright" unicode="}" horiz-adv-x="187" 
d="M36 426q2 0 9.5 -2t17.5 -11q31 -29 30 -114q0 -25 5.5 -42t14.5 -28t17.5 -16.5t14.5 -7.5t7 -2l6 1l1 -3l5 -1l-2 -10l3 -11l-5 -1l-1 -3l-7 1q-1 0 -10 -4t-19.5 -14.5t-18 -30t-6.5 -50.5q5 -85 -24 -116q-9 -9 -16.5 -11.5t-10.5 -1.5v25v0q4 0 11 9t12 31t3 62
q-2 49 13.5 76t34.5 38q-19 10 -36 36t-18 75q0 47 -7.5 68.5t-13.5 26.5q-4 3 -6.5 4l-2.5 1h-13l-1 26h13z" />
    <glyph glyph-name="asciitilde" unicode="~" horiz-adv-x="248" 
d="M21 190l30 19q20 12 45 0.5t50.5 -22t65.5 9.5l13 6l5 -20l-21 -8q-34 -18 -59.5 -8t-49.5 21t-40 0l-26 -17z" />
    <glyph glyph-name="emdash" unicode="&#x2014;" 
d="M16 182q4 0 88.5 0.5t196 0.5t234.5 -1h15v-25h-15q-123 1 -234.5 1t-195.5 -0.5t-89 -0.5h-16v25h16z" />
    <glyph glyph-name="uni2016" unicode="&#x2016;" horiz-adv-x="225" 
d="M60 -37v437h26v-437h-26zM148 -37v437h26v-437h-26z" />
    <glyph glyph-name="quoteleft" unicode="&#x2018;" horiz-adv-x="226" 
d="M161 348q10 -10 6 -24t-20 -14q-12 0 -17 7l-1 2q-6 8 -7 18.5t1 19.5q3 19 12 36.5t18 24.5q4 3 7 2.5t4 -2.5q2 -2 2 -4t-2 -4l-3.5 -3t-8 -10t-7.5 -17q-2 -11 2.5 -18t8.5 -10q3 -2 5 -4z" />
    <glyph glyph-name="quoteright" unicode="&#x2019;" horiz-adv-x="225" 
d="M67 317q-3 0 -4 3q-2 2 -2 4t2 4v0l3.5 3.5t8 10t7.5 16.5q2 11 -2 18t-9 10q-3 2 -5 4q-10 10 -6 24t20 14q12 0 17 -7l1 -2q6 -8 7 -18.5t-1 -19.5q-3 -19 -12 -36.5t-18 -24.5q-4 -3 -7 -3z" />
    <glyph glyph-name="quotedblleft" unicode="&#x201c;" horiz-adv-x="226" 
d="M104 348q10 -10 6 -24t-20 -14q-12 0 -17 7l-1 2q-6 8 -7 18.5t1 19.5q3 19 12 36.5t18 24.5q4 3 7 2.5t5 -2.5q1 -2 1 -4t-2 -4l-3.5 -3t-8 -10t-7.5 -17q-2 -11 2.5 -18t8.5 -10q3 -2 5 -4zM197 410v0q-1 0 -4 -3.5t-7.5 -10t-7.5 -16.5q-3 -11 1.5 -18t9.5 -10
q2 -2 4 -3l1 -1q9 -10 5.5 -24t-19.5 -14q-12 0 -17 7l-1 2q-6 8 -7 18.5t1 19.5q3 19 11.5 36.5t18.5 24.5q4 3 7 2.5t4 -2.5q2 -2 1.5 -4t-1.5 -4z" />
    <glyph glyph-name="quotedblright" unicode="&#x201d;" horiz-adv-x="225" 
d="M32 328v0q1 0 4 3.5t7.5 10t7.5 16.5q3 11 -1.5 18t-9.5 10q-2 2 -4 3l-1 1q-9 10 -5.5 24t20.5 14q11 0 16 -7l1 -2q7 -8 7.5 -18.5t-1.5 -19.5q-3 -19 -11.5 -36.5t-18.5 -24.5q-4 -3 -6 -3q-4 0 -5 3q-2 2 -1.5 4t1.5 4zM145 415l1 -1q6 -9 7 -19.5t-1 -19.5
q-3 -19 -12 -36.5t-18 -24.5q-4 -2 -7 -2t-4 2q-2 2 -2 4.5t2 3.5v0l3.5 3.5t8 10t7.5 17.5q2 10 -2 17.5t-9 10.5q-3 1 -5 3q-10 10 -6 24.5t20 14.5q12 0 17 -8z" />
    <glyph glyph-name="ellipsis" unicode="&#x2026;" horiz-adv-x="499" 
d="M82 13q-14 0 -18.5 11t0 22t18.5 11t19 -11t0 -22t-19 -11zM250 57q14 0 19 -11t0 -22t-19 -11t-18.5 11t0 22t18.5 11zM407 57q14 0 19 -11t0 -22t-19 -11t-18.5 11t0 22t18.5 11z" />
    <glyph glyph-name="minute" unicode="&#x2032;" horiz-adv-x="512" 
d="M182 421q10 -6 14.5 -17.5t-1.5 -25.5l-84 -111q-2 -3 -5 -3q-1 0 -3 1q-4 2 -3 7l40 133q8 15 19.5 18t22.5 -2z" />
    <glyph glyph-name="second" unicode="&#x2033;" horiz-adv-x="512" 
d="M195 380l-84 -111q-2 -2 -5 -2h-3q-4 3 -3 8l40 133q8 14 19.5 17t21.5 -2q11 -5 15.5 -16.5t-1.5 -26.5zM274 421q11 -6 15.5 -17.5t-2.5 -25.5l-83 -111q-2 -3 -5 -3q-2 0 -3 1q-4 2 -3 7l39 133q9 15 20.5 18t21.5 -2z" />
    <glyph glyph-name="uni3001" unicode="&#x3001;" horiz-adv-x="551" 
d="M108 53l-11 7l13 22l11 -7q3 -1 29.5 -19.5t57.5 -46.5l10 -9l-18 -18l-9 8q-19 18 -38 32t-32 22.5z" />
    <glyph glyph-name="uni3002" unicode="&#x3002;" horiz-adv-x="551" 
d="M176 21q7 19 -2 33q-9 11 -26 10q-16 -1 -23 -16q-7 -17 2 -31q21 -20 44 -3q3 3 5 7zM200 11q-5 -10 -13 -17q-17 -13 -36 -13q-24 0 -43 20l-1 1q-18 26 -5 56q14 29 44 32q31 1 48 -21q18 -25 6 -58z" />
    <glyph glyph-name="uni3003" unicode="&#x3003;" horiz-adv-x="552" 
d="M289 306q-1 -4 -14.5 -44.5t-39 -98t-62.5 -112.5l-7 -10l-21 14l7 11q36 53 61 109.5t38 96t13 41.5l4 13l25 -7zM261 45l7 11q36 53 61 109.5t38 96t14 41.5l3 12l25 -6l-4 -13q-1 -4 -14 -44.5t-39 -98t-63 -112.5l-7 -11z" />
    <glyph glyph-name="uni3005" unicode="&#x3005;" horiz-adv-x="552" 
d="M138 139l8 10q31 44 54 86.5t36 71.5t14 30l5 12l23 -10l-4 -12q-2 -6 -30.5 -64.5t-76.5 -128.5l-8 -10zM414 215q26 -47 -83 -148q25 -19 46 -42l9 -10l-19 -17l-9 9q-22 24 -48 43.5t-45 31.5t-20 13l-11 6l13 22l11 -6q2 -1 16.5 -10t36.5 -25q42 41 60 66t21 38
t0 17q-12 18 -54.5 18.5t-82.5 -7.5l-12 -3l-5 25l12 3q14 3 47.5 7t68 -1.5t48.5 -29.5z" />
    <glyph glyph-name="uni3008" unicode="&#x3008;" horiz-adv-x="551" 
d="M297 176v10q40 93 124 224l6 11l22 -14l-7 -10q-80 -126 -120 -216q57 -131 123 -213l7 -10l-20 -16l-8 10q-68 87 -127 224z" />
    <glyph glyph-name="uni3009" unicode="&#x3009;" horiz-adv-x="551" 
d="M254 192v-11q-68 -145 -124 -225l-8 -10l-20 15l7 10q54 76 120 216q-59 116 -123 213l-7 11l22 14l7 -11q66 -100 126 -222z" />
    <glyph glyph-name="uni300A" unicode="&#x300a;" horiz-adv-x="551" 
d="M331 184q37 -82 123 -215l7 -11l-21 -14l-7 11q-90 138 -127 223v10q22 51 56 111t67 113l7 11l22 -13l-7 -11q-32 -52 -65 -109.5t-55 -105.5zM261 184q49 -115 122 -213l8 -10l-20 -16l-8 10q-77 103 -128 224v10q41 97 124 224l7 11l22 -14l-7 -11q-80 -121 -120 -215
z" />
    <glyph glyph-name="uni300B" unicode="&#x300b;" horiz-adv-x="551" 
d="M255 191v-10q-46 -118 -125 -226l-8 -10l-20 15l7 11q76 102 120 215q-32 79 -123 213l-7 11l21 14l8 -10q95 -140 127 -223zM194 413q84 -122 127 -222v-10q-45 -113 -124 -226l-8 -10l-21 15l8 10q76 108 120 215q-42 97 -123 214l-7 10l21 15z" />
    <glyph glyph-name="uni300C" unicode="&#x300c;" horiz-adv-x="549" 
d="M343 379l13 13h95v-26h-82v-411h-26v424z" />
    <glyph glyph-name="uni300D" unicode="&#x300d;" horiz-adv-x="551" 
d="M177 -21v411h26v-424l-13 -13h-90v26h77z" />
    <glyph glyph-name="uni3010" unicode="&#x3010;" horiz-adv-x="551" 
d="M451 -11q10 -8 7 -21q-6 -13 -18 -13h-102q-8 0 -13.5 5.5t-5.5 13.5v399q0 7 5.5 13t13.5 6h100q13 0 18 -14q3 -13 -7 -21q-71 -51 -75 -175q2 -134 77 -193z" />
    <glyph glyph-name="uni3011" unicode="&#x3011;" horiz-adv-x="553" 
d="M221 389q8 0 13.5 -5.5t5.5 -13.5v-399q0 -8 -5.5 -13.5t-13.5 -5.5h-102q-13 0 -18 13q-4 13 7 22q74 58 76 192q-4 124 -74 175q-11 8 -8 21q6 14 19 14h100z" />
    <glyph glyph-name="uni4E00" unicode="&#x4e00;" 
d="M57 203h-13l-1 25l13 1q4 0 71.5 3t167.5 5.5t198 0.5h13v-26h-13q-99 2 -198 0t-166.5 -5t-71.5 -4z" />
    <glyph glyph-name="uni4E01" unicode="&#x4e01;" 
d="M57 374l-12 -1l-1 26h13q3 0 55 1.5t126.5 3t144.5 2.5t110 0l13 -1l-1 -25h-13q-68 1 -195 -1q4 -24 12.5 -102.5t4.5 -169.5q-6 -110 -51 -125q-6 -2 -13 -2q-32 0 -71 47l-8 10l20 16l8 -10q35 -42 56 -36q13 5 20 25t10 42t4 34q3 96 -6 176t-12 94q-85 -1 -147 -2.5
t-67 -1.5z" />
    <glyph glyph-name="uni4E03" unicode="&#x4e03;" 
d="M496 299l12 2l4 -25l-12 -2q-52 -8 -124 -19t-143 -22q-4 -55 -6 -102.5t0 -71.5q3 -39 19 -48.5t53 -10.5h5q108 -7 143 27q15 15 12 41l-1 13l26 2l1 -13q4 -37 -20 -61q-35 -36 -126 -36q-17 0 -37 1h-4q-38 1 -64 14.5t-32 68.5q-2 24 -0.5 71t5.5 101
q-65 -9 -108 -15.5t-46 -7.5l-12 -1l-4 25l13 2h2q12 2 54.5 8.5t102.5 15.5q5 62 9 108.5t5 53.5l1 13l25 -3l-1 -13q0 -3 -4 -48t-9 -108q150 23 261 40z" />
    <glyph glyph-name="uni4E07" unicode="&#x4e07;" 
d="M61 378h-13l-1 25h13v0q6 1 56.5 2t122 3t140.5 2.5t111 -0.5l13 -1l-1 -25h-12q-42 1 -109.5 0.5t-137.5 -1.5q-4 -24 -29 -120q106 13 151 8t61 -23q24 -20 24 -61q0 -67 -8.5 -124.5t-42.5 -76.5q-11 -5 -24 -5q-33 0 -80 38l-10 8l15 20l10 -8q19 -15 40.5 -25.5
t37.5 -4.5q18 11 25.5 43t9 70.5t1.5 64.5q0 30 -15 42q-42 31 -203 8q-30 -108 -88 -245l-6 -12l-23 11l5 11q58 135 87.5 240.5t35.5 139.5q-66 -2 -110 -3t-46 -1z" />
    <glyph glyph-name="uni4E08" unicode="&#x4e08;" 
d="M59 309h-13l-1 25l13 1q5 0 88.5 2.5t200.5 3.5q36 80 37 85l4 12l24 -8l-4 -12q0 -5 -32 -77h116l13 -1v-25h-13q-64 1 -128 0q-38 -81 -110 -184q89 -60 238 -133l11 -5l-11 -23l-11 5q-156 76 -243 136q-56 -76 -133 -142l-9 -8l-17 20l10 8q73 63 128 136l-12 8
q-92 67 -94 72l-10 9l17 19l10 -9q1 -5 104 -78q66 93 103 169q-113 -1 -192.5 -3.5t-83.5 -2.5z" />
    <glyph glyph-name="uni4E09" unicode="&#x4e09;" 
d="M97 352l-13 -1l-2 26h13q3 1 57 4t138 4.5t175 -1.5h13l-1 -26l-13 1q-91 2 -174 0.5t-136.5 -4.5t-56.5 -3zM119 218q2 0 49.5 2.5t118.5 4t146 -1.5l12 -1l-1 -25h-13q-73 3 -143.5 2t-117.5 -3.5t-49 -3.5l-13 -1l-2 26zM62 2l-13 -1l-1 26h13q7 1 131.5 4.5
t296.5 -0.5h13l-1 -26h-12q-172 4 -296 1t-131 -4z" />
    <glyph glyph-name="uni4E0A" unicode="&#x4e0a;" 
d="M58 -18h-13l-1 25l13 1q2 0 50 1.5t128 3.5v403h26v-160l9 1v0q2 0 29.5 1.5t68.5 2.5t84 -1l13 -1l-2 -25h-12q-43 2 -83.5 1t-67.5 -2.5t-28 -1.5h-11v-218q105 1 232 -2h13l-1 -26l-13 1q-175 4 -301 0.5t-133 -4.5z" />
    <glyph glyph-name="uni4E0B" unicode="&#x4e0b;" 
d="M58 377h-13l-1 25l13 1q7 1 133.5 4t302.5 -1h13l-1 -26l-13 1q-126 3 -231 1v-398h-26v398q-79 -1 -127 -3t-50 -2zM438 157q-32 32 -63.5 58t-53 41t-22.5 15l-10 8l14 21l10 -7q5 -3 48.5 -35t94.5 -83l9 -9l-18 -18z" />
    <glyph glyph-name="uni4E0D" unicode="&#x4e0d;" 
d="M283 288v-303h-26v303h26zM353 260q5 -2 48.5 -34.5t94.5 -82.5l9 -9l-18 -18l-9 9q-32 32 -63.5 57.5t-53 41t-22.5 15.5l-10 7l14 22zM54 124q93 88 147 158.5t71 100.5q-94 -1 -151 -3t-60 -2l-12 -1l-2 26h13q7 1 127 4.5t295 -0.5h13l-1 -26h-13q-96 3 -180 2
q-5 -13 -61.5 -92t-167.5 -186l-10 -8l-17 19z" />
    <glyph glyph-name="uni4E0E" unicode="&#x4e0e;" 
d="M175 210q-23 -1 -35 12q-12 14 -9.5 46t13.5 90v0q5 26 10 59l3 12l25 -4l-2 -13q-6 -33 -11 -59q0 -2 -1 -5v-1q36 3 128.5 6t196.5 -1l13 -1l-1 -25h-13q-109 5 -204.5 1.5t-124.5 -6.5q-13 -66 -4 -82q4 -4 14 -3q176 12 241 2.5t66 -55.5q5 -58 -9 -116
q-5 -26 -18.5 -53t-38.5 -42q-16 -8 -34 -8q-35 0 -77 33l-10 8l16 20l10 -8q50 -40 83 -22q32 21 44.5 78t7.5 107q0 12 -8.5 21t-39.5 13q-66 8 -231 -4zM59 99l-13 -1l-2 25l13 1q2 1 49 3.5t118.5 4t148.5 -2.5h13l-2 -26l-12 1q-76 3 -147 1.5t-117.5 -4t-48.5 -2.5z
" />
    <glyph glyph-name="uni4E11" unicode="&#x4e11;" 
d="M211 197l-22 -177q85 3 190 3l1 3q0 3 5.5 37t13 84.5t13.5 101.5t7 87q1 11 -6 18q-17 16 -64.5 20t-114.5 1l-19 -152q71 3 129 -4l13 -2l-4 -25l-12 2q-57 7 -130 3zM53 -13h-13l-2 25l13 1q7 1 112 6l22 177q-40 -2 -66.5 -4.5t-28.5 -2.5v0l-13 -2l-3 26l13 1
q3 0 31.5 3t70.5 5l19 152q-56 -4 -117 -8l-12 -1l-2 25l13 1q132 11 220.5 10.5t120.5 -28.5q15 -16 13 -38q-1 -49 -10 -118t-18 -126t-11 -68q47 -1 94 -3h13l-1 -26l-13 1q-106 4 -207 2t-168 -5.5t-70 -4.5z" />
    <glyph glyph-name="uni4E13" unicode="&#x4e13;" 
d="M63 235l-12 -1l-2 25l13 1q2 0 34.5 2t84.5 4l27 73q-52 -2 -83.5 -4t-32.5 -2l-13 -1l-2 25l13 1q1 0 36 2.5t92 4.5l26 67l24 -9l-22 -58q98 4 209 -1h13l-1 -26l-13 1q-116 4 -218 1l-28 -73q148 6 280 -3l12 -2l-2 -25l-13 1q-62 6 -139.5 6t-147.5 -3l-30 -80
q29 3 77.5 6t97.5 3q68 -1 80 -31q10 -24 -22 -56q-21 -20 -47 -34.5t-46 -23.5q32 -15 64 -35l11 -7l-13 -21l-11 6q-79 47 -139.5 66.5t-64.5 18.5l-13 3l5 25l13 -3q3 0 35 -9t81 -29l3 1q1 0 19.5 8t42.5 21.5t42 30.5q21 22 17 29q-1 4 -14 8.5t-44 5.5q-42 0 -86 -2.5
t-74 -5.5t-32 -3l-13 17l34 90q-48 -2 -77 -3.5t-31 -1.5z" />
    <glyph glyph-name="uni4E14" unicode="&#x4e14;" 
d="M56 -14h-12l-2 25l13 1q3 0 58 3v303h25v-45q17 0 57.5 2t80 3.5t53.5 0.5h13l-1 -26l-13 1q-11 0 -44.5 -1t-73.5 -2.5t-72 -3.5v-100q17 0 60.5 1.5t86.5 2.5t59 1l13 -1l-1 -25h-13q-15 1 -58.5 0t-87 -2.5t-59.5 -2.5v-105q120 6 268 4q9 49 16 319q0 9 -8 16
q-32 23 -121 23.5t-183 -13.5l-13 -2l-4 25l13 2q25 4 90.5 10.5t133.5 2.5t101 -29q16 -15 16 -36q-4 -227 -15 -318q34 -2 63 -5l13 -1l-2 -25l-13 1q-78 7 -178.5 5.5t-176.5 -5t-82 -4.5z" />
    <glyph glyph-name="uni4E16" unicode="&#x4e16;" 
d="M405 276q-75 1 -139 1q-1 -41 -1 -79q0 -70 57 -65q26 0 49 2.5t34 4.5v136zM61 271l-13 -1l-1 26l13 1q2 0 51 2q1 40 2 64.5t1 25.5l1 13l25 -1v-13q0 -1 -1 -25t-2 -63q43 1 104 2q1 39 2 66t1 31v1l1 13l26 -1l-1 -13q0 -2 -1 -29t-2 -68q63 1 138 0v115h26v-115
q29 -1 59 -2h13l-1 -26l-13 1q-29 1 -58 1v-171h-26v9q-33 -7 -83 -7q-82 0 -82 91q0 38 1 78q-62 -1 -105 -2q-3 -88 -3 -174q0 -105 87 -100q99 0 176 6t81 7l13 1l3 -25l-13 -1q-5 -1 -82.5 -7t-177.5 -6q-114 0 -113 125q0 86 3 173q-47 -2 -49 -2z" />
    <glyph glyph-name="uni4E18" unicode="&#x4e18;" 
d="M126 348h-12v26h12q75 0 146 7.5t117 15t48 8.5l13 3l5 -26l-13 -2q-2 -1 -48.5 -8.5t-119 -15.5t-148.5 -8zM61 -8l-13 -1l-1 26h13v0q4 1 65 3v278h25v-71q25 1 109.5 3t204.5 -1h13l-1 -26l-13 1q-122 2 -206.5 0t-106.5 -3v-181q77 3 195 3v136h26v-136q57 0 119 -2
h13l-1 -26h-13q-177 4 -299 0.5t-129 -3.5z" />
    <glyph glyph-name="uni4E19" unicode="&#x4e19;" 
d="M57 388l-13 -1l-1 25l13 1q5 1 83 4.5t178.5 5.5t175.5 -3h13l-1 -26l-13 1q-81 4 -191 2q0 -5 -1.5 -30t-7.5 -63q169 7 181 -45q17 -64 10.5 -154.5t-48.5 -123.5q-10 -7 -25 -7q-21 0 -53 26l-10 8l18 19l9 -8q30 -27 47 -16q29 20 37 105q6 81 -10 145q0 1 -3 5
t-12.5 8t-27 7.5t-46.5 5t-72 -0.5q-10 -47 -31 -98.5t-58 -97.5l-8 -10l-20 17l8 10q33 40 52.5 87t29.5 90q-69 -5 -121 -12t-55 -8l-12 -2l-5 25l13 2q3 1 57.5 8.5t125.5 12.5h1h1q7 38 9 63t2 31q-88 -2 -151.5 -5t-67.5 -3zM93 -18v221h26v-221h-26zM391 92
q-42 36 -66 62.5t-25 29.5l-8 10l21 16l7 -11q1 -1 24 -27t63 -60l10 -8l-16 -20z" />
    <glyph glyph-name="uni4E1A" unicode="&#x4e1a;" 
d="M52 -15h-13l-1 26h13q2 0 43 1.5t104 2.5v395h26v-394q47 1 97 1v399h26v-399q83 1 151 -2l13 -1l-1 -25h-13q-84 3 -186.5 2t-178 -3t-80.5 -3zM77 305l5 -12q0 -1 10 -24.5t28.5 -58.5t42.5 -71l7 -11l-21 -14l-7 10q-38 57 -60.5 106t-23.5 54l-5 12zM379 136
q23 28 42.5 64.5t32 64t12.5 28.5l5 12l24 -9l-5 -12q-1 -3 -13.5 -31.5t-33 -66t-44.5 -66.5l-9 -10l-19 16z" />
    <glyph glyph-name="uni4E1B" unicode="&#x4e1b;" 
d="M166 405l1 12l25 -2l-1 -13q0 -6 -8.5 -62t-30.5 -134t-63 -150l-6 -11l-22 12l6 11q39 71 60.5 147.5t30 131t8.5 58.5zM201 228q14 -21 26 -36.5t28 -31.5l8 -9l-18 -18l-9 9q-16 17 -29 33.5t-28 38.5l-7 11l22 14zM341 409l1 13l26 -2l-1 -13q0 -7 -9.5 -67
t-34 -142.5t-69.5 -158.5l-7 -10l-22 13l7 11q44 73 68 154.5t33 140t8 61.5zM356 204l-6 11l23 12l6 -11q0 -1 13 -22.5t36 -52.5t53 -61l9 -9l-18 -18l-9 9q-31 31 -55 63t-37.5 54t-14.5 25zM50 -24l-1 26h13q4 1 74.5 4t167.5 4.5t184 -2.5l12 -1l-1 -26l-13 1
q-85 5 -182 3.5t-166.5 -5t-74.5 -3.5z" />
    <glyph glyph-name="uni4E1C" unicode="&#x4e1c;" 
d="M376 133l11 -8q2 -1 23 -16.5t47.5 -36t47.5 -38.5l9 -8l-16 -20l-10 9q-20 17 -47 37.5t-47.5 36t-21.5 16.5l-11 7zM63 8l-9 -9l-18 18l9 9q22 22 47 45t43.5 39t21.5 18l9 8l17 -20l-10 -8v0q-2 -2 -20.5 -17.5t-43.5 -38t-46 -44.5zM257 -11q28 12 30 100q1 41 0 74
q-40 -4 -75 -4q-3 -1 -6 -1q-63 0 -79 26q-9 16 -4.5 36.5t15.5 41.5q20 43 40 78q-46 -2 -73.5 -3.5t-28.5 -2.5h-13l-2 25l13 1q2 0 34.5 2t85.5 4q35 55 39 59l8 11l20 -16l-7 -10q-2 -2 -29 -43q124 4 254 0l13 -1l-1 -25h-13q-140 5 -269 0q-24 -39 -48 -90
q-8 -17 -12 -31t0 -22q3 -5 16.5 -9.5t45.5 -4.5q35 1 75 5q-7 92 -9 96l-2 12l25 5l2 -13q2 -6 9 -98q65 7 103 15l13 2l5 -25l-13 -2q-40 -8 -107 -16q2 -34 1 -76q-2 -108 -48 -125q-6 -2 -15 -2q-13 0 -31.5 10t-40.5 37l-8 10l20 16l8 -10q36 -43 59 -36z" />
    <glyph glyph-name="uni4E1D" unicode="&#x4e1d;" 
d="M179 373q-25 -19 -42 -34.5t-27.5 -27t-15.5 -19.5t-7 -13.5t-2 -8t1 -2.5q0 -1 1.5 -2.5t5.5 -3.5t11.5 -3t20 -1.5t30.5 1t43 5.5l11 2q9 6 11 7l11 7l13 -22l-11 -7q-61 -38 -100.5 -77t-35.5 -56q0 -1 2 -3t7 -4t14.5 -3.5t25.5 -1.5t39 2.5t56 8.5l12 2l5 -25
l-13 -3q-61 -11 -101 -11q-60 0 -71 29q-8 28 22.5 62.5t68.5 62.5q-21 -2 -37 -2q-55 0 -65 25q-5 9 -1 25t27 43t76 69q2 2 4 3l10 8l16 -20l-10 -8q-2 -1 -5 -4zM337 334q-17 -15 -27 -26.5t-15.5 -19t-7.5 -12.5t-1.5 -7.5t0.5 -3.5l1.5 -1.5t5 -3t11 -3t19.5 -1.5
t29.5 1.5t41.5 5.5l11 1q18 12 30 19l11 7l13 -22l-11 -7q-62 -37 -103.5 -78.5t-36.5 -61.5q0 -2 3.5 -5t13 -6t27.5 -4t47.5 2t73.5 11l12 3l5 -25l-12 -3q-72 -14 -117 -14q-67 0 -77 31q-9 27 16 59.5t62 61.5q-20 -2 -36 -2q-54 0 -64 26q-14 33 58 97q25 22 45.5 37
t22.5 17l10 7l15 -21l-10 -7v0q-2 -1 -22 -16t-44 -36zM507 9l-1 -26l-13 1q-172 3 -300.5 0t-136.5 -4h-13l-1 25l13 1q8 1 137 4t302 -1h13z" />
    <glyph glyph-name="uni4E22" unicode="&#x4e22;" 
d="M473 -2l-20 -16l-8 10q-9 11 -18 21l-11 -2q-133 -24 -195 -24q-45 1 -63.5 9.5t-21.5 19.5q-20 41 95 122l11 8l14 -21l-10 -8q-23 -16 -39 -29t-25.5 -23t-14.5 -17t-6.5 -11.5t-1.5 -7v-2.5q1 -2 4 -4.5t12 -5t26 -4t44 0t67.5 6.5t96.5 16q-21 25 -33.5 40.5
t-13.5 16.5l-8 10l20 16l8 -10h1q2 -3 25 -31.5t57 -69.5zM55 144h-13l-1 26h13q4 0 63.5 1.5t144.5 2.5v87q-71 -3 -118 -5t-50 -3h-13l-1 25l12 1q3 0 51 2.5t119 4.5v73h25l1 -72q87 2 169 1h12v-26h-13q-81 2 -168 -1v-86q114 2 208 0h13l-1 -25h-13q-82 1 -183 -0.5
t-176.5 -3t-80.5 -2.5zM143 390q122 4 185.5 13.5t64.5 11.5l12 3l6 -25l-12 -3q-3 -2 -67 -12t-188 -13l-13 -1l-1 26h13z" />
    <glyph glyph-name="uni4E24" unicode="&#x4e24;" 
d="M259 316q35 2 64 1q3 33 4.5 52.5t1.5 21.5q-49 0 -96 -2q0 -9 -9 -75q18 1 35 2zM502 411l-2 -25l-13 1q-59 4 -132 4v-2q0 -8 -6 -72q116 -5 123 -51q13 -79 3 -166.5t-49 -111.5q-6 -3 -14 -3q-9 0 -20.5 6.5t-25.5 22.5l-8 10l20 16l8 -10q6 -7 14 -14t16 -4
q19 4 34 89q9 81 -3 160q0 3 -3.5 7t-13.5 9t-30.5 9t-53.5 5q-5 -34 -12 -73l6 -8q1 -1 12 -14.5t29 -33.5t40 -39l10 -8l-17 -20l-9 8q-27 23 -47.5 46t-30.5 36q-15 -69 -42 -127l-5 -11l-23 11l5 12q23 49 37 109t21 113q-26 0 -59 -2q-21 -1 -40 -2q-5 -31 -13 -66
l6 -9q0 -1 7 -11t20 -24.5t31 -28.5l10 -8l-16 -20l-10 8q-40 34 -56 58q-16 -66 -43 -118l-6 -11l-23 12l7 12q22 42 36.5 97.5t22.5 106.5q-51 -5 -85.5 -9.5t-36.5 -5.5l-12 -2l-4 26l12 2q2 0 39 5t91 10q9 63 9 77q-62 -2 -102.5 -4t-43.5 -2l-12 -1l-2 26l13 1
q5 0 78 3.5t171.5 4.5t179.5 -5zM78 -13v241h26v-241h-26z" />
    <glyph glyph-name="uni4E25" unicode="&#x4e25;" 
d="M323 245v148q-44 0 -87 -1v-148q43 1 87 1zM493 390l-12 1q-53 3 -132 2v-147q81 0 137 -3h13l-2 -26l-13 1q-45 2 -109.5 2t-128.5 -1.5t-107.5 -3.5t-46.5 -2h-12l-1 25l12 1q2 0 35 1t85 3v148q-55 -2 -92 -3t-41 -1v0l-13 -1l-1 26h13q3 0 48 2t112 3.5t133.5 1.5
t111.5 -2l13 -1zM50 -18l4 12q13 36 20.5 71.5t10.5 59t3 24.5l2 13l25 -3l-1 -12q0 -3 -3.5 -27.5t-11.5 -60.5t-21 -74l-4 -12zM153 286q-27 21 -42 37t-16 17l-8 10l20 16l8 -10q0 -1 14 -15.5t39 -34.5l10 -7l-15 -21zM388 302q29 20 45.5 36.5t16.5 17.5l9 10l19 -16
l-8 -10q-1 -2 -19 -20t-50 -39l-10 -7l-14 21z" />
    <glyph glyph-name="uni4E27" unicode="&#x4e27;" 
d="M192 234l-11 6q-17 10 -34.5 23.5t-29.5 24t-13 11.5l-10 9l17 19l10 -9l12 -10t28.5 -23t32.5 -23l11 -6zM348 261q23 15 41 28t41 32l10 9l16 -20l-10 -8q-24 -20 -42 -33.5t-43 -28.5l-11 -7l-13 22zM287 217q129 5 206 0l13 -1l-3 -26l-12 2q-76 5 -204 -1h-3
q-69 -2 -127 -5q-6 -51 -3 -116q7 -76 24 -78q16 -4 42 28l9 10l19 -16l-8 -10q-31 -38 -58 -38q-6 0 -11 2q-38 12 -43 101q-2 65 3 115q-69 -4 -74 -4l-12 -1l-2 26l13 1q8 0 66.5 3.5t138.5 6.5v136q-75 -3 -128.5 -6t-56.5 -3l-13 -1l-2 25l13 1q7 1 60.5 4t126.5 6v52
h26v-52q121 5 196 -1l13 -1l-3 -25l-12 1q-74 5 -194 1v-136zM462 139l-10 -8q-2 -3 -24 -21t-55 -36q49 -39 119 -79l11 -6l-13 -22l-11 6q-95 55 -151 105t-60 56l-9 9l19 18l9 -10q2 -5 64 -59l10 5q20 11 36.5 22.5t26.5 20.5t11 9l9 9z" />
    <glyph glyph-name="uni4E2A" unicode="&#x4e2a;" 
d="M282 261v-290h-25v290h25zM60 197l-11 -7l-14 22l11 7q108 74 162 141t54 72l6 11l23 -13l-7 -11q-2 -8 -57 -76.5t-167 -145.5zM322 367l9 -8q21 -20 68 -57t104 -71l11 -6l-12 -22l-11 6q-57 33 -104 69.5t-73 61.5l-10 8z" />
    <glyph glyph-name="uni4E2B" unicode="&#x4e2b;" 
d="M96 416q0 -1 16 -17.5t42.5 -39.5t58.5 -44l11 -7l-13 -21l-11 6q-34 22 -61.5 46t-44 41.5t-18.5 19.5l-8 9l19 17zM473 398q-3 -4 -41 -40t-103 -71l-12 -6l-11 22l11 6q41 22 71.5 46t47 41.5t17.5 18.5l8 10l20 -17zM286 260l-3 -283h-26l3 284z" />
    <glyph glyph-name="uni4E2D" unicode="&#x4e2d;" 
d="M262 432h26v-92q75 2 114 -6t52 -20q16 -13 18 -32v-1q0 -34 -1.5 -66.5t-8.5 -77.5l-2 -13l-25 5l2 12q7 43 8.5 75t0.5 65q0 2 -1.5 5.5t-6.5 7.5q-32 24 -150 21v-142q43 1 87 -1l12 -1l-1 -25h-13q-43 2 -85 1v-183h-26v182q-61 -2 -101 -6.5t-43 -4.5l-12 -2l-1 3
v-17h-25v134h25v-94l10 1q2 1 43.5 5t103.5 7v142q-73 -4 -168 -18l-12 -2l-4 25l13 2q102 15 171 18v93z" />
    <glyph glyph-name="uni4E30" unicode="&#x4e30;" 
d="M56 90h-13l-1 25l13 1q2 0 58 2t146 3v89q-68 -2 -114 -4t-49 -2l-13 -1l-1 26h13q2 1 48.5 3t115.5 4v94q-79 -2 -131.5 -4t-55.5 -3h-12l-2 25l13 1q3 0 55.5 2.5t132.5 4.5l1 76h25v-75q94 1 189 -2h12l-1 -26l-12 1q-95 3 -188 1v-95q84 2 163 -2h13l-1 -26l-13 1
q-78 3 -162 1v-89q98 1 209 -2h13l-1 -26l-13 1q-111 3 -208 2l-1 -132h-25v131q-90 -1 -145 -3t-58 -2z" />
    <glyph glyph-name="uni4E32" unicode="&#x4e32;" 
d="M434 42l3 13q9 30 9 79q0 3 -1.5 6.5t-6.5 7.5q-32 24 -150 21v-88q43 2 87 0l12 -1l-1 -26l-13 1q-43 2 -85 1v-88h-26v87q-61 -3 -101 -7t-43 -4l-12 -2l-1 3v-17h-25v101h25v-61l10 1q2 1 43.5 5t103.5 7v86q-73 -3 -168 -17l-12 -2l-4 25l13 2q102 15 171 18v51
q-56 -3 -94 -6t-41 -4v0l-13 -1v-15h-26v109h26v-68l10 1q2 0 41 3.5t97 6.5v88q-66 -4 -159 -18l-13 -2l-3 26l12 2q96 14 163 18v44h26v-43q111 4 145 -25q17 -13 18 -33v-1q-1 -54 -10 -87l-3 -12l-25 6l3 12q9 30 10 80q-1 9 -9 15q-28 23 -129 19v-88q34 1 69 0h13
l-1 -26l-12 1q-35 0 -69 -1v-51q75 2 114 -6t52 -20q16 -13 18 -32v-1q-1 -54 -10 -87l-3 -12z" />
    <glyph glyph-name="uni4E34" unicode="&#x4e34;" 
d="M55 65v278h26v-278h-26zM144 -29v455h26v-455h-26zM310 425l-5 -12q0 -2 -5 -16t-14 -35q12 1 47 3t76.5 3t72.5 -2l13 -1l-2 -25l-13 1q-33 2 -78 1t-80 -3.5t-38 -2.5l-10 -1q-22 -51 -51 -93l-8 -11l-21 15l8 11q21 30 39 68t29 66.5t11 30.5l4 12zM378 244
q-16 12 -30 24.5t-23 21.5l-10 10l-9 9l18 18l9 -9q0 -1 9 -9.5t22.5 -20.5t29.5 -24l10 -7l-15 -21zM450 -31l2 13q5 34 7 75t2.5 71t0.5 32t-1 4t-3 4q-25 16 -92 15v-171q27 0 48 -1l13 -1l-2 -26l-13 1q-37 3 -85.5 0.5t-71.5 -4.5v-12h-26v164h26v-126q29 3 85 5v170
q-59 -3 -107 -11l-12 -2l-4 25l12 2q13 3 62.5 8t103.5 3.5t79 -20.5q13 -11 13 -27q1 -3 0.5 -33.5t-2.5 -72t-8 -77.5l-2 -12z" />
    <glyph glyph-name="uni4E38" unicode="&#x4e38;" 
d="M236 426l-2 -13q0 -7 -13 -68q106 7 141 -23q17 -15 17 -40q0 -52 -2 -121.5t-4 -109.5q-1 -31 9 -42q9 -10 31 -10q39 -1 51 11q12 10 12 54v13h26v-13q0 -56 -20 -73q-17 -18 -63 -18h-6q-33 1 -49 18q-18 19 -17 61q2 33 4.5 104.5t1.5 125.5q0 13 -8 21
q-29 23 -129 16q-14 -62 -38 -143q45 -27 101 -55l11 -6l-11 -23l-12 6q-54 27 -97 53q-30 -92 -74 -175l-6 -11l-22 12l6 12q44 84 73 176q-36 21 -57 35t-22 15l-10 7l14 21l11 -7q4 -4 72 -46q12 41 21 76l13 52q-56 -4 -127 -10l-13 -1l-2 25l13 1q77 7 135 11
q14 69 14 73l2 13z" />
    <glyph glyph-name="uni4E39" unicode="&#x4e39;" 
d="M43 179l-1 26l13 1q4 0 74 3q4 49 4.5 81t0.5 33v13h26v-13q0 -4 -0.5 -35t-4.5 -78q119 5 263 4q-1 66 -7 162q0 1 -1 2.5t-4 3.5q-32 20 -123 15.5t-168 -16.5l-12 -2l-4 25l12 2q17 3 80.5 10.5t131.5 7t99 -20.5q13 -11 14 -26q7 -93 8 -164q27 -1 51 -2l13 -1
l-2 -25h-12q-24 2 -50 3q-1 -188 -51 -210q-8 -4 -18 -4q-21 0 -48 23l-9 8l17 19l9 -8q9 -8 19 -13.5t19 -1.5q8 3 16 20t13.5 56.5t6.5 110.5q-146 2 -265 -4q-9 -106 -44 -199l-5 -12l-24 10l5 12q33 86 42 188q-67 -2 -71 -3zM317 263l-11 7q-18 11 -33.5 23t-26 21
t-11.5 10l-10 8l17 19l10 -8q0 -1 10 -9t25.5 -20t32.5 -22l11 -7z" />
    <glyph glyph-name="uni4E3A" unicode="&#x4e3a;" 
d="M64 287l13 2q3 0 54 7t120 11q14 51 20 81t6 32l2 12l25 -3l-2 -13q2 -6 -24 -108q187 9 195 -50q13 -81 4 -169t-52 -116q-9 -5 -21 -5t-26 6.5t-32 22.5l-9 9l18 19l9 -9q31 -30 49 -20q30 20 38.5 99t-3.5 158q-2 15 -43.5 24t-134.5 6q-20 -66 -57.5 -146.5
t-96.5 -160.5l-7 -10l-21 16l8 10q55 75 91 150.5t56 138.5q-66 -5 -113 -11t-49 -7l-13 -2zM124 409l8 -8t21 -19.5t30 -22.5l11 -7l-14 -21l-11 6q-27 19 -45 36t-20 19l-8 10l19 17zM381 108l-10 7q-18 12 -34 24t-26 20.5t-11 9.5l-10 8l17 20l9 -9v0q2 -1 11.5 -9
t25 -19.5t31.5 -22.5l11 -7z" />
    <glyph glyph-name="uni4E3B" unicode="&#x4e3b;" 
d="M61 6q2 0 58 2t147 3v151q-70 -1 -117.5 -3.5t-50.5 -2.5h-12l-2 25l13 1v0q4 0 51.5 2t117.5 4v117q-78 -2 -128 -4.5t-52 -2.5l-13 -1l-2 25l13 1q3 1 61.5 3.5t147 4.5t179.5 -1l13 -1l-1 -25h-13q-92 3 -180 1v-116q85 1 164 -2l12 -1l-1 -25h-13q-78 3 -162 2v-151
q92 0 198 -2l13 -1l-1 -25h-12q-172 4 -296 0.5t-131 -3.5l-13 -1l-1 25zM311 360l-18 -18l-9 9q-11 10 -20.5 19t-16 15.5l-6.5 6.5l18 18l6.5 -6t16 -15.5l19.5 -19.5z" />
    <glyph glyph-name="uni4E3D" unicode="&#x4e3d;" 
d="M49 392l-1 25l13 1q7 1 131.5 4t296.5 0l13 -1l-1 -25h-12q-172 4 -296 0.5t-131 -3.5zM182 129l-8 10q-24 31 -38.5 54.5t-14.5 25.5l-6 12l22 12l6 -12q1 -1 14.5 -23.5t36.5 -52.5l8 -10zM417 129l-8 10q-24 28 -38 53t-15 28l-6 11l23 11l6 -11q0 -1 6 -12.5
t17.5 -28.5t25.5 -34l8 -10zM198 -16q-19 0 -40 21l-10 9l18 18l9 -9q6 -5 13.5 -10t13.5 -3q21 5 26 127q1 49 -2 92t-6 63q-1 7 -8 12q-21 11 -60.5 9t-69.5 -10l-13 -3l-6 25l13 3q6 2 34 6.5t61 4t55 -13.5q16 -11 19 -28q4 -22 7 -66.5t2 -93.5q-1 -48 -6 -77
t-11.5 -44t-13 -21t-9.5 -7q-8 -4 -16 -4zM75 -21v279h26v-279h-26zM432 -18q-19 0 -41 19l-9 9l17 19l9 -9q7 -6 14.5 -10t14.5 -2q16 11 22.5 59t5.5 111.5t-8 120.5q-1 1 -2 3t-3 4q-21 12 -66.5 9.5t-82.5 -9.5l-12 -3l-5 25l12 3q8 2 40.5 6.5t69.5 4t58 -14.5
q14 -10 16 -25q3 -25 6 -70t2 -93q-1 -49 -6 -79t-12 -45.5t-13.5 -21.5t-10.5 -7q-7 -4 -16 -4zM330 262v-287h-25v287h25z" />
    <glyph glyph-name="uni4E3E" unicode="&#x4e3e;" 
d="M124 424l6 -11q0 -1 4.5 -9t12 -19t17.5 -20l9 -9l-18 -18l-9 8q-11 12 -19.5 24t-14 21t-5.5 11l-6 11zM257 431l5 -11q1 0 5 -8t11.5 -19t16.5 -21l9 -10l-19 -17l-9 9q-10 12 -18.5 24.5t-13 21t-4.5 9.5l-6 11zM419 421l6 11l22 -14l-7 -11q-1 -2 -15 -21.5
t-37 -44.5l-8 -9l-19 18l9 9q21 23 34.5 42t14.5 20zM54 284l-12 -1l-2 25l13 1q6 0 48.5 2.5t105.5 6.5l2 -1q76 3 154 4.5t128 -1.5l12 -1l-1 -25h-13q-53 4 -139 2q16 -17 54.5 -51t93.5 -69l11 -7l-13 -21l-11 6q-72 47 -115.5 88t-46.5 46l-7 7q-48 -1 -95 -3
q-6 -11 -45 -55.5t-104 -87.5l-11 -7l-13 22l11 7q46 30 79.5 64t49.5 55q-57 -2 -94 -4t-40 -2zM75 78q2 1 53.5 6t131.5 10l1 75q-43 -2 -70 -5t-29 -3l-12 -2l-4 26l13 1q2 0 30 3t72 6l1 73h26l-1 -72q47 2 96 0l13 -1l-1 -25h-13q-49 3 -95 1l-1 -76q90 5 185 1l13 -1
l-1 -25h-13q-95 4 -185 0l-1 -105h-25l1 103q-79 -4 -129 -9.5t-53 -5.5l-13 -2l-3 26z" />
    <glyph glyph-name="uni4E43" unicode="&#x4e43;" 
d="M407 24q35 24 46.5 87t5.5 107q-1 11 -10 17q-25 13 -67 8t-65 -12l-10 23q1 1 13 8.5t28 22t29.5 35t18.5 46.5q1 4 -3 8q-3 4 -18 9.5t-50.5 8t-99.5 -0.5q-23 -1 -45 -3v-6q1 -7 -2.5 -68.5t-23 -146t-64.5 -162.5l-7 -11l-22 13l7 11q44 75 62.5 158t22 142.5
t2.5 63.5v3q-32 -3 -52 -5.5t-21 -2.5l-13 -2l-4 25l13 2q3 1 45 6t100 9q58 3 94 1t55.5 -7t28 -10.5t10.5 -8.5q13 -13 10 -30q-15 -61 -54 -95q25 4 51 2.5t45 -13.5t22 -35q3 -24 0 -68.5t-18 -88t-48 -63.5q-15 -9 -33 -9q-40 0 -91 43l-10 8l17 19l10 -8
q59 -50 95 -30z" />
    <glyph glyph-name="uni4E45" unicode="&#x4e45;" 
d="M62 -2q61 38 126 101t110 123t45 90q-1 8 -9 14q-23 17 -92 13q-28 -3 -47.5 -6t-20.5 -3l-2 -1q-29 -56 -70 -110l-8 -10l-20 16l8 10q29 37 52.5 78.5t37.5 72t15 31.5l5 12l23 -10l-5 -12q-2 -5 -23 -49q21 4 53 6q79 5 110 -17q17 -13 18 -33q-2 -56 -84 -151l1 -2
q2 -3 54.5 -50.5t147.5 -104.5l11 -7l-12 -22l-12 7q-94 56 -147.5 103.5t-59.5 55.5q-100 -108 -192 -167l-11 -6l-13 22z" />
    <glyph glyph-name="uni4E48" unicode="&#x4e48;" 
d="M65 189q72 86 132.5 146t65.5 63l10 8l17 -19l-10 -8q-4 -3 -64 -62t-131 -144l-8 -10l-20 16zM345 268q-2 -1 -37 -33t-80.5 -79t-80.5 -93q-16 -23 -12 -32q2 -3 10 -7t27 -6t53 0q83 5 209 23h5q-26 47 -44 72t-19 25l-8 10l20 16l8 -9q2 -2 29 -41t62 -112l5 -11
l-23 -11l-5 12q-6 13 -13 25l-14 -2q-157 -22 -238 -23q-70 0 -86 26q-6 11 -4 23.5t8 22t10 14.5q35 47 80.5 94t81 79.5t39.5 36.5l10 8l17 -19z" />
    <glyph glyph-name="uni4E49" unicode="&#x4e49;" 
d="M57 -12l11 7q121 82 192 157q-67 69 -106 117.5t-41 51.5l-7 11l20 15l8 -11q1 -3 39.5 -50.5t104.5 -115.5q42 46 68 81q38 54 54.5 86.5t15.5 33.5l5 12l24 -9l-5 -12q0 -6 -32 -64t-112 -146q82 -81 185 -148l11 -7l-13 -21l-11 6q-106 69 -189 152q-75 -78 -197 -161
l-11 -7zM222 427l8 -10q0 -1 9.5 -12.5t24.5 -27.5t32 -31l10 -8l-16 -20l-10 8q-19 16 -34.5 33t-25.5 29t-10 14l-8 10z" />
    <glyph glyph-name="uni4E4B" unicode="&#x4e4b;" 
d="M240 420q0 -1 7.5 -9t19.5 -19.5t27 -21.5l10 -8l-15 -20l-10 7q-24 18 -40.5 35t-18.5 19l-8 10l20 17zM73 -13l-10 -8l-16 20l10 8q2 2 32.5 25.5t76 56.5t91.5 62q26 17 47 31t37 26t27 21.5t18.5 17t12 13t7 9.5t3 6.5t0.5 3.5v1q-11 21 -61 25.5t-117 -1t-127 -16.5
l-13 -2l-4 25l12 2q3 1 47 8t104 11q162 10 182 -42q6 -10 -2 -28.5t-44.5 -50.5t-115.5 -82q-60 -39 -117 -81q148 -38 336 -38h13v-26h-13q-98 0 -193.5 11.5t-156.5 29.5l-12 4q-24 -18 -38.5 -29.5t-15.5 -12.5z" />
    <glyph glyph-name="uni4E4C" unicode="&#x4e4c;" 
d="M111 366l13 2q56 5 108 9l-10 11l10 8l16 18t13 15.5l5 6.5l8 10l20 -15l-7 -10q-1 -1 -6.5 -8t-13.5 -16.5t-18 -18.5q67 4 116 -1t71 -24q15 -14 15 -33q0 -21 -4.5 -49t-26.5 -43q-11 -7 -26 -7q-26 0 -62 20l-11 7l13 22l11 -6q43 -25 62 -14q13 9 15.5 32t2.5 38
q0 8 -6 14q-20 16 -72.5 19t-113 -1.5t-107.5 -9.5l-13 -1zM196 182q175 16 235.5 6t60.5 -55q5 -47 -9.5 -93t-47.5 -65q-12 -7 -30 -7q-15 0 -33.5 7.5t-40.5 26.5l-10 9l17 19l10 -9q45 -39 75 -23q25 14 36.5 53t7.5 79q-1 12 -8 20.5t-32 12.5q-50 9 -229 -6
q-15 -2 -29.5 0t-24.5 13q-13 12 -15.5 42t4.5 90l1 12l26 -2l-2 -13q-4 -37 -4.5 -68.5t8.5 -43.5q7 -7 34 -5zM52 87l13 1q8 1 67.5 5t132.5 7t121 0l13 -1l-2 -25l-12 1q-35 2 -87 0.5t-104.5 -4.5t-88.5 -5.5t-38 -2.5l-13 -2z" />
    <glyph glyph-name="uni4E4D" unicode="&#x4e4d;" 
d="M485 370l13 -1l-2 -25l-13 1q-52 3 -117.5 0.5t-119.5 -6.5v-98q21 2 79.5 6.5t124.5 1.5h13l-1 -26l-13 1q-69 2 -128 -2.5t-75 -6.5v-93q2 0 35.5 3.5t84 6t104.5 0.5l13 -1l-1 -26l-13 1q-53 2 -102.5 -0.5t-82.5 -5.5t-35 -4h-3v-128h-26v369q-50 -4 -54 -5l-11 -1
q-34 -60 -75 -114l-8 -10l-20 16l8 10q28 36 54.5 79.5t43.5 75.5t18 34l5 11l23 -11l-6 -12q-2 -6 -27 -52q20 2 75 6.5t120.5 7t118.5 -1.5z" />
    <glyph glyph-name="uni4E4E" unicode="&#x4e4e;" 
d="M56 171l-13 -1l-1 26l13 1q3 0 63 2t156 3q-3 61 -8.5 107.5t-8.5 62.5q-85 -8 -173 -12h-13l-1 25l13 1q87 3 171 11.5t140 15.5t59 8l13 2l4 -26l-13 -2v0q-5 0 -53 -6.5t-122 -14.5q4 -18 9.5 -64.5t8.5 -107.5q92 1 194 -2h13l-1 -26l-13 1q-101 2 -192 1
q1 -35 -1 -71q-7 -110 -51 -125q-7 -2 -14 -2q-32 0 -71 47l-8 10l20 16l8 -10q36 -42 57 -36q13 5 20 25t10 42t3 34q2 35 1 70q-96 -1 -156 -3t-63 -2zM171 237q-18 16 -33 33t-24 29t-10 13l-7 11l21 14l7 -10q0 -1 8.5 -12.5t23 -27.5t31.5 -30l9 -9l-16 -19zM435 331
l7 10l21 -15l-7 -10q-2 -3 -23 -27.5t-56 -54.5l-10 -8l-16 20l10 8q33 28 53 51.5t21 25.5z" />
    <glyph glyph-name="uni4E4F" unicode="&#x4e4f;" 
d="M285 283l-11 5q-12 5 -24 12t-21 12t-10 6l-10 7l14 22l11 -7q0 -1 8 -6t19.5 -11.5t21.5 -10.5l12 -5zM491 -16h-13q-100 0 -190 12.5t-149 28.5q-52 -32 -56 -35v0l-11 -7l-14 21l11 7q3 3 64 40v2l2 -1q56 35 137 80q50 28 75.5 47t33.5 30.5t5 17.5l-1 1.5t-4 3.5
t-8.5 4.5t-15.5 4.5t-24.5 3t-35 1.5t-47.5 -1.5q-53 -3 -93 -7.5t-43 -5.5l-13 -2l-3 25l12 2q3 1 43.5 6t94.5 8q55 4 103 -2t60 -33q21 -47 -127 -126q-64 -35 -114 -65q59 -14 139.5 -24t168.5 -10h13v-26zM67 384h12q163 3 254 17.5t93 17.5l12 3l7 -25l-13 -3
q-5 -3 -96 -17.5t-257 -17.5h-12v25z" />
    <glyph glyph-name="uni4E50" unicode="&#x4e50;" 
d="M97 390l12 1q138 5 227.5 18t93.5 15l12 3l6 -25l-13 -3q-4 -2 -95 -15.5t-230 -18.5h-13v25zM89 192l-14 15l27 112l25 -6l-23 -95q54 4 170 10q-3 38 -5.5 62.5t-2.5 26.5l-2 12l26 3l1 -12q1 -3 3.5 -28t4.5 -63q98 3 172 1l13 -1l-1 -25h-13q-73 3 -169 -1
q4 -63 1 -126q-5 -89 -42 -100q-5 -2 -11 -2q-27 0 -58 38l-8 10l20 16l8 -10q26 -32 41 -28q18 2 24 77q3 61 -1 124q-75 -3 -129 -6.5t-57 -3.5zM40 28l10 8q30 22 53.5 46t38 41t14.5 18l8 11l20 -16l-7 -10q-2 -2 -16.5 -20t-39 -42.5t-55.5 -48.5l-11 -8zM499 39l10 -8
l-16 -20l-10 8q-27 21 -53 45.5t-43.5 42l-19.5 19.5l-9 9l18 18l9 -9q1 -2 18.5 -19t43 -41t52.5 -45z" />
    <glyph glyph-name="uni4E52" unicode="&#x4e52;" 
d="M413 428l12 2l5 -25l-12 -2q-5 -2 -90 -15.5t-203 -21.5l-13 -1l-1 26l13 1q117 7 200.5 20.5t88.5 15.5zM159 259v-110q75 2 183 2v112q-141 -1 -183 -4zM47 119l-1 26l13 1q3 0 75 2v184h25v-47q29 1 113.5 3t195.5 -1h13l-1 -26l-12 1q-53 1 -100 1v-112q59 0 123 -2
h13l-1 -26l-13 1q-172 3 -297.5 0t-132.5 -4zM232 77l-10 -9q-2 -1 -22 -16.5t-50.5 -36.5t-65.5 -39l-11 -5l-12 22l11 6q34 18 64 38t49 35t20 16l10 8z" />
    <glyph glyph-name="uni4E53" unicode="&#x4e53;" 
d="M418 404q-5 -2 -90 -15.5t-203 -21.5l-13 -1l-1 26h13q117 8 200.5 21.5t88.5 15.5l12 2l5 -25zM456 -24q-59 29 -94 59.5t-38 34.5l-8 10l19 17l8 -10q1 -1 16.5 -15.5t43 -34.5t64.5 -38l12 -5l-11 -23zM155 260v-114q78 2 191 2v116q-154 -1 -191 -4zM46 142l13 1v0
q5 0 71 2v188h25v-47q25 1 111.5 3t201.5 -1h13l-1 -26l-12 1q-51 1 -97 1v-116q58 0 120 -2h13l-1 -26l-13 1q-172 4 -297.5 0.5t-132.5 -4.5h-13z" />
    <glyph glyph-name="uni4E54" unicode="&#x4e54;" 
d="M495 160l12 -5l-10 -24l-12 5q-52 23 -94 52.5t-68 52t-29 25.5l-2 3q-37 0 -70 -1q-48 -65 -144 -141l-10 -8l-16 21l10 8q81 63 127 119q-125 -3 -132 -4h-13l-1 25l13 1q8 1 153 4q43 61 54 88q-65 -6 -140 -10h-13l-1 26h13q113 6 195 16t87 11l12 2l4 -25l-12 -2
q-2 0 -33 -4.5t-83 -10.5q-4 -18 -50 -90q103 1 231 -2h13l-1 -26l-12 1q-75 2 -143 2q23 -21 67 -53t98 -56zM154 -19l-6 -11l-22 14l6 10q22 37 34 75t16.5 64.5t4.5 28.5l2 12l25 -2l-1 -13q0 -3 -5 -31t-18 -68t-36 -79zM362 173v-198h-26v198h26z" />
    <glyph glyph-name="uni4E56" unicode="&#x4e56;" 
d="M61 69l-13 -2l-5 25l13 3l16.5 3.5t41.5 11t51 18.5v46q-43 0 -97 -2l-13 -1l-1 26h13q55 3 98 3v53h26v-210h-26v57q-39 -15 -70 -22.5t-34 -8.5zM385 144v-23q-1 -17 6 -32t28 -18q40 -3 52 10q8 10 2 32l-3 13l24 6l4 -12q9 -35 -8 -55q-16 -20 -56 -20q-8 0 -18 1
q-7 0 -20.5 5.5t-25 21.5t-11.5 49q1 17 1.5 43t1.5 47t1 26v0l1 13l25 -1v-13v0q-1 -5 -1.5 -23.5t-1.5 -41.5q24 8 44.5 17.5t34 16.5l13.5 7l11 6l13 -22l-11 -6q-2 -1 -17.5 -9t-38.5 -18.5t-50 -19.5zM504 314l-1 -26h-12q-108 3 -202 2v-318h-25v318q-88 -1 -142 -3
t-58 -2v0l-13 -1l-1 26h13v0q4 1 58.5 2.5t142.5 3.5v67q-60 -4 -131 -6h-12l-1 26h13q122 3 203 11.5t85 9.5l13 2l3 -25l-12 -2q-2 0 -38 -4.5t-98 -9.5v-69q94 1 202 -2h13z" />
    <glyph glyph-name="uni4E58" unicode="&#x4e58;" 
d="M498 20l12 -5l-11 -23l-11 5q-71 33 -117.5 64t-50.5 34l-10 8l16 20l10 -7q2 -3 47.5 -33t114.5 -63zM286 340q95 1 206 -1l13 -1l-1 -25h-13q-110 3 -205 2v-348h-25v182q-19 -25 -63 -63.5t-131 -92.5l-11 -6l-13 22l11 6q100 62 142.5 103t57.5 65l7 8v124
q-87 -2 -140.5 -3.5t-55.5 -1.5l-13 -1l-1 25l13 1q2 0 55.5 2t141.5 3v45q-61 -4 -127 -5h-13v26h13q70 0 132.5 5.5t102.5 10.5t42 5l12 2l4 -25l-13 -2q-1 -1 -36 -5.5t-92 -9.5v-47zM58 131l-13 -3l-5 25l13 3l16.5 4t41.5 11.5t51 17.5v36q-17 2 -39 1t-39 -2.5
t-18 -1.5l-13 -1l-3 25l13 1q2 1 19 2.5t39 2t41 -0.5v37h26v-162h-26v36q-39 -15 -70 -23t-34 -8zM386 289v-13v0q-1 -2 -1.5 -14t-1.5 -29q35 13 59.5 24.5t25.5 12.5l11 7l13 -23l-12 -6q-2 -2 -30 -15.5t-68 -26.5v-10q-1 -16 6 -30.5t28 -16.5q40 -4 52 9q8 9 2 30
l-3 13l24 6l4 -12q9 -34 -7 -53q-17 -20 -57 -20q-8 0 -18 1q-7 0 -20.5 5.5t-25 21t-11.5 47.5q1 17 1.5 35.5t1.5 31.5t1 14l1 13z" />
    <glyph glyph-name="uni4E59" unicode="&#x4e59;" 
d="M475 110q1 -20 -3.5 -41t-21.5 -38q-19 -20 -62.5 -29t-125.5 -9q-32 0 -71 1q-91 4 -110 53q-8 17 1 45.5t51 68.5q56 48 118 94q77 56 113 96q7 8 5 10q-9 13 -80 15.5t-181 -10.5l-13 -2l-3 25l13 2q2 0 40 4t89 6q61 2 94 -2t46.5 -11t17.5 -15q3 -6 2.5 -16
t-10.5 -23q-38 -41 -118 -99q-61 -46 -116 -93q-56 -52 -45 -86q14 -33 87 -36q211 -8 240 29q18 17 17 61v12l26 1v-13z" />
    <glyph glyph-name="uni4E5D" unicode="&#x4e5d;" 
d="M498 63q0 -56 -20 -73q-16 -18 -62 -18h-7q-33 1 -49 18q-18 19 -16 61l1 9q1 30 3 92.5t2 113.5q0 14 -9 22q-29 22 -133 15q-16 -72 -44.5 -160.5t-70.5 -167.5l-6 -11l-22 12l6 12q35 66 61 141.5t41 136.5q4 19 8 36q-50 -4 -111 -10l-17 -1l-2 25l17 2q68 6 120 10
q9 41 13.5 66t4.5 26l2 12l25 -4l-2 -12q-1 -9 -17 -87q110 8 144 -22q17 -15 18 -40q0 -52 -2 -115t-4 -93v-9q-2 -31 9 -42q9 -10 31 -10q39 -1 50 11q13 10 13 54v13h25v-13z" />
    <glyph glyph-name="uni4E5E" unicode="&#x4e5e;" 
d="M486 339l-13 1q-55 5 -129.5 3t-132 -5.5t-61.5 -4.5h-4q-23 -36 -57 -70l-9 -9l-18 18l9 9q28 27 47.5 57t30 51t10.5 22l5 12l23 -10l-5 -12q-1 -4 -20 -41q44 3 141.5 7.5t171.5 -1.5l13 -1zM472 69q1 -13 -2.5 -27.5t-14.5 -26.5q-16 -17 -55 -24.5t-116 -7.5
q-28 0 -63 1q-85 3 -99 44q-5 12 3.5 32.5t44.5 47.5q50 34 104 67q68 39 99 66q2 1 2 2q-15 8 -76 9t-151 -8l-12 -1l-3 25l13 2q2 0 36 2.5t80 4.5q54 1 83 -2t41 -9t14 -13q3 -4 2 -12t-11 -18q-33 -30 -104 -70q-54 -32 -102 -66q-43 -32 -39 -52q3 -20 76 -25
q194 -7 215 23q11 10 10 36l-1 12l26 1v-13z" />
    <glyph glyph-name="uni4E5F" unicode="&#x4e5f;" 
d="M152 372l-1 -13v-62q55 12 121 21v107h26v-104q99 12 148 -13q17 -12 20 -31q7 -49 -5 -103t-44 -72q-7 -3 -15 -3q-10 0 -23 7t-27 25l-8 11l20 15l8 -10q7 -10 16.5 -17t18.5 -4q19 10 29 55t5 93q-1 2 -2.5 5.5t-7.5 7.5q-39 20 -133 8v-211h-26v208q-64 -9 -122 -22
q-1 -64 -1 -98.5v-103.5q0 -40 32 -57q33 -18 105 -18q52 -1 101 4.5t70 24.5q10 11 9 28l-1 13l25 2l1 -13q2 -28 -16 -47q-31 -39 -189 -38q-79 0 -117 21q-45 26 -45 80v101t1 96q-30 -7 -50 -12l-12 -4l-7 25l12 3q13 4 57 14q0 21 1 48v20v13h26z" />
    <glyph glyph-name="uni4E60" unicode="&#x4e60;" 
d="M464 349q12 -107 2 -211q-14 -123 -57 -144q-9 -4 -18 -4q-24 0 -52 30l-9 9l19 18l9 -10q9 -10 19.5 -16.5t20.5 -2.5q32 20 42 121t-2 206q-5 30 -101 34q-101 2 -215 -10l-36 -2l-2 25l36 3q84 7 160.5 10t127 -8.5t56.5 -47.5zM285 213l-12 5q-54 26 -91 53.5
t-40 30.5l-9 9l16 19l10 -8q1 -1 18 -14.5t45 -32t62 -34.5l12 -5zM74 89l12 2q6 0 90 27t193 85l11 7l13 -23l-11 -6q-112 -60 -198 -87.5t-92 -27.5l-12 -2z" />
    <glyph glyph-name="uni4E61" unicode="&#x4e61;" 
d="M73 -7l12 5q129 61 212 118q-44 -6 -74 -6q-46 1 -62.5 10.5t-19.5 21.5q-6 25 20.5 54t68.5 57q-25 -2 -44 -2q-37 0 -50.5 7.5t-16.5 17.5q-3 8 1 20t23.5 31t62.5 47q35 23 62.5 38t29.5 16l11 6l12 -22l-11 -6q-2 -1 -28.5 -16t-60.5 -37q-15 -10 -26 -18
t-19.5 -14.5t-14 -12t-9 -9.5t-5.5 -7t-2.5 -4.5t-0.5 -2.5v-1l0.5 -0.5t2 -1.5t4 -2t7.5 -2t11.5 -1.5t16 -0.5t21.5 1t27.5 2.5t34.5 4.5l13 1q33 18 63 32l11 5l11 -23l-12 -6q-78 -36 -137 -80q-33 -27 -44 -42.5t-8 -20.5q0 -1 2 -3t7.5 -4.5t17 -4.5t30.5 -2t47 2.5
t68 9.5l6 1q105 84 106 90l8 10l19 -17l-8 -10q-3 -8 -95 -83t-279 -164l-11 -5z" />
    <glyph glyph-name="uni4E66" unicode="&#x4e66;" 
d="M462 343q-13 10 -26.5 22.5t-23.5 22t-11 10.5l-8 10l18 17l9 -9l10 -10t22 -21t25 -22l10 -7l-15 -21zM262 207q72 4 123 1l2 7q1 1 5 26t3 60l-0.5 1.5t-2.5 3.5q-14 11 -49.5 14t-80.5 1v-114zM432 52q35 22 32 104v1t-1 3t-3 4q-18 15 -72 18t-126 0v-212h-26v211
q-62 -4 -121 -8h-4q-20 -2 -41 -3l-12 -1l-2 25l13 1q22 2 44 3q67 5 123 8v114q-66 -4 -119 -12l-12 -2l-4 25l12 2q10 2 44 6t79 7v83h26v-82q46 2 86.5 -2.5t59.5 -18.5q7 -6 10 -12.5t3 -11.5q1 -38 -3.5 -64.5t-5.5 -29.5l-1 -3q48 -5 67 -22q11 -11 11 -26
q4 -99 -46 -127q-9 -6 -24 -6q-24 -2 -62 28l-10 8l16 20l10 -9q13 -11 29 -18t30 -1z" />
    <glyph glyph-name="uni4E70" unicode="&#x4e70;" 
d="M500 128l-13 1q-119 3 -231 1q-39 -83 -140 -151l-11 -7l-13 22l11 7q85 56 123 129q-71 -1 -115.5 -3t-46.5 -2h-13l-1 25l13 1q2 0 51 1.5t126 3.5q29 67 35.5 116t5.5 52v13h26v-13q0 -2 -3.5 -38.5t-20.5 -90.5q-6 -18 -15 -39q108 2 220 -2h12v-26zM312 111l10 -7
q1 -1 22 -16.5t54 -37.5t70 -42l11 -6l-12 -22l-11 6q-38 20 -71 42t-54.5 38t-23.5 17l-10 8zM235 269l-10 8q-16 12 -33 22.5t-29 16.5l-12 6l-12 6l11 23l12 -6q1 0 13.5 -6.5t30.5 -17.5t35 -24l10 -8zM98 277l11 -7q1 0 15 -8.5t34 -21t40 -26.5l11 -8l-15 -21l-11 8
q-19 14 -39 26.5t-33.5 20.5t-14.5 8l-11 6zM411 305l8 10q4 4 10 13.5t10 20t3 19.5q0 3 -2 6t-7 6q-6 5 -46.5 9t-141.5 0q-62 -3 -107.5 -7t-48.5 -4l-12 -1l-3 25l13 1q20 3 95 8.5t153.5 5.5t110.5 -15q18 -10 21 -29q3 -17 -3.5 -33t-14.5 -27.5t-10 -13.5l-8 -10z
" />
    <glyph glyph-name="uni4E71" unicode="&#x4e71;" 
d="M366 422v-12q0 -5 -1.5 -68t-3 -146t-1.5 -139q0 -32 12 -42.5t34 -11.5q50 -3 64 11q11 11 9 47l-1 13l26 1v-13q2 -17 -1 -35t-15 -31q-19 -19 -65 -19q-9 0 -19 1q-70 3 -70 79q0 57 1.5 140t3 146t1.5 67v13zM57 286q3 1 29.5 3t64.5 4v83q-34 -5 -76 -9l-12 -1
l-3 26l13 1q83 8 132.5 19t50.5 12l13 4l7 -25l-12 -4q-6 -3 -87 -19v-86q62 3 110 1l13 -1l-2 -26l-12 1q-48 3 -109 0v-85q60 0 81 -18q11 -10 11 -25q3 -55 -7 -148l-1 -13l-25 3l1 12q9 92 7 145v1t-0.5 2.5t-2.5 3.5q-3 3 -18 7t-52.5 4t-105.5 -10l-12 -2l-4 25l12 2
q51 8 90 10v84q-38 -2 -64 -4t-28 -2l-13 -1l-2 25zM69 109h25v-87q16 2 42.5 3t51.5 -1l13 -2l-3 -25l-13 1q-24 2 -50.5 1t-40.5 -3v-13h-25v126z" />
    <glyph glyph-name="uni4E73" unicode="&#x4e73;" 
d="M287 403l-12 -4q-5 -2 -61.5 -13.5t-143.5 -18.5l-13 -1l-2 26l13 1q85 6 141 18t59 13l12 3zM78 352l6 -11q0 -1 4 -8.5t10 -18t12 -20.5l7 -10l-21 -14l-7 10q-7 10 -13 21t-10 19t-5 9l-6 12zM166 365l3 -13l2 -7.5t5.5 -19t9.5 -23.5l5 -12l-24 -10l-5 12
q-8 21 -12.5 37t-5.5 18l-3 12zM252 279l-6 -11l-23 12l7 11q8 15 14.5 30t10.5 25.5l4 10.5l5 13l24 -9l-5 -12q0 -1 -4 -12t-11 -26.5t-16 -31.5zM50 80l-3 26l13 1q1 0 28.5 4t70.5 12q-4 24 -7.5 39t-3.5 16l-3 12l25 6l2 -8q29 12 49 26q7 4 9.5 7t3.5 4q-1 1 -4.5 2.5
t-10.5 3.5q-30 4 -59 2.5t-48.5 -4.5t-20.5 -4l-12 -3l-6 25l13 3q2 1 22.5 4.5t51 5t63.5 -3.5q19 -4 27 -11t9 -14q2 -7 -2.5 -17t-21.5 -22q-22 -15 -57 -29q3 -14 6 -34q44 10 91 25l12 4l8 -24l-12 -4q-50 -16 -96 -27q3 -28 3 -56q0 -65 -28 -75q-5 -2 -10 -2
q-22 0 -51 30l-9 9l19 18l9 -9q14 -15 22.5 -19.5t10.5 -2.5l1 0.5t2 2.5t2.5 5.5t3 9t2 13.5t1.5 20q0 26 -3 51q-42 -9 -69.5 -12.5t-30.5 -3.5zM476 64v13l25 2l1 -13q1 -17 -1.5 -35t-15.5 -31q-17 -19 -64 -19q-8 0 -18 1q-70 3 -70 78q0 55 1.5 134t3 141.5t1.5 73.5
v1v13l26 -1v-12q-1 -5 -2 -67t-2.5 -144.5t-1.5 -138.5q0 -31 12 -41.5t33 -11.5q50 -3 63 11q12 11 9 46z" />
    <glyph glyph-name="uni4E7E" unicode="&#x4e7e;" 
d="M497 361l13 -1l-3 -25l-13 1q-31 2 -72.5 1t-76 -3t-42.5 -3q-12 -35 -34 -71l-7 -11l-22 13l7 11q19 31 30 61.5t16 51.5t5 22l3 12l25 -4l-2 -13q-1 -1 -3.5 -13.5t-8.5 -31.5q29 2 85 4.5t100 -1.5zM508 56q1 -16 -2.5 -31.5t-15.5 -28.5q-22 -25 -112 -25
q-19 0 -42 1q-54 3 -69 36q-5 11 -1.5 32.5t31.5 52.5q34 33 70 65q45 38 66 65q3 3 3 4q-1 1 -7.5 3t-22 3.5t-43.5 0.5q-27 -2 -47 -4.5t-21 -2.5l-12 -2l-4 25l12 2q2 1 23 3.5t49 3.5q36 2 55.5 -0.5t28 -8t11.5 -10.5q3 -4 3.5 -12.5t-7.5 -19.5q-22 -29 -70 -69
q-36 -31 -68 -64q-33 -35 -25 -57q8 -18 46 -20q117 -5 135 17q12 10 11 40v13l25 1v-13zM42 46l-3 25l13 1q2 1 24.5 3t56.5 3v58q-29 -1 -46 -2v-11h-25v135h25v-25q14 1 35 1.5t40 -0.5l13 -1l-2 -25l-13 1q-18 1 -39 0t-34 -2v-48q16 1 41.5 2t45.5 0l13 -1l-2 -26
l-13 1q-6 0 -13 1v-57q32 1 67 0l12 -1l-1 -25h-12q-34 2 -66 1v-88h-26v87q-34 -2 -55.5 -4t-22.5 -2zM231 360q-37 1 -72 0v-49q73 3 79 -38v-1q0 -9 -1 -33.5t-3 -53t-5 -47.5l-3 -12l-25 5l3 12q3 17 5 43t2.5 50.5t0.5 34.5q-4 14 -46 14t-106 -6l-12 -2l-3 26l13 1
q42 4 75 6v49q-31 -2 -50.5 -3.5t-21.5 -1.5v0l-13 -2l-2 26l12 1q3 0 23 2t52 4v51h26v-50q35 1 73 0l13 -1l-1 -26z" />
    <glyph glyph-name="uni4E86" unicode="&#x4e86;" 
d="M435 367q3 -10 -4 -26t-34 -35q-37 -26 -103 -55q16 -48 17 -140q-2 -106 -44 -122q-8 -2 -16 -2q-32 0 -71 42l-9 10l19 17l8 -9q38 -40 60 -34q4 1 10 9t11 29t6 60q-1 80 -13.5 125t-14.5 46l-5 12l23 10l5 -11q1 -2 7 -17q61 27 96 51q31 24 27 35q-1 10 -34 18
q-53 9 -109.5 6t-96 -9.5t-41.5 -7.5l-13 -2l-5 25l13 2q4 2 45 8.5t98.5 9.5t113.5 -7q30 -6 41.5 -17.5t12.5 -20.5z" />
    <glyph glyph-name="uni4E88" unicode="&#x4e88;" 
d="M420 155q14 8 27 21t14 24q0 1 -0.5 2.5t-2 4t-5.5 5.5q-14 13 -164 12q13 -29 16 -136q-1 -93 -38 -107q-7 -2 -14 -2q-30 0 -71 43l-9 9l18 18l9 -9q18 -19 30 -26.5t18.5 -8.5t9.5 0t8 7.5t9 24.5t4 51q0 60 -6.5 94t-9.5 41q-76 -2 -185 -11l-13 -1l-2 25l13 1
q25 3 87 7t133 6l-3 1q-39 34 -69.5 56.5t-32.5 24.5l-11 7l15 21l11 -7q1 -1 21 -16t50 -39l9 4q52 23 80 44q25 20 22 29q0 4 -6.5 7.5t-19.5 5.5q-47 5 -94.5 2.5t-80.5 -7t-35 -4.5l-12 -3l-5 26l13 2q4 1 37.5 5.5t82 6.5t97.5 -3q26 -4 36.5 -13.5t11.5 -17.5
q3 -9 -2 -23.5t-30 -33.5q-30 -22 -82 -45q6 -5 11 -9l10 -8l-11 -13q56 1 99 -3t59 -14q12 -9 16 -18t4 -16q-2 -17 -13.5 -31t-24 -23.5t-15.5 -11.5l-11 -7l-14 22z" />
    <glyph glyph-name="uni4E89" unicode="&#x4e89;" 
d="M268 269q0 -3 6 -55q70 2 139 1q1 22 1 32q0 7 -6 12q-15 12 -53.5 15t-87.5 1zM105 286q130 16 212 15l-4 4l8 10q23 25 18 36q-22 27 -175 4q-24 -34 -64 -69h5zM50 202l13 1q3 0 55.5 3.5t130.5 6.5q-6 49 -7 52l-1 8q-78 -5 -134 -12l-12 -2l-2 20l-16 -12l-10 -7
l-15 21l10 7q56 43 85 88v2l2 1q13 19 20.5 32t7.5 14l5 11l23 -11l-5 -12q-1 -3 -17 -29q26 4 64 6q97 6 114 -27q9 -18 0 -35.5t-18 -26.5q59 -3 82 -23q14 -13 14 -31q0 -10 -1 -33q25 0 48 -2l13 -1l-2 -25h-13q-22 2 -47 3q-2 -54 -9 -95l-3 -13l-25 5l2 13q7 39 10 91
q-67 1 -135 -2q2 -29 3 -65q46 2 77 0l13 -1l-2 -26l-13 1q-30 2 -74 1q0 -9 -1 -18q-1 -96 -38 -109q-7 -3 -15 -3q-30 0 -72 44l-9 9l18 18l9 -9q18 -19 30.5 -27t19.5 -9t9 0q4 1 9 8t9 25.5t5 52.5v17q-56 -2 -100 -5t-48 -4h-1l-12 -1l-2 26l12 1q6 0 50.5 3t100.5 6
q-2 35 -4 65q-78 -3 -130.5 -6.5t-55.5 -4.5l-13 -1z" />
    <glyph glyph-name="uni4E8B" unicode="&#x4e8b;" 
d="M291 188q1 -21 1 -43q70 2 136 1q1 10 1 17q0 1 -1 2.5t-3 3.5q-32 21 -134 19zM51 108l-13 -1l-2 26l13 1q4 0 66 3.5t151 6.5v43q-98 -4 -180 -13l-13 -1l-2 25l12 1q113 12 182 14v26q-43 -1 -82 -1.5t-57 -1.5v-9h-26v52h26v-17q18 0 56.5 1t81.5 1q-1 26 -3 48
q-60 0 -158 -8l-12 -1l-3 25l13 1q91 8 159 9q-1 18 -2 32q-83 -3 -140.5 -6.5t-61.5 -4.5l-12 -1l-2 26l12 1q4 0 61.5 3.5t140.5 6.5q-2 19 -2 20l-1 13l25 2l2 -13l1 -21q113 4 208 -2l12 -1l-1 -26l-13 1q-93 6 -204 3q1 -15 3 -33q30 0 54 -2q100 -6 102 -42v-1v0
q2 -17 -4 -51l-2 -12l-25 4l2 13q5 29 3 44l-1 1.5t-3.5 3t-8.5 4t-15 4.5t-23 4t-33 3t-45 1q1 -22 2 -47h64h13l-1 -26h-13q-23 1 -62 0q1 -12 1 -26q77 1 110 -7t41 -18q12 -11 12 -25v-18q25 -1 47 -3h13l-2 -26l-13 1q-21 2 -46 2q-2 -40 -6 -79l-2 -13l-25 4l1 12
q5 37 6 77q-65 1 -135 -1q0 -21 -1 -43q50 1 81 -1l13 -1l-2 -25l-12 1q-31 2 -80 0q-5 -72 -37 -83q-6 -2 -12 -2q-11 0 -26.5 8t-34.5 30l-9 10l20 16l8 -9q33 -36 45 -29q2 0 6 4.5t8 17t6 37.5q-42 -2 -81 -4t-64.5 -3.5t-27.5 -1.5l-13 -1l-1 25l12 1q7 1 59.5 4
t116.5 5v43q-88 -2 -150 -6t-65 -4z" />
    <glyph glyph-name="uni4E8C" unicode="&#x4e8c;" 
d="M453 342q-139 4 -242.5 -0.5t-110.5 -5.5l-13 -1l-1 25l12 1q7 1 111.5 6t244.5 1l12 -1l-1 -25h-12zM51 51h13q7 1 128 6t293 2l13 -1l-1 -25h-13q-171 4 -291.5 -1t-126.5 -6l-13 -1z" />
    <glyph glyph-name="uni4E8E" unicode="&#x4e8e;" 
d="M56 218l-12 -1l-2 26h13q3 1 65 4t156 5q-8 118 -11 122l-1 6q-68 -2 -111.5 -4t-45.5 -3h-12l-2 25l13 1q2 0 52 3t128 4.5t163 -1.5h13l-1 -26l-12 1q-83 2 -159 1v-3q3 -5 12 -126q95 2 193 -1l12 -1v-25h-13q-97 3 -191 2q2 -59 -1 -134q-3 -96 -40 -109
q-7 -2 -14 -2q-19 0 -38 14t-34 30l-9 9l19 18l9 -9q17 -18 29 -26t18.5 -9.5t10.5 -0.5q3 1 8 8t9.5 25t6.5 53q2 75 0 132q-94 -2 -155.5 -5t-65.5 -3z" />
    <glyph glyph-name="uni4E8F" unicode="&#x4e8f;" 
d="M105 406q2 0 52.5 2.5t128 4.5t163.5 -1l13 -1l-1 -25h-13q-85 3 -162 1.5t-127 -4.5t-52 -3l-13 -1l-2 26zM57 265l-13 -1l-2 25l13 1q4 1 74.5 5t171 6t194.5 -3l13 -1l-2 -26l-12 1q-161 7 -307 0q-4 -9 -9 -24.5t-6.5 -31.5t4.5 -27q9 -11 33 -9h2q94 11 146.5 10.5
t73.5 -22.5q22 -21 16 -68q-12 -95 -74 -113q-10 -3 -20 -3q-48 1 -84 48l-8 10l21 15l8 -10q34 -44 76 -35q46 13 56 91q2 23 -1.5 33.5t-7.5 13.5q-16 16 -66 15t-133 -10h-2q-40 -4 -56 20q-14 21 -9.5 49t12.5 46q-46 -2 -73.5 -3.5t-28.5 -1.5z" />
    <glyph glyph-name="uni4E91" unicode="&#x4e91;" 
d="M102 391q2 0 52.5 3t128 4.5t163.5 -1.5h13l-1 -26l-13 1q-85 2 -162 0.5t-127 -4t-52 -2.5l-13 -1l-2 25zM507 253v-25h-13q-103 4 -202 2t-165.5 -5.5t-70.5 -3.5l-12 -1l-2 26h13q3 1 70 4t166.5 5t203.5 -1zM233 179q-48 -42 -70.5 -68t-27.5 -39t-2 -18q1 -2 7 -6
t21 -7t43 -2q68 0 202 25q-22 28 -36 45.5t-16 19.5v0l-8 10l20 16l8 -11q2 -1 28 -34t65 -79l8 -10l-20 -16l-8 10l-22 26h-5q-145 -28 -220 -28q-77 0 -90 30q-26 42 106 155l10 9l17 -20z" />
    <glyph glyph-name="uni4E92" unicode="&#x4e92;" 
d="M370 156l22 2q11 56 5 85q-2 9 -12 17t-39 10q-46 5 -199 -14q-11 -44 -18 -79q-1 -7 0 -11t3 -5q20 -18 86.5 -16t151.5 11zM53 -4l-2 25l13 1q6 1 52 3.5t112 5.5t132 4l1 3q11 34 26 94l-14 -2q-97 -11 -162 -11q-71 0 -98 24q-5 5 -8.5 15t-0.5 24q9 45 23.5 99.5
t22.5 79.5q-62 -4 -67 -4l-12 -1l-2 26l13 1q9 0 81 4t159 7t142 0l13 -1l-2 -25h-12q-52 3 -133.5 0.5t-152.5 -6.5q-1 -2 -7.5 -24.5t-15.5 -54.5q141 18 199 12.5t68 -44.5q11 -37 -11 -133q-7 -29 -13.5 -51t-9.5 -31q59 1 98 -1l13 -1l-1 -26l-13 1q-43 2 -111 0.5
t-138 -4.5t-118.5 -5.5t-51.5 -2.5z" />
    <glyph glyph-name="uni4E94" unicode="&#x4e94;" 
d="M219 231l-28 -209q97 4 196 5q10 33 21 91t3 91q-5 19 -48 24t-144 -2zM56 16q4 0 33.5 1.5t75.5 3.5l28 209q-49 -3 -112 -8l-13 -1l-2 25l13 1q66 5 117 9l16 114q-60 -3 -100 -5.5t-42 -2.5l-13 -1l-1 26l12 1q10 0 85.5 4.5t167.5 7.5t150 0l13 -1l-2 -26l-13 1
q-40 2 -103 1t-129 -4l-15 -114q114 8 160 -1t53 -39q7 -25 3.5 -63t-11.5 -73.5t-13 -53.5q47 0 80 -2l13 -1l-2 -25l-13 1q-44 2 -115 1t-144 -3.5t-123 -5t-53 -2.5h-13l-1 25z" />
    <glyph glyph-name="uni4E95" unicode="&#x4e95;" 
d="M205 294q-5 -54 -16 -120q83 3 178 3v121q-86 -1 -162 -4zM60 142l-12 -1l-2 25l13 1v0q3 0 31 1.5t73 3.5q11 67 17 122q-47 -2 -76 -3t-30 -1l-13 -1l-1 26h13v0q3 1 32.5 2t76.5 2q5 96 5 97v13h25v-12q0 -2 -4 -97q75 2 159 3v109h26v-109q42 1 80 0h12v-26h-13
q-37 1 -79 1v-121q53 0 99 -3h12l-1 -26l-13 1q-45 3 -97 3v-184h-26v184q-98 -1 -183 -4q-15 -83 -44 -167l-4 -12l-24 8l4 12q27 80 42 158q-44 -2 -70 -3.5t-28 -1.5z" />
    <glyph glyph-name="uni4E9A" unicode="&#x4e9a;" 
d="M223 370v-341q52 1 107 1v343q-56 -1 -107 -3zM54 -2h-13l-1 25l13 1v0q3 0 43 1.5t101 2.5v342q-54 -3 -87.5 -5t-35.5 -2l-13 -1l-1 26l12 1q5 0 70.5 3.5t157.5 5.5t175 -3l13 -1l-1 -25l-13 1q-56 3 -118 3v-342q78 0 140 -3l13 -1l-1 -26l-13 1q-81 4 -182 3
t-177.5 -3.5t-81.5 -3.5zM142 107l-5 12q-16 36 -30.5 72t-23 60.5t-9.5 25.5l-4 12l24 8l4 -12q1 -1 9.5 -25t22.5 -59.5t30 -71.5l5 -11zM468 286l5 12l24 -10l-5 -12q-1 -5 -23.5 -53.5t-59.5 -107.5l-7 -11l-22 14l7 11q24 38 42.5 73.5t28.5 59t10 24.5z" />
    <glyph glyph-name="uni4E9B" unicode="&#x4e9b;" 
d="M101 95l13 1q2 1 47 3t115 3.5t147 -0.5l13 -1l-1 -25h-13q-76 3 -145.5 1.5t-114 -4t-46.5 -2.5l-13 -1zM63 -2q4 0 70 4t162 6t188 -3l13 -1l-2 -25h-12q-92 5 -187 3t-160.5 -5.5t-69.5 -4.5l-13 -1l-2 26zM276 217l12 4l8 -25l-12 -4q-52 -17 -102.5 -30t-84.5 -20
t-36 -7l-12 -3l-5 25l13 3q1 0 32 6v197h25v-191q29 7 64 16v226h25v-91h4q2 0 13.5 0.5t27 1t27.5 0.5l13 -1l-1 -25h-13q-12 1 -27 0.5t-26 -1t-12 -1.5h-6v-102q37 10 73 22zM319 406v13l26 -1l-1 -13q0 -1 -0.5 -16t-1 -38.5t-1.5 -48.5q50 18 85 35.5l37 18.5l12 6
l12 -22l-11 -6q-4 -3 -42.5 -22t-93.5 -37q-1 -17 -1 -30q0 -64 51 -69q58 -5 75 15q12 14 4 45l-3 12l24 7l4 -12q11 -44 -9 -69q-21 -25 -74 -25q-11 0 -24 1q-73 9 -73 96q0 24 1 59t2 64.5t2 36.5v0z" />
    <glyph glyph-name="uni4EA1" unicode="&#x4ea1;" 
d="M46 291l-2 25l13 1q5 1 83 5.5t178.5 7t173.5 -1.5l13 -1l-2 -26l-12 1q-71 4 -167.5 1.5t-174.5 -6.5q-1 -23 -3 -86.5t-2 -127.5q0 -78 70 -73q56 0 116 2.5t101 4.5t43 3h13l2 -25l-13 -1q-3 0 -44 -2.5t-101.5 -5t-116.5 -2.5q-95 0 -96 99q0 62 2 124.5t4 88.5
q-61 -4 -65 -4zM261 419l7 -11v0q2 -2 11.5 -16t23.5 -33l8 -11l-21 -15l-8 10q-14 21 -24 35t-11 15v0l-7 11z" />
    <glyph glyph-name="uni4EA2" unicode="&#x4ea2;" 
d="M62 332l-13 -1l-1 26h13q4 1 67 4t149 5l-5 7q-29 39 -32 42v0l-8 10l21 16l7 -10q2 -1 32 -43l8 -10l-16 -12q114 3 197 -2l13 -1l-2 -25l-13 1q-69 4 -165.5 2t-171 -5.5t-80.5 -3.5zM108 -28l-10 -9l-17 19l9 9q57 56 61 169l1 12h25v-13q-5 -124 -69 -187zM345 224
q-21 16 -72.5 15.5t-111.5 -6.5l-31 -2l-2 25l30 3q70 7 124 6.5t80 -22.5q17 -16 18 -40q-1 -81 -5 -128q-1 -14 -1 -23q-2 -31 9 -42q9 -10 31 -10q39 -1 50 10q13 11 13 55v12h25v-12q0 -56 -20 -73q-16 -18 -62 -18h-7q-33 1 -49 18q-18 19 -16 61q1 9 2 23v1
q4 46 4 125q0 14 -9 22z" />
    <glyph glyph-name="uni4EA4" unicode="&#x4ea4;" 
d="M84 176l-11 -8l-15 21l10 7q49 37 78 66.5t30 31.5l8 10l20 -17l-9 -9q-2 -4 -31.5 -34t-79.5 -68zM468 193q-34 17 -61.5 37t-44 35t-17.5 17l-9 9l18 18l9 -9q1 -1 16.5 -15.5t41.5 -33.5t58 -35l11 -6l-11 -23zM488 -6l12 -5l-10 -23l-12 5q-139 59 -215 117
q-71 -59 -185 -115l-12 -6l-11 23l12 6q106 52 174 108q-77 62 -80 70l-8 9l19 17l9 -9q0 -6 81 -71q43 37 66 60.5t23 24.5l9 10l19 -16l-8 -10q-4 -10 -87 -84q74 -55 204 -111zM489 369l13 -1l-3 -26l-13 2q-47 4 -117 4t-139.5 -3t-117 -5.5t-50.5 -2.5l-12 -1l-2 26
l13 1q8 0 67 3t140 6q-26 35 -28 37v0l-8 10l21 16l8 -10q1 -1 31 -43l7 -9q113 3 190 -4z" />
    <glyph glyph-name="uni4EA5" unicode="&#x4ea5;" 
d="M53 361h13q7 1 66.5 4.5t139.5 5.5q-29 40 -30 41l-8 10l20 16l8 -11q1 -1 32 -42l7 -10l-4 -3q110 3 186 -4l13 -1l-3 -26l-13 2q-92 7 -224 2l1 -1l-10 -8q-63 -51 -88 -79q-6 -6 -10 -11.5t-6.5 -9t-3.5 -6.5l-1.5 -4.5t-0.5 -2.5v-1l0.5 -0.5t2.5 -1.5l5 -2.5
t8.5 -2.5t13.5 -1.5t19.5 -0.5h26.5q32 2 56 5l15 2q82 64 84 68l10 9l17 -19l-9 -9q-3 -5 -92 -74q-78 -61 -209 -137l-12 -6l-12 22l11 6q102 59 172 110q-13 -1 -30 -2q-14 -1 -26 -1q-68 0 -75 26q-8 18 15.5 48t87.5 82q-62 -2 -103 -4.5t-45 -2.5h-1l-12 -1zM451 209
l-9 -8q-2 -2 -34 -29t-85 -68q15 -11 58 -40t95 -53l12 -5l-11 -23l-11 5q-41 18 -77.5 40.5t-59.5 39.5t-27 20q-80 -60 -176 -114l-11 -7l-13 23l12 6q79 45 149.5 96t114.5 88.5t46 39.5l10 8z" />
    <glyph glyph-name="uni4EA6" unicode="&#x4ea6;" 
d="M488 324q-54 5 -134 4l1 -5q1 -3 6 -38.5t9 -89t1 -110.5q-5 -96 -45 -108q-6 -2 -12 -2q-28 0 -62 41l-8 10l20 16l8 -10q29 -35 46 -31q3 1 8.5 7t11 24.5t8.5 54.5q2 55 -2 108t-8.5 87.5t-5.5 36.5l-2 9q-56 -1 -109 -3q3 -32 -11 -126.5t-75 -216.5l-6 -12l-22 12
l6 12q57 116 71 208t12 122q-56 -2 -92 -4t-38 -2l-13 -1l-2 25l13 1q8 1 71 4.5t147 5.5l-7 9q-30 42 -32 43l-7 10l20 15l8 -10v0q2 -2 32 -42l7 -11l-19 -14q123 4 208 -3l13 -1l-3 -26zM62 117l-7 -11l-21 15l8 11q18 26 32 52.5t21 44t8 18.5l4 12l24 -8l-4 -12
q-1 -5 -18 -42t-47 -80zM436 246q1 -1 12 -19.5t27 -43t32 -45.5l8 -10l-20 -15l-8 10q-16 21 -32.5 45.5t-28 43.5t-12.5 21l-7 11l22 13z" />
    <glyph glyph-name="uni4EA7" unicode="&#x4ea7;" 
d="M502 381l-3 -25l-13 1q-47 4 -117 4t-139.5 -2.5t-117 -5.5t-50.5 -3l-12 -1l-2 26l13 1q7 0 65 3t137 6q-21 28 -23 30v0l-8 10l21 16l8 -10v0q2 -3 31 -43l2 -2q116 3 195 -4zM479 220q-44 4 -107.5 3.5t-126.5 -3t-106 -5t-45 -2.5l-13 -1l-2 26h13q5 1 38 2.5t84 4.5
l-4 3q-12 13 -23.5 28.5t-18.5 27t-8 13.5l-6 11l22 13l6 -11q1 -1 7.5 -12t17 -25.5t21.5 -26.5l9 -9l-12 -12q42 2 88 3l4 4q14 15 25 31.5t17 28.5t6 13l5 11l23 -10l-5 -12q0 -2 -10.5 -22t-29.5 -43q79 1 133 -3l13 -1l-2 -26zM92 169l1 13l26 -2l-1 -12q0 -3 -2.5 -32
t-10 -72t-22.5 -88l-4 -12l-24 8l4 12q14 44 21 86t10 69.5t2 29.5z" />
    <glyph glyph-name="uni4EA8" unicode="&#x4ea8;" 
d="M50 371h12q8 1 65.5 4t137.5 6q-22 28 -23 30v0l-8 10l20 15l8 -10q1 -1 32 -42l2 -3q115 4 195 -3l12 -1l-2 -26l-13 2q-48 4 -117.5 3.5t-139 -3t-117 -5t-50.5 -2.5l-13 -1zM115 251h26v-23q33 2 102 4.5t114 1.5h13v-25h-13q-28 0 -71.5 -1t-84.5 -3t-60 -3v-11h-26
v60zM403 200l2 13q2 12 2.5 31.5t0.5 29.5q-8 20 -91.5 19t-196.5 -9l-13 -1l-2 25l13 1q165 12 231 9q31 -1 55.5 -9t28.5 -32v-1q1 -11 0 -32t-2 -35l-2 -12zM48 49l-2 25l13 1q7 0 65.5 3t137.5 6l-1 3v2l-5 12l24 9l1 -4q47 13 73 25q12 5 15 8q-5 3 -21 5
q-41 4 -85.5 2.5t-75.5 -4.5t-33 -3l-13 -2l-3 25l13 2q3 1 35 4t77 4.5t88 -3.5q6 0 16 -2t19 -7.5t11 -16.5q1 -10 -5 -17t-14.5 -12t-13.5 -7q-25 -11 -65 -22q114 3 191 -4l13 -1l-2 -25l-13 1q-77 6 -194 3q3 -16 2 -36q0 -47 -27 -59q-8 -5 -18 -5q-25 0 -57 25l-10 8
l15 20l10 -8q33 -24 49 -17q12 6 13 36q0 20 -3 35q-83 -2 -143.5 -5t-64.5 -4h-12z" />
    <glyph glyph-name="uni4EA9" unicode="&#x4ea9;" 
d="M48 351l13 1q8 1 70.5 4.5t146.5 5.5q-28 37 -30 40v1l-8 10l20 15l8 -10q1 -1 32 -42l7 -11l-4 -2q111 2 186 -4l13 -1l-3 -26l-13 1q-47 5 -117 4.5t-139.5 -3t-117 -5t-50.5 -2.5l-12 -1zM127 112h-3v-101q6 1 43.5 3t87.5 4v101q-51 -2 -88 -4t-40 -3zM99 192h25v-54
h2q4 0 41.5 2.5t87.5 4.5v104q-90 -5 -165 -13l-13 -2l-2 26l13 1q149 16 237.5 14.5t117.5 -28.5q15 -14 15 -35q1 -9 -1.5 -74.5t-14.5 -147.5l-2 -13l-25 4l2 13q8 54 11.5 103t3.5 81v34v1q1 9 -6 15q-16 14 -55 18.5t-90 3.5v-104q47 2 85 1l13 -1l-1 -25h-12
q-38 1 -85 -1v-101q53 1 97 0l13 -1l-1 -26l-13 1q-47 2 -104 0t-100 -4.5t-47 -2.5v0h-2v-12h-25v218z" />
    <glyph glyph-name="uni4EAB" unicode="&#x4eab;" 
d="M491 379l12 -1l-2 -26l-13 2q-48 4 -117.5 3.5t-139 -3t-117 -5t-50.5 -2.5l-13 -1l-1 26h12q8 1 65 4t135 6q-18 17 -19 17v0l-9 9l17 19l10 -9v0q2 -2 32 -30l5 -6q115 4 193 -3zM115 255h26v-22q33 1 102 3.5t115 2.5h12v-26h-13q-28 1 -71.5 -0.5t-84.5 -3t-60 -2.5
v-12h-26v60zM403 201l2 13q2 12 2.5 31.5t0.5 29.5q-8 20 -91.5 19t-196.5 -9l-13 -1l-2 25l13 1q165 12 231 9q31 -1 55.5 -9t28.5 -32v-1q1 -11 0 -32t-2 -34l-2 -13zM488 64q-78 7 -194 3q3 -17 3 -37q-1 -49 -28 -62q-8 -4 -18 -4q-25 0 -57 26l-10 8l15 20l10 -8
q32 -25 49 -19q12 7 13 39q0 20 -3 37q-83 -3 -143.5 -6t-64.5 -3l-12 -1l-2 25l13 1q7 1 65 4t138 5q-4 13 -5 14v0l-5 12l24 9l2 -4q49 12 76 23q9 4 13 7q-5 2 -19 3q-41 4 -85.5 3t-75.5 -4t-33 -4l-13 -1l-3 25l13 2q3 0 35 3t77 4.5t88 -2.5q15 -2 29 -7t17 -18
q1 -13 -10 -21.5t-23 -13.5q-28 -11 -77 -24q0 -2 1 -5q121 3 203 -3l12 -1l-2 -26z" />
    <glyph glyph-name="uni4EAC" unicode="&#x4eac;" 
d="M46 329l-2 25l13 1q7 1 66.5 4t140.5 6q-28 36 -30 39h-1l-7 10l20 16l8 -10q1 -1 36 -47l5 -7q116 3 197 -4l13 -1l-2 -26l-13 1q-50 5 -121.5 5t-141.5 -3t-118 -5.5t-51 -3.5h-12zM413 137l2 12q5 32 6 62.5t0 41.5q-8 22 -96.5 21t-207.5 -10l-13 -1l-2 26l13 1
q174 12 244 9q32 -1 57.5 -9.5t30.5 -33.5v-1q1 -11 -0.5 -43t-6.5 -67l-2 -12zM74 9l-11 -6l-12 23l12 6q42 21 67.5 40.5t26.5 21.5l10 8l17 -19l-10 -8q-2 -3 -28.5 -23.5t-71.5 -42.5zM354 83l14 21l11 -7q1 -1 16.5 -11t39.5 -23.5t50 -25.5l12 -6l-11 -23l-12 5
q-27 13 -51.5 27t-40.5 24t-17 11zM259 -6q13 2 16 66q-1 38 -5 60.5t-6 26.5q-40 -1 -74 -2.5t-51 -2.5v-12h-26v98h26v-60q33 2 103.5 4.5t117.5 2.5l13 -1v-25h-13q-28 0 -70 -1q8 -22 10 -88q0 -78 -32 -90q-6 -2 -13 -2q-26 0 -60 36l-9 10l18 17l9 -9q36 -34 46 -28z
" />
    <glyph glyph-name="uni4EAD" unicode="&#x4ead;" 
d="M478 357q-47 5 -114.5 4.5t-134.5 -3t-112 -5t-48 -3.5h-13l-2 25l13 1q7 1 63 4t133 5q-18 17 -18 18v0l-10 8l18 19l9 -8v0q3 -3 32 -30l5 -6q107 3 182 -3l13 -2l-3 -25zM54 105l2 12q5 24 5 37.5v14.5l-1 13l25 2l1 -13q1 -1 0.5 -16.5t-4.5 -41.5l-3 -13zM129 149
l-13 -1l-2 25l12 1q3 1 50.5 4.5t111.5 6.5q51 2 85 2t55 -2t32.5 -4.5t16 -5t6.5 -3.5q12 -11 12.5 -25t-3 -26t-5.5 -15l-5 -12l-23 11l5 12q4 9 5.5 19.5t-2.5 15.5q-1 0 -5 2t-14.5 3.5t-30.5 2.5t-51 1t-77 -2q-63 -3 -110 -6.5t-50 -3.5zM120 263h26v-23q33 2 102 4.5
t114 1.5h13v-25h-13q-28 0 -71.5 -1t-84.5 -3t-60 -3v-8h-26v57zM121 288l-13 -1l-1 26l12 1q165 12 231 9q31 -1 55.5 -9.5t29.5 -32.5v0q0 -11 -0.5 -29t-2.5 -31l-2 -12l-25 3l1 13q2 12 3 28.5t0 24.5q-7 21 -91 20t-197 -10zM256 -5q2 0 5.5 3.5t6.5 13.5t4 29
q1 12 0 26t-2 22q-56 -2 -95.5 -4.5t-41.5 -2.5l-13 -1l-2 25l13 1q3 1 52 4t115 5t120 0l13 -1l-1 -25h-13q-55 2 -122 0q1 -9 2 -23.5t1 -27.5q-4 -58 -33 -68q-6 -3 -12 -3q-25 0 -56 33l-9 9l18 18l9 -9q31 -30 41 -24z" />
    <glyph glyph-name="uni4EAE" unicode="&#x4eae;" 
d="M479 359q-48 4 -115.5 4t-134 -2.5t-112 -5t-48.5 -3.5l-12 -1l-2 26l13 1q7 0 63 3.5t133 5.5q-18 17 -19 18v0l-9 8l17 19l9 -9h1q2 -2 31 -30l6 -5q106 3 181 -3l13 -2l-2 -25zM58 115l3 13q4 23 4 36.5v13.5l-1 13l25 2l1 -13q1 -1 0.5 -16t-4.5 -41l-3 -13zM480 181
q11 -10 11.5 -24t-3 -26t-4.5 -15l-6 -11l-23 10l5 12q4 9 5.5 19.5t-1.5 14.5q-37 19 -332 -3l-13 -1l-2 25l13 2v0q4 0 50.5 3.5t107.5 6.5q50 2 83.5 2t54 -2t31.5 -4t16 -4.5t7 -4.5zM121 268h25v-22q34 1 103 3.5t114 2.5h13l-1 -26h-12q-29 1 -72.5 -0.5t-84 -3
t-60.5 -2.5v-8h-25v56zM121 294l-12 -1l-2 26h13q165 12 231 9q30 -1 55 -9t29 -32v-1q1 -11 0 -28.5t-3 -30.5l-2 -13l-25 4l2 13q2 12 2.5 28t0.5 25q-8 20 -91.5 19t-197.5 -9zM364 -5q-19 18 -15 76q0 12 -2.5 17.5t-5.5 8.5q-13 11 -55 9t-107 -10l-33 -4l-3 26l33 3
q75 10 119 11t64 -16q16 -16 16 -46q-3 -46 7 -57q6 -8 38 -8q30 0 38 8q7 6 7 27v13h26v-13q0 -12 -3 -24.5t-13 -21.5q-14 -15 -55 -15q-18 0 -32.5 3t-23.5 13zM139 -23l-10 -9l-17 19l9 9q13 11 22 26t14 26t5 12l4 12l24 -9l-4 -12q-1 -2 -6.5 -14.5t-16 -29.5
t-24.5 -30z" />
    <glyph glyph-name="uni4EB2" unicode="&#x4eb2;" 
d="M71 372l13 1q7 0 60.5 3.5t127.5 6.5l-21 19l-10 9l18 19l9 -9q1 -1 32 -30l8 -7q94 3 163 -1l12 -1l-1 -26l-13 1q-46 3 -109.5 2t-125.5 -3.5t-104 -5t-44 -3.5h-13zM241 -31q-29 0 -60 35l-8 10l20 16l8 -10q26 -30 47 -25q27 15 27 84q0 29 -1 53q-76 -3 -130 -6
t-58 -4l-13 -1l-2 26l13 1q7 1 61 4t128 6q-5 67 -7 68q-83 -3 -142 -6.5t-62 -3.5l-13 -1l-2 25l13 1q2 1 45 3.5t108 5.5l-5 4q-11 11 -21.5 24t-17 23t-7.5 11l-7 11l22 13l7 -10v0q1 -2 7 -11t15 -20.5t19 -21.5l10 -8l-13 -15q50 2 103 4l2 2q12 13 21 28.5t14 27
t5 12.5l4 11l24 -9l-4 -12q-1 -2 -9.5 -20t-22.5 -40q75 2 130 -1l13 -1l-2 -26l-12 1q-83 4 -196 0q3 -12 6 -68q97 3 169 -1l12 -1l-1 -25l-13 1q-70 3 -165 0q1 -24 1 -54q0 -57 -14.5 -80t-30.5 -28q-7 -2 -15 -2zM146 90l8 10l20 -16l-8 -10q-2 -2 -23 -24.5t-59 -49.5
l-10 -7l-15 21l11 7q35 25 55 46t21 23zM384 87q1 -1 14 -11.5t34 -25.5t44 -28l11 -6l-12 -23l-11 7q-25 14 -46.5 29t-35 26t-14.5 12l-10 9l17 19z" />
    <glyph glyph-name="uni4EBA" unicode="&#x4eba;" 
d="M62 -32l-19 18l9 9q92 101 141 196.5t67 158.5t17 66l2 13l25 -4l-2 -13q0 -7 -18.5 -71.5t-68.5 -162t-145 -201.5zM286 194q3 -4 60.5 -60.5t149.5 -123.5l11 -7l-15 -21l-10 7q-95 68 -153.5 126t-61.5 63l-8 9l19 17z" />
    <glyph glyph-name="uni4EBF" unicode="&#x4ebf;" 
d="M141 -29h-26v295q-21 -44 -45 -88l-7 -11l-22 13l6 11q30 54 54.5 105.5t39.5 85.5t15 36l5 12l24 -10l-5 -12q0 -1 -10.5 -25.5t-28.5 -63.5v-348zM334 254q58 56 85 95q2 3 3.5 7t-0.5 7q-24 25 -190 2l-13 -2l-4 26l13 2q2 0 29 3.5t64 6.5q45 2 70.5 -1.5t37 -10
t14.5 -12.5q5 -6 5.5 -16.5t-7.5 -24.5q-29 -42 -88 -100q-46 -46 -87 -93q-47 -57 -32 -94q13 -27 60 -29q145 -8 171 23q19 16 18 66l-1 13l26 1v-13q1 -24 -3.5 -46.5t-21.5 -39.5q-24 -31 -137 -31q-24 0 -53 1q-63 3 -83 45q-21 51 36 120q42 49 88 95z" />
    <glyph glyph-name="uni4EC0" unicode="&#x4ec0;" 
d="M144 -30h-26v293q-22 -45 -47 -87l-7 -11l-22 14l7 11q28 46 52.5 97.5t40 87.5t15.5 38l5 12l24 -9l-5 -12q0 -1 -10 -25t-27 -62v-347zM359 -30h-25v256q-55 -1 -93.5 -3.5t-41.5 -2.5l-12 -1l-2 26l13 1q5 0 43.5 2t92.5 4v177h25v-176q80 2 136 -3l12 -1l-2 -25
l-13 1q-54 4 -133 2v-257z" />
    <glyph glyph-name="uni4EC1" unicode="&#x4ec1;" 
d="M70 180l-6 -11l-23 12l6 12q47 90 77 157t31 71l5 12l24 -10l-5 -12q-2 -5 -36 -81v-359h-25v304q-22 -45 -48 -95zM200 14l-13 -1l-2 26l13 1q7 0 61 3t121.5 4.5t114.5 -2.5l13 -2l-3 -25l-13 1q-33 3 -81.5 3t-96 -2t-80 -4t-34.5 -2zM223 364q6 1 52 3.5t103 3.5
t97 -3l13 -1l-3 -25l-12 1q-29 2 -69.5 2t-81.5 -1.5t-68.5 -3t-28.5 -1.5l-13 -1l-2 25z" />
    <glyph glyph-name="uni4EC5" unicode="&#x4ec5;" 
d="M141 -27h-26v291q-19 -39 -42 -81l-7 -11l-22 13l6 11q52 92 79.5 159.5t27.5 71.5l4 13l25 -9l-5 -12q0 -1 -10 -28.5t-30 -72.5v-345zM210 -31l-9 -9l-18 19l10 9q56 52 139 148q-94 125 -93 134l-6 11l22 12l6 -11q-2 -6 88 -126q45 55 74.5 104.5t28.5 81.5
q-1 8 -8 14q-30 21 -130 12q-41 -4 -69 -9t-30 -6l-13 -2l-5 25l13 2q12 4 60.5 11t103.5 7t85 -20q17 -12 19 -32q5 -66 -112 -208q51 -62 131 -141l9 -9l-18 -18l-9 9q-79 78 -130 139l-1 -1l-2 -2q-52 -60 -92.5 -101t-43.5 -43z" />
    <glyph glyph-name="uni4EC6" unicode="&#x4ec6;" 
d="M66 163l-21 15l7 10q33 49 57.5 99t38.5 85t15 37l4 12l24 -9l-4 -12q-1 -3 -13.5 -34t-33.5 -77v-319h-25v272q-19 -35 -42 -68zM297 -30v455h26v-455h-26zM494 178l11 -7l-15 -21l-10 7q-33 22 -63.5 47.5t-51.5 44t-23 20.5l-10 9l18 19l9 -9q1 -1 21.5 -19.5
t51.5 -43.5t62 -47z" />
    <glyph glyph-name="uni4EC7" unicode="&#x4ec7;" 
d="M71 186l-7 -10l-21 14l7 10q38 60 66 120q18 40 29 65.5t11 27.5l5 12l24 -10l-5 -12q-1 -2 -11 -27t-28 -62v-341h-25v289q-21 -39 -45 -76zM209 294l-19 -2l-3 25l18 2q41 5 74 9q11 83 11 88l1 13l25 -2l-1 -13q0 -9 -10 -84q70 7 97 -16q19 -16 19 -47
q0 -51 -1.5 -114t-2.5 -93v-9q-1 -25 3 -36t10 -13.5t12 -2.5q21 -1 29 6q11 9 11 59v13h25v-13q0 -27 -3.5 -46.5t-15.5 -30.5q-9 -8 -20 -11t-22 -3h-5q-26 2 -36.5 17t-12.5 33t-1 29v9q1 30 2.5 92.5t1.5 113.5q0 13 -3 19t-6 8q-21 16 -85 10q-10 -71 -30.5 -158.5
t-52.5 -164.5l-5 -12l-24 10l5 12q31 73 50.5 157t30.5 154q-30 -4 -66 -8z" />
    <glyph glyph-name="uni4ECA" unicode="&#x4eca;" 
d="M61 201l-11 -6l-13 22l11 6q71 44 118.5 91.5t71.5 81t24 35.5l7 11l22 -13l-6 -11q-3 -9 -58 -77.5t-166 -139.5zM501 231l11 -7l-14 -21l-10 6q-48 31 -90.5 64t-69 56t-27.5 25l-9 8l17 19l9 -9q2 -1 28 -24t67 -55t88 -62zM299 206l-11 7q-22 13 -37.5 24.5
t-16.5 13.5l-10 8l16 20l10 -9v0q1 -1 16 -12t35 -23l11 -6zM114 150l12 2q23 5 82 12t118.5 4.5t82.5 -25.5q5 -6 7.5 -15.5t-2.5 -22.5q-19 -47 -51.5 -76t-59.5 -42.5t-31 -14.5l-12 -4l-8 24l12 4q1 0 15.5 7t36 21t42 36.5t32.5 53.5q1 4 1 6.5t-0.5 4t-1.5 1.5
q-2 4 -14.5 9t-41.5 7.5t-82 -1.5q-48 -3 -83 -8t-37 -6l-13 -2z" />
    <glyph glyph-name="uni4ECB" unicode="&#x4ecb;" 
d="M50 200l-13 22l11 7q71 44 118.5 91.5t71.5 80.5t24 35l7 12l22 -13l-6 -11q-3 -9 -58 -77.5t-166 -139.5zM501 237l11 -7l-14 -21l-10 6q-48 31 -90.5 63.5t-69 56t-27.5 24.5l-9 9l17 19l9 -9q2 -1 28 -24t67 -55t88 -62zM342 -27v275h25v-275h-25zM177 235v13h26v-13
q0 -5 -3 -44.5t-15.5 -96t-40.5 -110.5l-6 -12l-23 12l6 12q27 51 39 105.5t15 93t2 40.5z" />
    <glyph glyph-name="uni4ECD" unicode="&#x4ecd;" 
d="M185 424l-4 -12q-1 -1 -10.5 -25t-24.5 -62v-354h-26v298q-21 -45 -46 -89l-7 -12l-22 13l6 11q30 53 53.5 105t37.5 87t15 37l4 12zM440 -12q-11 -5 -22 -5q-34 0 -76 44l-8 10l18 17l9 -9q15 -17 33.5 -28.5t34.5 -5.5q21 11 32 48t14.5 79.5t0.5 68.5q-1 14 -10 20
q-12 6 -30 5.5t-35 -5t-26 -7.5l-12 22q1 1 15.5 14t30 37.5t20.5 58.5q1 8 -5 13q-24 17 -87.5 13.5t-115.5 -15.5l-13 -2l-5 25l12 2q12 3 57 10t95 6.5t75 -20.5q15 -14 12 -35q-11 -60 -41 -93q36 7 66 -8q20 -12 23 -38t-0.5 -72.5t-17.5 -90t-44 -59.5zM217 -9l-5 -11
l-24 10l5 11q28 69 45.5 141.5t25.5 123t8 54.5l1 12l26 -3l-2 -12q0 -6 -8 -58t-26 -125t-46 -143z" />
    <glyph glyph-name="uni4ECE" unicode="&#x4ece;" 
d="M73 -13l-5 -12l-24 10l5 12q70 182 92 294.5t20 117.5l1 12l26 -2l-1 -13q2 -4 -20.5 -119t-93.5 -300zM177 223l7 -10q1 -1 8.5 -11.5t20 -25t25.5 -29.5l9 -9l-19 -18l-8 10q-14 15 -26.5 30t-21 26t-8.5 12l-8 10zM239 -26l-5 -12l-24 10l5 12q72 183 97 306.5
t24 129.5l1 13l26 -3l-2 -13q2 -6 -23.5 -131.5t-98.5 -311.5zM499 -1l7 -10l-20 -15l-8 10q-65 89 -99 151t-35 65l-5 11l23 11l5 -11q1 -3 34.5 -63.5t97.5 -148.5z" />
    <glyph glyph-name="uni4ED1" unicode="&#x4ed1;" 
d="M60 218l-11 -6l-12 22l11 6q71 40 118.5 82t71.5 72t25 32l7 10l21 -14l-7 -10q-2 -8 -57.5 -69.5t-166.5 -124.5zM318 374q1 -1 27 -21.5t67.5 -49.5t87.5 -55l12 -6l-13 -23l-11 6q-48 27 -90 56.5t-68.5 50.5t-28.5 22l-10 8l17 20zM168 240v-13v0q-1 -2 -1.5 -16
t-1 -35t-1.5 -42q106 27 167 60t63 36l11 8l15 -21l-11 -7q-4 -6 -68.5 -40.5t-176.5 -61.5v-13q0 -58 23 -78t63 -22q113 -9 153 35q21 26 10 69l-4 13l25 6l3 -12q15 -56 -15 -92q-41 -46 -136 -46q-19 0 -38 1q-110 6 -110 126q0 21 1 51.5t2 54.5t1 27l1 13z" />
    <glyph glyph-name="uni4ED3" unicode="&#x4ed3;" 
d="M60 226l-11 -6l-12 23l11 6q71 39 118.5 81.5t71.5 72t25 31.5l7 11l21 -14l-7 -11q-2 -8 -57.5 -69t-166.5 -125zM500 256l12 -6l-13 -23l-11 7q-48 27 -90 56.5t-68.5 50t-28.5 21.5l-10 9l17 19l10 -8q1 -1 27 -21.5t67.5 -49.5t87.5 -55zM257 -8q121 -8 159 36
q18 22 8 58l-4 12l24 8l4 -13q9 -30 3.5 -50t-15.5 -32q-38 -46 -142 -46q-18 0 -39 2q-122 8 -122 116q0 19 1 40t2 36t1 17l1 13l25 -2l-1 -13q0 -1 -1 -15.5t-2 -36t-1 -39.5q0 -86 99 -91zM387 234q14 -12 14 -30q0 -28 -9 -69.5t-38 -56.5q-7 -3 -15 -3q-24 0 -52 29
l-9 9l19 18l9 -9q7 -8 18 -15.5t21 -4.5q13 6 21 34t9 69q1 5 -4 9q-29 19 -109.5 13t-147.5 -19l-13 -3l-5 25l13 3q14 3 70.5 11.5t117.5 9t90 -19.5z" />
    <glyph glyph-name="uni4ED4" unicode="&#x4ed4;" 
d="M73 182l-6 -11l-22 13l7 11q29 49 49.5 100t31.5 86t11 38l3 12l25 -6l-3 -13q-1 -3 -9 -30t-23 -68v-343h-25v282q-17 -37 -39 -71zM194 177l-13 -1l-3 25l13 2q5 0 45.5 4t96.5 7q-11 54 -13 54l-5 12l24 10l5 -12v0v-1q41 27 63 51q21 23 16 40q-3 7 -10.5 10t-14.5 3
q-24 2 -56.5 -0.5t-57.5 -5.5t-27 -4l-13 -2l-4 26l13 2q3 0 29 3.5t59 6t59 0.5q23 -3 33.5 -12.5t13.5 -17.5q10 -32 -21 -67q-24 -27 -69 -56l-5 -3q3 -14 7 -36q77 4 133 -2l13 -1l-3 -26l-13 2q-52 5 -126 1q5 -38 5 -92q-1 -72 -15.5 -100.5t-31.5 -31.5q-6 -2 -11 -2
q-27 0 -50 35l-7 10l22 14l7 -11q16 -24 32 -22q2 1 6.5 4.5t9.5 14.5t9 32.5t4 56.5q-1 54 -6 91q-58 -3 -99.5 -6.5t-43.5 -4.5z" />
    <glyph glyph-name="uni4ED5" unicode="&#x4ed5;" 
d="M68 178l-7 -10l-21 15l8 10q36 52 63 102.5t42.5 85t15.5 35.5l5 12l24 -9l-5 -12q-1 -3 -14 -33t-37 -75v-328h-25v282q-22 -38 -49 -75zM363 281q74 3 134 0h13l-1 -26l-13 1q-60 2 -133 -1v-231q69 2 125 0h12l-1 -26l-12 1q-52 2 -114.5 -0.5t-109.5 -5t-50 -3.5
l-13 -1l-2 26l13 1q2 0 38 2t89 5v231q-58 -2 -97.5 -4.5t-42.5 -2.5l-12 -1l-2 25l13 1q2 0 42.5 2.5t98.5 5.5v146h25v-145z" />
    <glyph glyph-name="uni4ED6" unicode="&#x4ed6;" 
d="M62 174l-7 -11l-21 15l7 11q30 42 55 94.5t40.5 91.5t16.5 42l5 12l24 -9l-5 -12q-1 -3 -12.5 -32.5t-30.5 -70.5v-330h-25v277q-22 -43 -47 -78zM168 278l12 4l11.5 4t30.5 10q1 17 1 38v31v13h26v-13q-1 -35 -1 -62q23 6 50 12q21 5 39 8v108h26v-104q77 10 109 -10
q19 -12 22 -35q3 -29 0 -68t-13.5 -70.5t-30.5 -39.5q-5 -2 -9 -2q-22 0 -42 34l-7 11l22 13l7 -11q8 -13 13.5 -17.5t7.5 -3.5q13 6 22 51t4 100q-1 11 -10 17q-7 5 -29 8t-66 -3v-214h-26v210q-15 -2 -33 -7q-31 -6 -56 -14q-1 -66 -1 -101v-104q0 -42 25 -59
q24 -18 79 -18q104 0 127 25q11 12 10 34l-1 13l26 1v-13q2 -32 -17 -52q-29 -35 -146 -34q-62 0 -93 23q-36 26 -36 80q0 67 0.5 101.5t0.5 96.5q-32 -10 -34 -11l-12 -4z" />
    <glyph glyph-name="uni4ED7" unicode="&#x4ed7;" 
d="M64 174l-7 -11l-21 15l7 11q30 42 55 94.5t40.5 91.5t16.5 42l5 12l24 -9l-5 -12q-1 -3 -12.5 -32.5t-30.5 -70.5v-334h-25v281q-22 -43 -47 -78zM183 309l-2 26l13 1q4 0 36.5 1.5t79.5 3.5t95 2q7 32 8.5 50.5t1.5 19.5v12h26v-12q0 -3 -1.5 -21t-7.5 -49q41 0 70 -3
l12 -1l-2 -25l-13 1q-30 3 -73 3q-18 -81 -89 -199q65 -58 162 -116l11 -7l-13 -22l-11 6q-98 59 -163 118q-39 -57 -96 -116l-9 -9l-19 18l9 9q57 59 95 115q-83 80 -87 90l-8 10l20 16l8 -10q0 -1 21 -24.5t61 -59.5q63 106 81 181q-48 -1 -94 -3t-77 -3.5t-33 -1.5z" />
    <glyph glyph-name="uni4ED8" unicode="&#x4ed8;" 
d="M186 425l-4 -12q-1 -4 -13 -36t-31 -77v-332h-25v279q-20 -40 -43 -73l-7 -10l-21 15l7 10q30 43 54 96t39 93t15 43l4 12zM245 214q1 -1 16 -22.5t42 -48.5l9 -9l-18 -18l-9 9q-29 29 -45 51.5t-17 24.5l-6 11l22 13zM504 299l-12 1q-26 2 -62 3q3 -41 3 -85
q3 -210 -53 -240q-10 -5 -21 -5q-23 0 -50 22l-10 8l16 20l10 -8q27 -23 43 -14q29 20 36 109t1 193q-48 -1 -94.5 -2.5t-78 -3.5t-33.5 -2l-13 -1l-1 26l12 1q4 0 35.5 1.5t77.5 3.5t93 2q-3 45 -8 84l-1 13l25 3l2 -13q0 -1 2.5 -24.5t5.5 -62.5q37 0 65 -3l13 -1z" />
    <glyph glyph-name="uni4ED9" unicode="&#x4ed9;" 
d="M150 -25h-25v277q-22 -43 -47 -78l-7 -11l-21 15l7 11q30 42 55 94.5t40.5 91.5t16.5 42l5 12l24 -9l-5 -12q-1 -3 -12.5 -32.5t-30.5 -70.5v-330zM500 328v-345h-25v345h25zM260 328v-13q-1 -3 -2.5 -43.5t-3 -97.5t-1.5 -108q0 -30 10 -37q18 -15 91 -11v404h26v-403
q31 3 71 7l12 1l3 -26l-13 -1q-81 -9 -128 -9q-61 0 -79 19q-11 10 -14.5 25t-3.5 31q-1 51 0.5 108.5t3.5 98.5t2 43l1 13z" />
    <glyph glyph-name="uni4EDF" unicode="&#x4edf;" 
d="M66 195l-7 -11l-21 15l7 11q36 51 68 107q24 43 39.5 72.5t16.5 31.5l5 11l23 -11l-5 -11q-1 -2 -15.5 -30.5t-38.5 -70.5v-339h-25v296q-23 -38 -47 -71zM192 189l-2 25l13 1q5 0 44.5 2.5t94.5 3.5v143q-36 -4 -81 -7l-13 -1l-2 26h13q85 7 135.5 16t52.5 11l12 3
l6 -25l-12 -3q-5 -3 -85 -16v-146q77 2 130 -2l13 -2l-3 -25l-12 1q-52 5 -128 2v-223h-26v223q-55 -2 -95 -4t-42 -3h-13z" />
    <glyph glyph-name="uni4EE3" unicode="&#x4ee3;" 
d="M193 429l-5 -12q-1 -4 -14.5 -38t-35.5 -82h7v-331h-25v295q-22 -43 -47 -78l-7 -10l-21 14l7 11q30 43 55 95t40.5 91t16.5 42l5 12zM200 230l-13 -2l-3 25l12 2q4 1 34.5 5.5t74.5 10.5q-8 63 -10 104.5t-1 43.5l-1 12l26 1v-13q0 -2 2 -42.5t9 -101.5q91 12 155 18
l13 1l1 -26l-12 -1q-63 -5 -154 -18q8 -60 23.5 -121t41.5 -105q19 -32 34 -31q14 4 26 24t17 36l4 12l25 -8l-4 -12q-1 -5 -9 -22.5t-22 -34.5t-34 -20h-5q-29 0 -54 43q-46 78 -68 236q-45 -7 -75.5 -11.5t-32.5 -4.5zM386 411l11 -7q0 -1 10.5 -7.5t26 -15t32.5 -14.5
l12 -4l-9 -24l-12 4q-18 7 -34.5 16t-27.5 16t-13 7l-10 8z" />
    <glyph glyph-name="uni4EE4" unicode="&#x4ee4;" 
d="M262 439l7 11l22 -13l-7 -11q-2 -8 -57.5 -72t-165.5 -130l-11 -7l-13 23l11 6q71 41 118.5 85t71.5 75.5t24 32.5zM318 385q1 -1 27 -22.5t67.5 -51.5t88.5 -58l11 -6l-13 -22l-11 6q-48 29 -90 59.5t-69 52t-28 23.5l-10 8l17 20zM250 290l7 -5.5t18.5 -13t24.5 -14.5
l11 -6l-12 -23l-11 7q-22 12 -37.5 22.5t-16.5 12.5l-10 8l16 20zM248 193q60 3 93 0t47.5 -10t19.5 -15q4 -5 5.5 -13.5t-3.5 -21.5q-24 -45 -62.5 -74t-57.5 -38q31 -19 56 -29l11 -5l-9 -24l-12 5q-32 14 -71.5 38.5t-70 45t-34.5 23.5l-10 7l14 21l11 -7q2 -2 28 -19.5
t62 -40.5l8 5q2 0 24 13t48 36.5t42 53.5q1 3 1 5t-0.5 3l-0.5 1q-1 2 -7 5.5t-21 6.5t-41.5 4t-68.5 -2q-48 -3 -84 -7.5t-39 -5.5l-12 -2l-4 26l13 2q2 0 38.5 5t86.5 8z" />
    <glyph glyph-name="uni4EE5" unicode="&#x4ee5;" 
d="M84 421l-1 -13v0q-1 -5 -4 -56.5t-3 -120.5q0 -77 9 -124q5 -24 10 -36t9.5 -16.5t5.5 -4.5q2 -1 7.5 0t14 8t21.5 23t30 45l7 11l22 -13l-7 -11q-53 -90 -91 -90q-6 0 -11 2q-12 3 -23.5 19t-20 59.5t-9.5 127.5q0 71 3 123.5t4 55.5l1 13zM263 305l-8 10
q-33 35 -51 62.5t-19 30.5l-6 11l23 12l6 -11q0 -2 17 -28t48 -60l9 -9zM410 416l2 13l25 -5l-2 -13q0 -3 -19 -68t-61.5 -163t-112.5 -200l-8 -11l-21 15l8 11q69 99 110.5 195t60 159.5t18.5 66.5zM391 119q0 -2 24 -30t75 -74l10 -8l-17 -20l-10 9q-53 47 -77.5 76.5
t-25.5 31.5l-7 11l21 14z" />
    <glyph glyph-name="uni4EEA" unicode="&#x4eea;" 
d="M60 177l-7 -11l-22 13l7 11q24 41 49.5 93.5t43.5 92t19 42.5l5 11l24 -10l-5 -12q-2 -3 -13 -28t-29 -62v-346h-26v293q-24 -49 -46 -87zM357 334q-15 14 -27.5 29t-21 25.5t-9.5 11.5l-7 11l20 15l8 -10q0 -1 8 -11t20.5 -24.5t25.5 -28.5l10 -9l-18 -18zM369 156
q59 -73 141 -151l9 -9l-18 -18l-9 8q-81 77 -140 150q-59 -73 -147 -154l-10 -9l-17 19l9 9q90 82 149 155q-59 75 -90 123t-32 50l-6 12l22 12l6 -11q1 -2 30.5 -48t85.5 -118q64 84 93.5 135.5t28.5 53.5l6 12l23 -10l-5 -12q-1 -5 -31.5 -59t-97.5 -140z" />
    <glyph glyph-name="uni4EEC" unicode="&#x4eec;" 
d="M113 321q18 44 27.5 71t9.5 28l4 12l25 -7l-4 -13q0 -1 -9.5 -27t-27.5 -70v-347h-26v291q-19 -41 -44 -84l-7 -11l-22 13l6 11q42 72 68 133zM219 -30v359h26v-359h-26zM491 335q19 -343 -47 -363q-6 -2 -13 -2q-24 0 -52 32l-9 10l20 16l8 -9q24 -27 37 -23
q5 1 12.5 14.5t13.5 48.5t7.5 101.5t-3.5 173.5q0 8 -1 13q0 7 -6 12q-19 12 -58 11t-69 -7l-13 -3l-5 25l12 3l35 5t60.5 2.5t53.5 -16.5q15 -12 16 -31v-11q0 -1 1 -2zM279 344l-11 8q-11 9 -21.5 19t-17 17.5t-7.5 8.5l-8 10l20 16l8 -10l6 -7t15.5 -16t20.5 -17l10 -8z
" />
    <glyph glyph-name="uni4EF0" unicode="&#x4ef0;" 
d="M144 -27h-26v290q-20 -39 -47 -83l-6 -11l-22 14l7 11q56 93 81.5 157.5t25.5 68.5l4 12l24 -7l-3 -12q-1 -9 -38 -97v-343zM353 401l-11 -6q-2 -2 -36.5 -16.5t-94.5 -24.5l-13 -2l-4 26l13 2q56 9 88.5 22.5t33.5 14.5l12 7zM237 324l-1 -13q0 -2 -2 -36t-2 -79
q1 -39 4 -62.5t7.5 -35.5t8 -16.5t5.5 -4.5q10 -6 43 34l8 10l20 -15l-8 -10q-7 -11 -23.5 -27t-37.5 -18q-5 0 -11 2q-9 3 -18 15t-15.5 41.5t-8.5 86.5q0 46 2 80.5t3 36.5l1 13zM504 196q-2 -56 -9 -86.5t-15.5 -42.5t-16.5 -15q-7 -3 -13 -3q-18 0 -37 19l-9 9l18 18
l9 -9q14 -14 21 -11q1 0 4 3.5t7 13t8 27.5t6 47.5t2 73.5t-3 105v2q0 4 -4 6q-15 9 -51 6.5t-67 -9.5l-12 -3l-6 25l12 3q10 2 36.5 6.5t56 4t47.5 -11.5q12 -10 13 -27q2 -18 3.5 -60t-0.5 -91zM354 -32v339h26v-339h-26z" />
    <glyph glyph-name="uni4EF2" unicode="&#x4ef2;" 
d="M155 424l5 12l24 -10l-5 -12q0 -1 -10.5 -26.5t-28.5 -66.5v-351h-26v296q-20 -42 -43 -85l-7 -12l-22 13l6 11q30 55 54 107t38.5 87t14.5 37zM493 317q11 -10 11 -24q3 -60 -8 -163l-1 -13l-26 3l2 13q10 101 7 159v1t-0.5 2l-1.5 3q-7 7 -32 11.5t-79 3.5v-150h49h13
v-26h-13h-49v-169h-26v169q-32 -1 -61 -1.5t-44 -0.5v-14h-25v135h25v-96q15 1 44 1.5t61 0.5v150q-53 -2 -136 -10l-13 -2l-3 26l13 1q85 9 139 11v94h26v-93q64 1 91.5 -6t36.5 -16z" />
    <glyph glyph-name="uni4EF6" unicode="&#x4ef6;" 
d="M158 411l5 13l24 -9l-5 -12q-1 -4 -12.5 -33t-30.5 -71v-330h-25v277q-22 -42 -47 -78l-7 -10l-21 15l7 10q30 43 55 95.5t40.5 91.5t16.5 41zM194 162q6 1 50.5 3.5t104.5 3.5v128q-34 -1 -57.5 -2.5t-25.5 -1.5h-13q-13 -41 -34 -77l-7 -11l-22 13l7 11
q19 33 31.5 70.5t19 64.5t7.5 28l2 13l25 -5l-2 -13q-1 -2 -5.5 -21t-12.5 -48h2q4 1 27.5 2t57.5 3v105h26v-105q63 3 108 -1l13 -1l-3 -26l-13 1q-43 4 -105 2v-128q71 1 122 -3l13 -1l-3 -26l-13 2q-49 4 -119 2v-171h-26v171q-61 -2 -105.5 -4.5t-48.5 -3.5h-12l-2 25z
" />
    <glyph glyph-name="uni4EF7" unicode="&#x4ef7;" 
d="M64 169l-7 -11l-21 15l7 11q29 42 51 94t34 91t12 42l4 12l24 -6l-3 -13q-1 -4 -10.5 -35t-26.5 -75h4v-331h-25v281q-19 -41 -43 -75zM156 248l11 7q54 36 89 75t53 67t18 30l5 11l23 -11l-5 -12q-1 -3 -19.5 -32.5t-56 -70.5t-93.5 -79l-11 -6zM383 357q1 -1 32 -26.5
t87 -62.5l11 -6l-14 -22l-10 7q-58 37 -89.5 63t-33.5 29l-10 8l18 19zM214 -24l5 12q24 52 33 108t9.5 95t0.5 42l-1 12l26 2v-13q1 -5 0.5 -45.5t-10 -98.5t-35.5 -113l-5 -12zM385 -31v277h26v-277h-26z" />
    <glyph glyph-name="uni4EFB" unicode="&#x4efb;" 
d="M58 176l-7 -11l-21 15l7 10q30 43 58 96t46 92t19 42l6 11l23 -10l-5 -12q-1 -3 -14 -30t-33 -67v-335h-25v286q-26 -48 -54 -87zM350 217q92 3 156 -3l13 -1l-3 -25l-12 1q-63 5 -154 2v-150q75 2 128 -2l13 -1l-3 -26l-13 2q-30 2 -74 2t-87.5 -1.5t-73.5 -3.5t-32 -2
l-12 -1l-2 26l13 1q4 0 37 2t80 3v150q-60 -2 -102 -4t-44 -3h-13l-2 25l13 1q5 0 47 2.5t101 4.5v142q-38 -6 -80 -8l-13 -1l-1 26h13q46 3 87.5 9.5t68 12t27.5 6.5l12 3l7 -25l-13 -3q-2 -1 -24.5 -5.5t-57.5 -10.5v-145z" />
    <glyph glyph-name="uni4EFD" unicode="&#x4efd;" 
d="M61 171l-7 -10l-21 14l7 11q30 43 55 95t40.5 91t16.5 42l5 12l24 -9l-5 -12q-1 -3 -12.5 -32t-30.5 -71v-330h-25v277q-22 -43 -47 -78zM163 245q39 37 63 73t34.5 59.5t10.5 25.5l4 12l25 -8l-4 -13q0 -5 -26.5 -56t-89.5 -112l-9 -8l-18 19zM371 417q0 -1 16 -28
t46 -64.5t74 -71.5l10 -7l-15 -21l-10 8q-47 36 -78.5 75t-48 67t-17.5 31l-6 12l23 11zM191 -3l8 10q46 60 61.5 115t15.5 77q-28 -3 -58 -7l-12 -2l-4 25l13 2q84 14 151.5 13t79.5 -50v-1q4 -26 2 -68.5t-14 -81t-36 -51.5q-7 -4 -17 -4q-19 0 -46 24l-9 9l18 18l9 -9
q8 -8 16.5 -13.5t16.5 -1.5q19 11 30.5 62.5t4.5 112.5q-5 21 -37 26t-82 0q1 -21 -15 -82t-69 -130l-8 -9z" />
    <glyph glyph-name="uni4EFF" unicode="&#x4eff;" 
d="M60 166l-21 15l7 11q31 44 54 96t36.5 90.5t14.5 40.5l3 13l25 -8l-4 -12q-1 -4 -11 -34t-29 -74v-333h-25v278q-19 -39 -43 -72zM334 435q0 -1 7 -9.5t17 -19.5t18 -19l10 -9l-18 -19l-9 9q-9 8 -19.5 20t-18 21t-7.5 10l-8 10l20 16zM193 348q7 1 62.5 4t125 4
t117.5 -3l13 -1l-2 -26l-13 2q-33 3 -80.5 2.5t-95.5 -1.5q0 -25 -9 -95q69 10 115.5 4t55.5 -49v0q7 -47 -3.5 -112.5t-46.5 -89.5q-9 -5 -21 -5q-20 0 -51 24l-9 9l17 19l10 -9q26 -24 42 -16q22 13 33 72q9 55 4 104q-3 23 -36.5 28t-111.5 -6h-2q-15 -105 -76 -212
l-7 -11l-22 13l7 11q54 94 70 190t15 130q-42 -2 -70 -3.5t-30 -1.5l-12 -1l-2 25z" />
    <glyph glyph-name="uni4F01" unicode="&#x4f01;" 
d="M43 224l11 6q71 38 117.5 81t69.5 74t23 33l7 11l22 -13l-6 -11q-2 -4 -26 -36.5t-72.5 -77t-122.5 -83.5l-11 -6zM495 219l-11 5q-80 38 -130.5 70.5t-52.5 34.5l-11 7l15 21l10 -7q3 -3 52 -34t127 -69l12 -5zM483 9l-1 -26l-13 1q-92 3 -181.5 1t-149.5 -5t-63 -3
l-13 -1l-2 26l13 1v0q4 0 54 2v201h25v-199q48 2 112 3v250h25v-92q18 1 54.5 2.5t78.5 -0.5h13l-1 -26l-13 1q-42 1 -78.5 0t-53.5 -2v-132q89 1 181 -2h13z" />
    <glyph glyph-name="uni4F0A" unicode="&#x4f0a;" 
d="M61 176l-7 -11l-21 15l7 10q30 43 54 95.5t39 91.5t15 42l5 12l24 -9l-4 -12q-1 -3 -12 -31.5t-28 -70.5v-339h-25v286q-22 -43 -47 -79zM439 169q3 44 4 97q-59 0 -119 -3l-2 -24q-5 -38 -11 -72q69 5 123 2h5zM329 386q1 -16 -3 -98q59 4 118 3q1 43 1 58
q0 11 -2.5 16.5t-5.5 7.5q-24 18 -108 13zM470 291q18 -1 34 -2l13 -1l-2 -25l-13 1q-15 1 -33 1q-1 -36 -3 -71.5t-5 -57.5l-1 -13l-26 4l2 12v4h-4q-55 3 -127 -2q-22 -99 -64 -162l-8 -11l-21 14l7 11q41 65 59 146q-34 -2 -57.5 -4.5t-25.5 -2.5v0l-13 -1l-2 25l12 2
q4 0 29.5 2.5t62.5 5.5q10 50 14 95q-51 -3 -84 -6t-35 -4l-13 -1l-3 26l13 1q4 0 38.5 3.5t85.5 6.5q5 80 3 98q-42 -3 -94 -8l-13 -1l-2 25l13 2q110 10 167.5 9.5t79.5 -20.5q17 -15 17 -43q0 -13 -1 -58z" />
    <glyph glyph-name="uni4F0D" unicode="&#x4f0d;" 
d="M174 416l-4 -12q0 -2 -10.5 -31.5t-28.5 -74.5v-321h-26v266q-16 -33 -34 -66l-7 -11l-22 13l6 11q29 51 51 101.5t34.5 84.5t12.5 36l4 12zM398 230q-34 2 -106 -4l-21 -209q75 4 152 5q8 34 16 92t2 91q-1 9 -9 15.5t-34 9.5zM482 366q-33 2 -81 1t-95 -3l-11 -112
q70 6 105 3q58 -3 66 -44q6 -24 2.5 -62.5t-9.5 -74t-10 -52.5q26 0 45 -2l13 -1l-2 -25l-13 1q-34 2 -86.5 1t-105 -3.5t-89 -4.5t-38.5 -2l-13 -1l-2 25l13 1q3 0 23 1.5t51 3.5l21 207q-30 -2 -68 -6l-12 -2l-3 26l13 1q40 4 73 7l12 113q-33 -2 -53.5 -3t-22.5 -2v0
l-13 -1l-2 26l13 1q6 1 57.5 4t115 5t108.5 -1l13 -1l-2 -25z" />
    <glyph glyph-name="uni4F0E" unicode="&#x4f0e;" 
d="M74 184l-7 -11l-22 13l6 11q40 69 64 126l1 4q19 44 28 71t9 28l3 12l25 -7l-4 -12q-1 -9 -37 -101v-341h-25v284q-18 -36 -41 -77zM345 65q-3 -2 -6 -5q-48 -38 -85.5 -64t-40.5 -27l-10 -7l-14 21l10 7q3 2 40 27t84 63q1 0 1 1h1q-72 65 -75 71l-8 9l19 17l9 -9
q0 -5 75 -71q33 27 64.5 61t33.5 59q0 1 -0.5 2l-1.5 3q-3 2 -14.5 5.5t-37 5t-69.5 -1.5q-40 -4 -68.5 -8.5t-30.5 -4.5l-13 -3l-4 26l12 2q14 3 46.5 7.5t72.5 7.5v79q-56 -2 -93.5 -4.5t-40.5 -3.5l-13 -1l-2 26l13 1q2 0 41 3t95 5v67h26v-66q69 3 130 1l13 -1l-1 -26
l-13 1q-60 2 -129 -1v-79q66 2 96 -18q12 -10 12 -24q0 -48 -104 -136q48 -39 121 -85l11 -7l-14 -22l-11 7q-77 49 -127 90z" />
    <glyph glyph-name="uni4F0F" unicode="&#x4f0f;" 
d="M60 166l-21 15l7 11q30 42 55 94.5t40.5 91.5t16.5 42l5 12l24 -9l-5 -12q-1 -4 -12.5 -33t-30.5 -71v-333h-25v281q-22 -43 -47 -78zM189 -21l7 11q51 73 79.5 144t40.5 131q-52 -2 -86 -4.5t-36 -2.5l-12 -1l-3 25l13 1q2 0 38.5 3t90.5 5q9 57 10 91.5t1 35.5l-1 13
l26 2v-13q1 -4 0 -38t-9 -90q79 4 148 1h13l-1 -26l-13 1q-71 2 -152 -2q-12 -62 -41.5 -137.5t-84.5 -153.5l-7 -11zM501 6l9 -9l-18 -18l-9 9q-75 78 -102.5 127t-26.5 52l-4 12l24 9l4 -12q-1 -2 25.5 -48.5t97.5 -121.5zM424 393q1 -1 14.5 -13t33.5 -25l11 -7l-13 -21
l-11 6q-23 15 -37.5 28t-15.5 15l-9 9l19 18z" />
    <glyph glyph-name="uni4F10" unicode="&#x4f10;" 
d="M178 413l5 12l24 -10l-5 -12q-1 -3 -14 -31.5t-39 -73.5h2v-328h-26v288q-21 -34 -49 -71l-8 -10l-20 16l8 10q58 80 90 143t32 67zM198 278l13 2q4 1 33.5 5.5t72.5 10.5q-6 49 -9 81t-3 37l-1 12l26 2v-13q0 -2 3 -33.5t10 -81.5q85 13 145 18l12 1l2 -26l-13 -1
q-58 -5 -143 -17q10 -64 26 -131q42 35 68 59.5t27 26.5l9 9l18 -18l-9 -9q-3 -3 -32 -30.5t-74 -64.5q15 -55 37 -96q19 -31 27 -29q8 3 16.5 21t13.5 39l3 13l25 -6l-3 -12q-1 -7 -7 -25t-17 -34.5t-28 -20.5h-4q-13 0 -22.5 8t-16 18t-9.5 16q-21 39 -37 91
q-66 -54 -139 -89l-11 -6l-11 24l11 5q74 36 143 92q-19 75 -29 145q-44 -6 -74 -11t-32 -5l-13 -2zM469 342l-12 4q-17 7 -33 16t-27 16t-12 8l-10 7l15 21l10 -7q1 -1 10.5 -7.5t24.5 -15t31 -14.5l12 -4z" />
    <glyph glyph-name="uni4F11" unicode="&#x4f11;" 
d="M58 181l-7 -11l-21 15l7 10q35 54 61.5 106t41.5 87t16 37l4 12l24 -9l-5 -12q0 -2 -14.5 -35.5t-39.5 -84.5v-331h-26v283q-19 -34 -41 -67zM473 303q-62 3 -134 0v-336h-25v303q-19 -41 -55 -105.5t-81 -120.5l-8 -10l-20 16l8 10q53 67 91.5 140t49.5 101
q-47 -2 -78.5 -4.5t-32.5 -2.5l-13 -1l-2 26l12 1q3 0 39 2.5t90 4.5v103h25v-102q72 3 135 1l13 -1l-1 -25h-13zM393 204q0 -2 29 -39t88 -94l10 -9l-18 -18l-9 8q-62 59 -91.5 97t-30.5 41l-7 11l22 14z" />
    <glyph glyph-name="uni4F17" unicode="&#x4f17;" 
d="M76 235l-12 -7l-12 23l11 6q65 37 108.5 76t65.5 67t22 30l7 11l22 -14l-7 -11q-2 -7 -53 -64.5t-152 -116.5zM481 235l-12 7q-43 25 -82.5 52.5t-65 47t-26.5 20.5l-10 8l16 20l10 -8q1 -2 26 -21t63.5 -46t81.5 -51l11 -7zM87 -15l-7 -11l-21 15l7 11q37 55 58.5 109.5
t30.5 91.5t9 40l2 12l26 -4l-3 -13q0 -4 -9.5 -42.5t-31.5 -95t-61 -113.5zM241 61q-22 19 -38 35.5t-17 18.5l-9 10l19 17l9 -10l7.5 -8t19.5 -20t25 -23l10 -9l-17 -19zM375 255l-2 -13q0 -4 -8.5 -45t-32.5 -102t-71 -127l-7 -10l-21 15l8 10q44 63 67.5 122.5t31.5 98.5
t8 41l1 13zM488 2l10 -9l-18 -19l-9 9q-49 46 -74.5 78t-26.5 34l-7 11l21 14l7 -10q0 -2 25 -32.5t72 -75.5z" />
    <glyph glyph-name="uni4F18" unicode="&#x4f18;" 
d="M67 177l-6 -11l-22 13l7 11q56 94 81.5 160.5t25.5 69.5l4 13l24 -8l-3 -12q-1 -9 -42 -107v-336h-25v283q-19 -37 -44 -76zM448 348q-18 8 -33 18t-24.5 17.5t-10.5 8.5l-10 8l17 20l9 -9q1 0 9.5 -7t22.5 -16t30 -16l12 -5l-11 -24zM415 -16q-66 4 -66 79q0 78 2 141
t3 77q-16 -1 -31 -1q-2 -13 -5 -26q-32 -177 -103 -270l-7 -10l-21 15l8 10q43 59 67 135t34 144q-45 -2 -74.5 -4t-31.5 -2l-13 -1l-2 26l13 1q2 0 33 2t79 4q7 47 9 76.5t2 31.5v12h26l-1 -13q0 -3 -1.5 -31.5t-8.5 -74.5q92 5 169 2h13l-1 -26l-13 1q-51 1 -114 -1
q0 -3 -3 -68.5t-3 -149.5q0 -32 11.5 -42.5t31.5 -10.5q45 -4 58 10q11 10 9 47l-1 13l26 1l1 -13q1 -18 -2 -35.5t-15 -31.5q-18 -18 -60 -18q-8 0 -18 1z" />
    <glyph glyph-name="uni4F19" unicode="&#x4f19;" 
d="M78 167l-7 -11l-22 12l6 11q30 55 54 108.5t38.5 89t14.5 37.5l5 12l24 -9l-5 -12q0 -2 -9.5 -25.5t-25.5 -61.5v-343h-26v286q-22 -47 -47 -94zM219 -18l-8 -10l-20 16l8 10q71 94 98.5 188.5t31 159t2.5 68.5l-1 13l25 1l1 -12q2 -8 -1.5 -75t-32.5 -164t-103 -195z
M342 128l21 15l7 -11q1 -2 32.5 -39t89.5 -85l9 -9l-16 -19l-10 8q-59 49 -91.5 87t-34.5 42zM248 225q-14 14 -27 30t-21.5 28t-9.5 14l-7 10l21 15l7 -11q1 -1 9 -12.5t20.5 -26.5t25.5 -28l9 -8l-17 -19zM394 208l-9 -9l-17 20l10 8q18 16 39.5 39t37 41t16.5 20l8 10
l20 -17l-9 -10q-1 -2 -17 -20.5t-37.5 -41.5t-41.5 -40z" />
    <glyph glyph-name="uni4F1A" unicode="&#x4f1a;" 
d="M47 236q71 42 118.5 87t71.5 76.5t24 33.5l7 11l22 -14l-7 -11q-2 -8 -57.5 -73t-165.5 -132l-11 -6l-13 22zM317 378q1 -2 28 -23.5t69 -52t89 -58.5l11 -6l-13 -22l-11 6q-47 29 -90 60t-70.5 53t-29.5 23l-9 8l16 20zM146 254q5 1 47 3.5t98 4.5t103 0l13 -1l-2 -25
h-12q-46 2 -102.5 0t-98 -4.5t-44.5 -2.5l-13 -1l-2 25zM71 149q5 1 73 5t160 7t167 0h13l-1 -26l-13 1q-75 3 -166 -0.5t-158.5 -7.5t-72.5 -4l-13 -1l-2 25zM234 95q-19 -14 -33 -24.5t-23 -19t-15 -15t-8.5 -11t-3.5 -7.5t-1 -4.5v-1.5l3 -3t7.5 -4t16 -3.5t27.5 -2t43 1
t61.5 6t83.5 13.5q-22 24 -36 39.5t-15 16.5v0l-9 10l19 17l9 -10q1 -1 26 -29t61 -67l9 -9l-19 -18l-8 10l-18 18l1 -1l-13 -2q-126 -21 -187 -21q-47 0 -64.5 8.5t-20.5 19.5q-19 39 93 114l10 7l15 -21z" />
    <glyph glyph-name="uni4F1E" unicode="&#x4f1e;" 
d="M41 241l11 6q71 39 117.5 83t69.5 76t23 34l7 11l22 -13l-6 -11q-2 -4 -26 -37.5t-72.5 -79t-122.5 -86.5l-11 -6zM496 265l12 -6l-11 -23l-12 5q-80 40 -130.5 72.5t-52.5 35.5l-10 7l15 21l10 -8q2 -2 51.5 -34t127.5 -70zM467 82q-93 3 -183 1v-116h-26v115
q-80 -2 -131.5 -4.5t-53.5 -2.5l-13 -1l-2 26h13v0q4 1 56 3.5t131 4.5v202h26v-202q90 2 184 -1h13l-1 -26zM138 253l7 -11q0 -1 6.5 -13t16.5 -28.5t19 -31.5l7 -10l-22 -14l-7 11q-9 14 -19 30.5t-16.5 29t-7.5 14.5l-6 11zM364 151l-8 -10l-19 16l8 10q23 28 37 50.5
t14 24.5l6 11l23 -12l-6 -11q-1 -3 -16 -26.5t-39 -52.5z" />
    <glyph glyph-name="uni4F1F" unicode="&#x4f1f;" 
d="M46 179l7 10q30 43 55 95.5t40.5 91.5t16.5 41l5 13l24 -9l-5 -12q-1 -4 -12.5 -33t-30.5 -71v-337h-25v284q-22 -42 -47 -78l-7 -10zM347 431v-52q68 2 144 0l13 -1l-1 -25h-13q-75 3 -143 0v-68q55 2 116 0l13 -1l-1 -25h-13q-60 2 -115 0v-66q48 2 87.5 -1.5
t57.5 -17.5q7 -6 9 -12t2 -10q1 -37 -9 -73q-14 -45 -39 -55q-6 -3 -13 -3q-10 0 -21.5 6t-25.5 22l-8 10l19 16l9 -9q5 -7 14 -14t17 -5q12 6 22 35.5t10 68.5q0 1 -0.5 1.5l-1.5 1.5q-3 3 -15 7t-39 6t-75 0v-195h-25v194q-50 -4 -86.5 -8.5t-38.5 -4.5l-12 -2l-4 25l13 2
q14 2 49 6.5t79 7.5v66q-41 -1 -66 -3t-26 -3l-13 -1l-2 26l13 1q1 0 26.5 2t67.5 4v68q-51 -2 -82 -4.5t-33 -2.5l-13 -1l-2 25l13 1q1 1 33 3.5t84 4.5v53h25z" />
    <glyph glyph-name="uni4F20" unicode="&#x4f20;" 
d="M159 421l4 12l24 -9l-4 -12q-1 -3 -12 -30.5t-28 -67.5v-343h-25v292q-22 -42 -47 -78l-7 -11l-21 15l7 11q30 42 54 93t39 88t16 40zM190 260q3 0 24.5 1t54.5 2l22 74q-32 -2 -51.5 -3t-20.5 -2l-13 -1l-2 26l12 1q2 0 24.5 1.5t58.5 3.5l20 68l24 -7l-17 -60
q77 4 153 0l12 -1l-1 -25h-13q-79 4 -159 0l-22 -74q51 1 105 1.5t93 -2.5h13l-2 -26l-13 1q-39 2 -95 1.5t-108 -1.5l-20 -66q23 3 60 6t73 2q52 -1 64 -27q12 -24 -15 -58q-21 -24 -46 -41t-37 -23q19 -14 40 -31l9 -9l-16 -19l-10 8q-56 46 -98.5 65.5t-45.5 18.5l-13 4
l8 24l12 -3q2 0 26.5 -10t62.5 -32l8 4q1 0 15 8t32 21.5t33 30.5q16 21 12 31q-3 11 -41 13q-33 0 -67 -2.5t-57 -5.5t-25 -3l-14 16l23 77q-32 -1 -51 -2t-20 -1h-13l-1 25z" />
    <glyph glyph-name="uni4F24" unicode="&#x4f24;" 
d="M135 -31h-25v276q-20 -37 -43 -70l-7 -10l-21 15l7 10q31 44 55 95.5t38.5 89t14.5 39.5l5 12l24 -8l-4 -12q-1 -4 -12.5 -34t-31.5 -74v-329zM339 313v-13q0 -4 -4 -54q62 4 100.5 -6.5t45.5 -44.5h1q7 -54 -4 -116q-5 -26 -16.5 -53t-32.5 -40q-10 -5 -23 -5
q-22 -2 -53 24l-9 9l17 19l9 -9q28 -25 46 -15q27 18 37 76t3 106q-5 21 -38.5 27t-87.5 2q-8 -48 -32 -110t-71 -125l-8 -10l-20 16l8 10q43 57 65.5 114.5t31.5 102.5q-44 -4 -93 -10l-13 -2l-3 26l13 1q54 7 100 11q5 55 5 56v13h26zM268 367q25 2 94.5 5t136.5 -1h12
l-1 -26l-13 1q-49 3 -102 1.5t-91 -4t-40 -2.5l-8 -1q-16 -38 -48 -77l-8 -10l-20 16l8 10q26 32 41 63.5t22 53t7 22.5l3 13l25 -6l-3 -13q0 -4 -15 -45z" />
    <glyph glyph-name="uni4F26" unicode="&#x4f26;" 
d="M60 183l-7 -11l-22 13l6 11q29 50 53.5 101.5t40 87.5t15.5 38l5 12l24 -10l-5 -12v0q-1 -2 -12.5 -29.5t-31.5 -69.5h12v-348h-25v319q-25 -52 -53 -102zM191 230l-16 20l11 8q49 37 82 77.5t49.5 69t17.5 30.5l5 12l23 -11l-5 -12q-1 -3 -18.5 -33t-52 -72t-86.5 -82z
M508 265l10 -8l-15 -20l-10 7q-34 26 -63 54t-47.5 48t-20.5 23l-9 9l20 17l8 -9q1 -2 19 -21.5t47 -47t61 -52.5zM268 255l-1 -12q-2 -4 -6 -101q52 17 90.5 39t59.5 38.5t22 17.5l9 8l18 -18l-9 -9q-4 -5 -54 -40t-137 -63q0 -16 -1 -33q2 -50 27 -67t49 -17q57 -3 83 4.5
t33 18.5q13 17 2 49l-4 12l25 8l4 -12q15 -45 -7 -73q-26 -34 -104 -34q-16 0 -34 2q-98 10 -99 109q5 156 7 163l1 13z" />
    <glyph glyph-name="uni4F2A" unicode="&#x4f2a;" 
d="M147 -28h-25v284q-22 -42 -47 -78l-7 -10l-21 15l7 10q30 43 55 95.5t40.5 91.5t16.5 41l5 12l24 -8l-5 -12q-1 -4 -12.5 -33t-30.5 -71v-337zM259 326q-12 11 -21.5 22t-15 19t-5.5 9l-7 11l22 13l6 -11q1 0 5.5 -7t13 -17t19.5 -20l10 -8l-17 -20zM397 125
q-19 24 -32 45v0q-4 6 -8 13l-7 11l21 14l7 -11q5 -7 9 -13v-1q7 -10 13.5 -20t16.5 -22l8 -9l-20 -17zM498 265q1 -3 2.5 -42.5t-0.5 -92.5t-14 -97.5t-38 -58.5q-8 -4 -17 -4q-26 0 -58 36l-9 9l19 17l9 -9q8 -10 21 -20t24 -6q13 7 20.5 30.5t11.5 49t4 39.5q4 43 3 83.5
t-3 62.5q0 1 -1.5 3t-4.5 5q-6 6 -31.5 11.5t-83.5 3.5q-11 -65 -35.5 -145t-67.5 -160l-6 -11l-23 12l6 11q41 75 64.5 151.5t34.5 140.5q-44 -4 -76 -8t-34 -5l-13 -2l-4 26l13 2q9 1 42 5.5t77 7.5q7 48 9.5 77t2.5 30v13l26 -1l-1 -13q2 -10 -11 -105q40 1 74 -3.5
t53 -17.5q13 -10 15 -25z" />
    <glyph glyph-name="uni4F2F" unicode="&#x4f2f;" 
d="M195 418l-5 -12q-1 -3 -12 -32.5t-30 -71.5l3 -329l-25 -1l-3 277q-19 -38 -42 -71l-7 -10l-21 14l7 11q29 43 53 93.5t38.5 88t14.5 40.5l4 12zM457 -21l1 13q10 109 11 189.5t0 111.5v11q-1 9 -9 15q-27 17 -93 15t-130 -10l-13 -2l-3 26l13 1q37 5 68 7l-3 3l10 9
q12 11 20.5 23.5t13 21.5l4.5 9l5 12l23 -10l-5 -12q0 -2 -9 -18t-25 -35q110 6 140 -20q16 -12 18 -33v-1q0 -3 1 -9v-2q1 -32 0 -113.5t-12 -191.5l-1 -13zM418 -1q-37 3 -83 1t-67 -4v-14h-25v303h25v-87q20 1 59 3t69 1l13 -1l-1 -26l-13 1q-30 1 -69.5 -1t-57.5 -3
v-150q23 2 68.5 3.5t83.5 -0.5l12 -1l-2 -26z" />
    <glyph glyph-name="uni4F30" unicode="&#x4f30;" 
d="M66 168l-22 13l6 11q40 69 64 125v5h2q18 43 27 68.5t9 26.5l3 13l25 -8l-4 -12q-1 -9 -37 -98v-343h-25v287q-18 -36 -41 -76zM217 124h26v-105q26 1 73.5 2.5t84.5 -0.5l13 -1l-2 -25l-13 1q-36 2 -84 0.5t-72 -3.5v-15h-26v146zM491 308q-64 2 -138 -1v-107
q86 1 114 -22q16 -13 18 -32v-2q0 -10 -1 -37.5t-3 -60.5t-7 -57l-2 -13l-25 5l2 12q6 36 8.5 83t2.5 68q-1 8 -9 13q-36 30 -233 6l-13 -1l-3 25l13 2q65 8 112 10v107q-57 -3 -96 -5.5t-41 -2.5l-13 -1l-2 25l13 1v0q4 1 43 3.5t96 5.5v101h26v-100q74 3 139 0h13l-2 -26z
" />
    <glyph glyph-name="uni4F34" unicode="&#x4f34;" 
d="M66 177l-6 -11l-22 13l7 11q56 93 83.5 158.5t27.5 68.5l4 12l24 -8l-4 -12q-1 -9 -41 -99v-336h-26v284q-20 -38 -47 -81zM226 397l6 -11q0 -2 12.5 -23.5t34.5 -49.5l8 -10l-20 -16l-8 10q-24 30 -37 52.5t-13 24.5l-6 12zM462 386l6 11l23 -11l-6 -12q-1 -3 -16 -27
t-40 -51l-9 -9l-19 18l9 9q16 16 27.5 32.5t18 27.5t6.5 12zM181 108l-2 25l12 1q3 1 43 3.5t100 5.5v90q-50 -2 -83.5 -4.5t-35.5 -2.5l-12 -1l-3 26l13 1q2 0 36.5 2t84.5 5v176h25v-175q62 2 115 0l13 -1l-1 -25h-13q-52 2 -114 0v-90q75 3 140 0h13l-1 -26l-13 1
q-64 2 -139 -1v-152h-25v151q-59 -2 -98.5 -5t-42.5 -3z" />
    <glyph glyph-name="uni4F36" unicode="&#x4f36;" 
d="M61 186l-6 -11l-22 14l7 11q38 62 65 114l1 2q22 43 33.5 69t11.5 28l5 11l24 -9l-5 -12q0 -1 -11.5 -27t-33.5 -68v-340h-25v291q-20 -35 -44 -73zM351 426l-6 -11q-1 -7 -41 -63.5t-126 -117.5l-11 -7l-14 21l10 7q55 37 90 76t52 66t17 29l6 11zM371 376
q1 -1 19.5 -20t48.5 -45.5t66 -52.5l11 -7l-15 -21l-10 7q-57 41 -96 79t-43 43l-8 9l18 17zM320 289q0 -1 11.5 -15.5t33.5 -33.5l10 -9l-16 -19l-10 8q-25 21 -37.5 37.5t-13.5 17.5l-7 11l22 14zM310 184q53 4 81.5 0.5t41.5 -10t17 -12.5q4 -5 5.5 -13.5t-4.5 -21.5
q-22 -39 -50.5 -65.5t-47.5 -38.5q21 -10 48 -21l11 -5l-9 -23l-12 5q-88 38 -126 62t-38 26l-10 8l16 19l10 -8q-2 -2 84 -49q1 1 19 13t41.5 34.5t40.5 53.5q1 3 1.5 5t0 2.5t-0.5 1.5q-27 27 -223 0l-13 -2l-4 26l13 2q2 0 33.5 4.5t74.5 6.5z" />
    <glyph glyph-name="uni4F38" unicode="&#x4f38;" 
d="M192 422l-5 -12q0 -1 -10.5 -26.5t-28.5 -66.5v-348h-26v293q-20 -43 -43 -86l-7 -11l-22 12l6 12q30 54 54 106.5t38.5 87t14.5 36.5l5 12zM243 112q13 1 40.5 3t60.5 3v102q-34 -2 -62.5 -4t-38.5 -3v-101zM216 326l-12 -2l-5 25l13 2q10 2 47.5 7t84.5 7v66h26v-65
q77 1 114 -24q15 -12 15 -30v-45t-3 -92t-9 -94l-2 -13l-25 5l2 12q6 41 8.5 93t3 91.5t-0.5 42.5q0 2 -1 4.5t-4 6.5q-6 5 -28 11t-70 6v-94q22 0 39 -2l13 -2l-3 -25l-13 1q-16 2 -36 2v-102q25 1 47 -1l12 -1l-2 -26l-13 1q-20 2 -44 2v-125h-26v124q-34 -1 -62 -2.5
t-39 -2.5v-18h-25v232h25v-63q13 2 40.5 4t60.5 3v94q-8 0 -17 -1q-45 -3 -77 -7t-34 -5z" />
    <glyph glyph-name="uni4F3A" unicode="&#x4f3a;" 
d="M78 177l-7 -11l-22 12l6 11q30 55 54 107.5t38.5 87t14.5 36.5l5 12l24 -9l-5 -12q0 -2 -10.5 -27.5t-28.5 -65.5v-352h-26v296q-20 -42 -43 -85zM425 -27q-22 0 -47 25l-9 9l18 18l9 -9q8 -8 17.5 -13.5t17.5 -2.5q21 13 31 75.5t11 141t-4 139.5q0 2 -1.5 4.5t-4.5 5.5
q-7 7 -35 13t-94 3q-40 -2 -69 -5.5t-30 -3.5l-13 -2l-4 25l13 2q12 3 61.5 7.5t103.5 2t82 -21.5q15 -11 16 -28q2 -21 4 -75.5t-1 -120.5q-3 -61 -10.5 -97.5t-16 -54.5t-16.5 -25t-12 -8q-8 -4 -17 -4zM222 166h25v-75q11 1 27.5 2t30.5 0h13l-1 -26l-13 1
q-14 0 -30.5 -1t-26.5 -1v-12h-25v112zM361 57l2 13q6 42 9 69.5t1 52.5v1q0 4 -1 6t-3 4q-11 8 -38 8.5t-55.5 -2.5t-44.5 -6l-12 -2l-4 26l12 2q133 20 159 -7q13 -11 12 -29q2 -26 -0.5 -55t-9.5 -72l-1 -12zM218 284l-12 -1l-3 26l13 1q5 0 43.5 3t85 3.5t77.5 -3.5
l12 -2l-4 -26l-13 3q-21 3 -53.5 3t-65.5 -1.5t-55.5 -3t-24.5 -2.5z" />
    <glyph glyph-name="uni4F3C" unicode="&#x4f3c;" 
d="M53 167l-21 15l7 10q39 57 68 125q18 43 29 72.5t11 30.5l5 12l24 -8l-4 -12q-1 -3 -11.5 -31.5t-28.5 -68.5v-344h-25v289q-22 -44 -47 -79zM232 60q-9 2 -18 15t-15 48t-6 102q1 56 3.5 98.5t3.5 44.5l1 13l25 -2l-1 -13q0 -3 -3 -44.5t-3 -96.5q0 -22 0.5 -40
t1.5 -31.5t2.5 -24t3.5 -18t3.5 -12.5t3 -8t3 -4.5l2 -2l0.5 -0.5h1t2.5 0.5t3.5 2t4.5 4t6.5 7t8.5 11t9.5 15t12 20.5l6 11l22 -12l-6 -11q-39 -74 -69 -74q-4 0 -8 2zM338 316q-24 36 -36.5 63t-12.5 30l-5 12l24 9l5 -12q0 -2 12 -28t34 -60l7 -10l-21 -14zM472 424
l-2 -12q0 -4 -13.5 -69t-43.5 -162.5t-80 -199.5l-6 -11l-23 11l6 12q49 100 78.5 196t43 159.5t12.5 66.5l2 13zM439 117q0 -1 17 -29.5t53 -74.5l8 -10l-19 -16l-8 10q-38 47 -56 77t-18 32l-5 11l23 11z" />
    <glyph glyph-name="uni4F43" unicode="&#x4f43;" 
d="M63 157l-21 14l7 11q30 43 54 96t39 93t15 42l4 13l25 -9l-4 -12q-1 -3 -11 -30.5t-27 -67.5h5v-332h-25v287q-24 -52 -54 -95zM251 28q15 1 42.5 3t60.5 3v154q-34 -1 -62 -3.5t-41 -3.5v-153zM491 362q16 -13 16 -32q0 -9 -0.5 -72.5t-3 -139.5t-9.5 -122l-2 -13l-25 4
l2 13q5 32 7.5 86t3.5 109t1 93.5v41.5q0 7 -6 13t-27.5 11.5t-68.5 6.5v-147q26 1 46 -2l13 -1l-3 -26l-13 2q-18 2 -43 2v-154q30 0 55 -2l12 -1l-2 -26l-13 1q-46 4 -101 1t-79 -6v-18h-25v307h25v-84q14 1 42 3.5t61 3.5v146q-11 0 -22 -1q-46 -3 -78.5 -8t-34.5 -5
l-12 -2l-5 25l13 2q14 3 69.5 9.5t116 5t90.5 -23.5z" />
    <glyph glyph-name="uni4F46" unicode="&#x4f46;" 
d="M62 174l-7 -11l-21 15l7 11q30 42 55 94.5t40.5 91.5t16.5 42l5 12l24 -9l-5 -12q-1 -3 -12.5 -32.5t-30.5 -71.5v-329h-25v277q-22 -43 -47 -78zM223 336h25v-73q24 3 71 5.5t85 -0.5l12 -2l-2 -25l-13 1q-37 3 -84.5 0.5t-68.5 -4.5v-114q24 2 73 4.5t90 -0.5l13 -1
l-2 -26l-13 1q-40 3 -89 0.5t-72 -4.5v-19h-25v257zM443 79l3 13q4 26 6.5 70t3 89.5t0.5 77v33.5q0 1 -0.5 3t-3.5 5q-26 17 -98 15t-132 -12l-13 -2l-4 25l13 2q13 3 64 8.5t106 3.5t81 -21q13 -11 13 -27v-59.5t-2.5 -115t-8.5 -100.5l-2 -12zM192 25q7 0 63.5 2t127.5 3
t120 -2h13l-1 -26l-13 1q-36 2 -87 1.5t-101.5 -1.5t-84.5 -2.5t-36 -1.5h-13l-1 25z" />
    <glyph glyph-name="uni4F4D" unicode="&#x4f4d;" 
d="M53 159l-21 14l7 11q30 43 55 95.5t40.5 91.5t16.5 41l5 12l24 -9l-5 -12q-1 -3 -12.5 -32t-30.5 -71v-330h-25v277q-22 -42 -47 -78zM236 276l4 -13q0 -1 8.5 -27t24.5 -64.5t40 -76.5l6 -11l-21 -14l-7 11q-25 40 -41.5 79.5t-25 66.5t-9.5 30l-3 12zM352 368
q-10 8 -19 19.5t-15.5 20.5t-6.5 11l-7 10l21 14l7 -10q0 -1 6 -9t14.5 -19t16.5 -19l9 -8l-17 -19zM383 27q71 1 121 -3l13 -1l-3 -26l-13 1q-53 5 -132 3q-70 -2 -124 -5t-58 -3l-12 -1l-2 26l13 1q6 0 54.5 3t113.5 4q26 51 48 107t36 96t15 42l4 12l24 -8l-4 -12
q0 -2 -13.5 -39.5t-34.5 -91.5t-46 -105zM489 324q-33 3 -81 3t-95.5 -2t-80 -4t-34.5 -2l-12 -1l-2 26l13 1q7 0 60.5 3t120.5 4.5t114 -3.5l13 -1l-3 -25z" />
    <glyph glyph-name="uni4F4E" unicode="&#x4f4e;" 
d="M518 74l-3 -12q-5 -19 -19 -41t-37 -27h-4q-27 0 -49 40q-36 66 -51 194q-44 -2 -78 -4.5t-45 -3.5q-2 -24 -3 -49v-41t1 -32t2.5 -24.5t3 -18t3 -12.5t3 -8.5t3 -5l2 -2l0.5 -0.5l1 0.5t3 1t4.5 3l6.5 6.5t9 11t11.5 16.5t13.5 22.5l6 11l23 -12l-7 -11q-41 -75 -70 -74
q-5 0 -9 1q-9 2 -18 15.5t-14 49t-3 104.5q2 56 5.5 98.5t4.5 46.5v0l1 13l26 -3l-2 -12q0 -1 -2 -20t-4 -49q33 3 120 7q-1 1 -1 2v4q-4 49 -5 85t0 47q-69 -7 -135 -10l-13 -1l-1 26l13 1q59 2 121 8t105.5 11t45.5 6l13 1l3 -25l-12 -2h-1q-3 0 -34.5 -4t-79.5 -9
q0 -5 0.5 -43.5t5.5 -95.5q63 3 117 0l13 -1l-2 -25h-12q-52 3 -113 1q10 -105 47 -183q15 -27 28 -26q10 2 19.5 16.5t14.5 32.5l4 12zM362 -21l-10 8l-14 12t-11.5 9.5t-5.5 3.5l-10 8l16 20l10 -8q1 0 10.5 -7.5t21.5 -17.5l10 -9zM60 179l-7 -11l-21 15l7 10
q34 51 58 103t37 87.5t13 37.5l4 12l25 -7l-4 -12q-1 -4 -11 -32t-29 -71v-342h-26v288q-20 -40 -46 -78z" />
    <glyph glyph-name="uni4F4F" unicode="&#x4f4f;" 
d="M139 -28h-25v288q-21 -43 -43 -82l-7 -11l-22 12l6 11q37 65 66 130q19 43 31 71t12 30l5 12l24 -10l-5 -12q0 -1 -11.5 -28t-30.5 -69v-342zM354 352l-8 9l-18 22t-15 19t-7 9v0l-7 11l20 15l8 -10q0 -1 6 -8.5t14.5 -18.5t17.5 -22l8 -10zM194 7q5 1 43 3t92 4v154
q-43 -2 -73 -3.5t-32 -1.5l-12 -1l-2 25l13 1q4 0 34 2t72 3v124q-51 -2 -87.5 -4t-38.5 -2l-13 -1l-2 26l13 1q7 0 58 3t114.5 4t108.5 -3l12 -1l-2 -26l-13 2q-50 4 -125 2v-124q65 2 110 -2l13 -1l-3 -26l-12 2q-44 3 -108 1v-153q83 2 141 -3l12 -1l-2 -26l-13 2
q-34 3 -83 2.5t-97.5 -2t-81 -3.5t-34.5 -2l-13 -1l-2 25z" />
    <glyph glyph-name="uni4F50" unicode="&#x4f50;" 
d="M165 426l-4 -12q0 -3 -8.5 -30.5t-22.5 -69.5v-344h-26v284q-16 -37 -35 -72l-7 -11l-22 13l6 11q28 50 48 101t31 86.5t12 38.5l3 12zM494 328q-35 3 -84 3t-99 -2q-18 -54 -52 -119q35 2 102 4.5t114 -1.5l13 -1l-3 -26l-13 2q-39 3 -98 1v-159q72 1 122 -3l13 -1
l-3 -26l-12 2q-33 3 -79.5 2.5t-92.5 -2t-77 -3.5t-33 -2l-13 -1l-2 25l13 1q5 1 44.5 3t94.5 4v160q-42 -2 -71.5 -3.5t-31.5 -1.5h-2q-27 -49 -64 -92l-8 -10l-20 17l9 10q43 52 73.5 110.5t48.5 108.5q-40 -2 -66 -3.5t-28 -1.5l-13 -1l-1 25l12 1q4 0 33.5 2t72.5 4
q20 61 20 65l3 13l25 -6l-3 -13q-1 -6 -17 -58q102 4 175 -2l13 -1l-3 -26z" />
    <glyph glyph-name="uni4F51" unicode="&#x4f51;" 
d="M128 419l3 12l25 -5l-3 -12q0 -3 -6.5 -28.5t-18.5 -65.5v-349h-26v280q-15 -37 -34 -72l-7 -12l-22 13l6 11q29 52 47 104t27 87t9 37zM328 349q97 4 170 -2l13 -1l-3 -26l-12 2q-35 3 -82.5 3t-94.5 -2q-19 -52 -50 -115q163 23 201 -11q18 -14 20 -36v-1q0 -11 -1 -40
t-3 -63t-6 -60l-2 -13l-25 4l2 13q5 37 7 87t2 71q-1 11 -9 17q-35 28 -201 4q-28 -51 -65 -95l-8 -10l-20 17l9 9q38 47 67 102l1 1q33 63 53 118q-38 -2 -63 -3.5t-26 -1.5l-13 -1l-2 25l13 1q4 0 31.5 2t69.5 4q22 65 22 70l3 12l25 -6l-3 -12q-1 -7 -20 -63zM251 132h25
v-102q24 2 65.5 3.5t74.5 -0.5l12 -1l-2 -26l-13 1q-31 2 -72.5 0.5t-64.5 -2.5v-19h-25v146z" />
    <glyph glyph-name="uni4F53" unicode="&#x4f53;" 
d="M63 185l-7 -10l-21 15l7 10q31 45 53 96q21 47 32.5 81t11.5 36l4 12l24 -7l-3 -12q-1 -4 -12 -37t-32 -79v-325h-25v272q-15 -27 -32 -52zM389 230q1 -3 33 -46t83 -97l9 -9l-18 -18l-9 9q-53 56 -85.5 99.5t-34.5 47.5l-7 11l22 14zM339 94q36 1 59 0h13l-1 -26l-13 1
q-23 1 -58 0v-102h-25v101q-26 -1 -44 -2t-20 -1l-12 -1l-2 26h13q2 0 20.5 1t44.5 2v195q-10 -26 -45 -90.5t-97 -138.5l-8 -10l-19 17l8 10q71 86 106 156t35 75l1 2q-54 -2 -89 -4.5t-37 -3.5l-13 -1l-2 26l13 1q3 0 44.5 3t102.5 6v103h25v-102q78 3 146 0h13l-1 -26
l-13 1q-67 2 -145 -1v-217z" />
    <glyph glyph-name="uni4F55" unicode="&#x4f55;" 
d="M62 179l-7 -11l-22 13l6 11q42 73 68 133q18 44 27.5 71t9.5 28l4 12l25 -7l-4 -12q0 -2 -9.5 -28t-27.5 -69v-348h-26v291q-19 -40 -44 -84zM516 401l-2 -26l-12 1q-19 1 -39 1q1 -13 5 -66t6 -120q1 -89 -6.5 -135.5t-18.5 -64.5t-22 -22q-7 -2 -14 -2q-19 0 -34 13.5
t-21 21.5l-9 10l20 17l8 -10q27 -31 40 -26q3 1 8.5 8.5t11 28t9 59t2.5 101.5q-2 73 -6 128t-5 59q-56 -1 -109.5 -3.5t-89 -5t-37.5 -2.5l-13 -1l-2 26l13 1q3 0 53.5 3.5t120 6t130.5 0.5zM209 231h25v-104q11 1 26 1.5t28 0.5h13l-1 -26l-13 1q-12 0 -27.5 -1t-25.5 -1
v-14h-25v143zM325 91l2 13q6 40 8 85t1 70v2q0 3 -1 4.5t-2 2.5q-18 15 -121 0l-13 -2l-4 25l13 2q118 19 142 -6q11 -10 11 -26q2 -27 -0.5 -73t-7.5 -88l-2 -13z" />
    <glyph glyph-name="uni4F59" unicode="&#x4f59;" 
d="M48 228l-12 23l11 6q71 38 118.5 79.5t71.5 71t25 31.5l7 10l21 -14l-7 -10q-2 -8 -57.5 -68t-166.5 -123zM503 264l11 -6l-12 -23l-11 6q-48 27 -91 56t-70.5 49.5t-29.5 21.5l-10 8l16 20l10 -8q2 -1 29 -21t69 -48.5t89 -54.5zM385 255q-49 2 -106 0l1 -8v0
q0 -2 2.5 -20t5.5 -47q98 4 182 1h13l-1 -26l-13 1q-82 2 -179 -1l2 -32q2 -46 -3.5 -92.5t-31.5 -62.5q-8 -4 -16 -4q-22 0 -49 26l-10 9l18 18l9 -9q25 -23 36 -18q15 10 19.5 55.5t-0.5 108.5q-81 -4 -137.5 -7.5t-60.5 -3.5l-12 -1l-2 25l12 1h1q6 1 62 4.5t135 6.5
q-3 33 -7 64l-2 11q-44 -2 -74.5 -4t-32.5 -3l-12 -1l-2 26l13 1q4 0 44.5 3t95 4.5t101.5 0.5l13 -1l-2 -26zM173 93q-3 -3 -30.5 -31t-70.5 -58l-10 -7l-14 21l10 8q27 18 48 37t34 32.5t13 14.5l8 9l20 -16zM373 117q1 -1 19 -14.5t44 -32t50 -32.5l11 -6l-13 -22l-11 6
q-25 15 -51 33t-44.5 32.5t-20.5 15.5l-10 8l16 20z" />
    <glyph glyph-name="uni4F5B" unicode="&#x4f5b;" 
d="M179 424l-4 -13q0 -8 -41 -102h3v-341h-25v297q-19 -35 -44 -75l-6 -11l-22 13l7 11q55 93 79.5 153t24.5 63l3 12zM364 273v75q-34 0 -73 -3q-2 -32 -5 -75q39 2 78 3zM364 168v79q-40 -1 -81 -3q-4 -41 -10 -86q52 7 91 10zM456 236l2 12q3 18 3.5 40.5t-0.5 35.5
q0 4 -5 8q-17 13 -67 15v-74h22l13 -1l-1 -25h-13q-9 1 -21 1v-79q83 6 107 -17q14 -12 14 -33q0 -76 -31 -93q-7 -5 -19 -5q-14 0 -35 12l-11 7l14 22l11 -7q6 -5 13.5 -7.5t13.5 0.5q3 1 7 7t8 21t4 43q0 6 -2 9t-4 5q-19 15 -90 11v-175h-25v173q-42 -4 -95 -10
q-12 -77 -33 -154l-4 -12l-25 6l4 13q20 72 31 144l-16 -2q-16 -2 -25.5 2.5t-14.5 9.5q-9 12 -10.5 26t0.5 25.5t3 14.5l4 12l24 -7l-3 -12q-3 -8 -3.5 -21t5.5 -21q0 -1 2 -2t5.5 -2t9.5 0q12 2 23 3q7 46 11 87q-30 -1 -49 -2.5t-21 -1.5l-12 -1l-2 25l13 1q2 1 22.5 2
t51.5 3q3 43 5 76q-40 -3 -80 -7l-13 -2l-2 26l13 1q46 5 83 7q2 47 2 48v13h25v-13q0 -1 -1 -46q41 2 72 2v60h25v-60q64 -3 84 -21q12 -11 14 -27q0 -13 -0.5 -36.5t-3.5 -44.5l-2 -12z" />
    <glyph glyph-name="uni4F5C" unicode="&#x4f5c;" 
d="M67 176l-7 -11l-22 12l6 12q30 54 54 106.5t38.5 87t14.5 36.5l5 12l24 -9l-5 -12q0 -1 -9.5 -24t-25.5 -61v-356h-26v300q-22 -46 -47 -93zM498 332q-31 1 -76.5 -1t-87.5 -4v-94q23 2 70 4.5t81 1.5h13l-1 -26h-12q-34 1 -82 -1.5t-69 -4.5v-94q11 1 39.5 2.5t61 3
t55.5 0.5h13l-1 -26l-13 1q-23 0 -56 -1t-61.5 -3t-37.5 -3v-118h-26v356q-42 -2 -47 -3v0h-6q-20 -50 -46 -92l-7 -11l-22 14l7 11q21 33 39 74.5t29 72.5t12 33l4 12l24 -8l-4 -12q-1 -3 -7.5 -21.5t-17.5 -46.5q19 2 61.5 4.5t90 4.5t81.5 1l13 -1l-1 -25h-13z" />
    <glyph glyph-name="uni4F60" unicode="&#x4f60;" 
d="M178 425l-3 -12l-9.5 -28.5t-23.5 -63.5v-349h-25v291q-21 -44 -47 -82l-7 -10l-21 15l7 10q29 43 51.5 94.5t36 89.5t13.5 40l4 12zM183 64l7 11q20 31 33 60t19.5 48t6.5 20l4 12l24 -7l-3 -12q-1 -4 -16 -45t-47 -90l-7 -11zM441 205q0 -2 16.5 -40t43.5 -87l7 -11
l-23 -13l-6 11q-28 51 -44.5 89t-17.5 42l-5 12l24 9zM311 -1q1 0 3 1.5t4.5 6.5t5.5 13.5t5 22.5q6 37 6 96q-1 54 -4 93.5t-4 42.5l-1 13l26 2l1 -12q0 -3 3.5 -43.5t3.5 -94.5q0 -66 -6 -100.5t-15 -48t-18 -16.5q-6 -2 -12 -2q-17 0 -31 13.5t-20 21.5l-8 10l20 16
l8 -10q26 -30 33 -25zM303 426l-2 -12q0 -6 -22 -60q23 5 64 10t80.5 2.5t58.5 -19.5q13 -13 9 -33q-3 -12 -7 -23t-7 -18t-4 -8l-5 -11l-23 11l5 11q0 1 3 7.5t6.5 16t6.5 19.5q1 4 0 6.5t-2 3.5q-19 15 -77.5 12t-111.5 -14l-10 -2q-16 -32 -45 -69l-7 -10l-21 15l8 10
q43 59 59.5 102.5t16.5 45.5l2 13z" />
    <glyph glyph-name="uni4F63" unicode="&#x4f63;" 
d="M179 432l-3 -12q-1 -3 -10.5 -30.5t-25.5 -68.5v-350h-26v293q-17 -37 -38 -71l-7 -11l-22 13l7 11q29 48 50.5 98.5t34 85.5t12.5 37l4 12zM246 252l-5 -1q-1 -39 -5 -92l6 1q3 0 30 3t64 5v92q-36 -2 -62 -5t-28 -3zM182 -23l3 13q17 66 23 139t7 124.5t1 54.5v13h25
l1 -13q0 -3 1 -31q3 1 30 4t63 5v98q-6 0 -12 -1q-44 -6 -75 -12t-33 -7l-12 -2l-6 24l12 3q14 4 67 13.5t112 11t89 -18.5q16 -12 17 -30v-12q8 -154 3 -234t-18 -110t-27 -33q-6 -3 -12 -3q-21 0 -45 29l-9 9l20 17l8 -10q19 -21 28 -19q1 1 4.5 4t7 11.5t7.5 25t7 43
t5 65.5q2 60 0 116t-4 88l-1 11q0 7 -6 12q-6 6 -29 10.5t-73 1.5v-100q26 1 46 -1l13 -1l-3 -26l-12 2q-19 1 -44 1v-93q29 1 54 -1l12 -1l-2 -25l-12 1q-23 1 -52 0v-150h-25v149q-37 -2 -63.5 -4.5t-27.5 -2.5l-11 -2q-6 -77 -24 -150l-3 -12z" />
    <glyph glyph-name="uni4F69" unicode="&#x4f69;" 
d="M58 179l-6 -11l-23 11l6 12q27 54 47 106t31.5 87t11.5 37l4 12l25 -7l-4 -13q0 -1 -8 -26.5t-23 -65.5v-348h-26v283q-16 -39 -35 -77zM134 -24l2 12q23 135 27.5 231.5t3.5 102.5v13h26v-13q1 -6 -4 -104t-28 -234l-2 -13zM493 51l1 12l26 -1l-1 -13
q-3 -33 -15.5 -48.5t-27.5 -15.5h-1q-19 0 -32.5 22t-13.5 67q0 37 2 81q2 65 2 124.5t-7 84.5q0 3 -5.5 8t-19 10t-39 7.5t-66.5 0.5q-49 -4 -86 -9.5t-40 -5.5l-12 -3l-5 25l13 3q3 1 40.5 6.5t87.5 8.5q140 8 156 -42q9 -29 9 -89t-3 -130q-1 -43 -2 -80q1 -33 8 -48
t14 -15v0q4 0 10 9.5t7 30.5zM231 241q38 7 65 9v55q-26 -1 -43.5 -3t-18.5 -2l-12 -1l-3 25l13 2q3 0 29.5 2.5t61 4t61.5 -0.5l13 -1l-3 -26l-13 1q-25 2 -59 1v-55q33 0 46.5 -5t17.5 -8q11 -9 13 -24q1 -9 2.5 -34.5t0.5 -55.5q-2 -79 -27 -90q-5 -2 -11 -2
q-11 0 -28 14l-9 9l18 18l9 -9q2 -2 4 -3.5t4 -2l2 -0.5q18 10 9 154q0 1 -0.5 2.5t-2.5 2.5q-3 3 -14 6t-34 2v-247h-26v246q-24 -2 -61 -9l-12 -2l-5 25zM229 39v147h25v-147h-25z" />
    <glyph glyph-name="uni4F6C" unicode="&#x4f6c;" 
d="M127 -30h-25v282q-15 -28 -31 -56l-7 -11l-22 14l7 11q29 49 52.5 97.5t37.5 82t15 34.5l4 12l24 -9l-5 -12q0 -2 -13.5 -33.5t-36.5 -78.5v-333zM155 111l10 7q84 57 155 116q-56 -2 -96.5 -4t-45.5 -3v0h-13l-1 25l13 1q2 0 33.5 1.5t78.5 3.5v83q-32 -1 -54.5 -1.5
t-25.5 -1.5v0h-13l-1 25l12 1q3 0 26 1t56 2v67h26v-67q51 1 91 0h12l-1 -26l-12 1q-39 1 -90 0v-83q19 1 38 1q55 47 88 77t34 32l10 9l17 -19l-9 -9q-1 -1 -27.5 -25.5t-71.5 -63.5q59 2 101 0h13l-1 -26l-13 1q-54 1 -132 -1q-41 -35 -90 -72l-2 -12v0q-1 -1 -2.5 -15
t-2.5 -36q74 19 121.5 41t49.5 25l11 6l13 -22l-11 -6q-4 -4 -54.5 -27.5t-129.5 -42.5q1 -31 16.5 -50t56.5 -23q83 -7 108 23q18 21 6 66l-3 12l25 7l3 -12q16 -58 -11 -90q-27 -33 -97 -33q-15 0 -33 2q-46 4 -69 27q-28 26 -28 84q0 33 3 54q-30 -23 -62 -44l-11 -8z
" />
    <glyph glyph-name="uni4F6F" unicode="&#x4f6f;" 
d="M62 174l-7 -10l-21 15l7 10q39 57 68 125l1 4q18 41 28.5 69t10.5 30l5 12l24 -8l-4 -12q-1 -4 -11.5 -32t-28.5 -69v-340h-25v286q-22 -44 -47 -80zM433 431l-3 -12q-1 -2 -10 -24t-28 -48q45 0 92 -2h12v-26l-13 1q-69 2 -132 1v-84q54 1 111 -1l13 -1l-1 -25h-13
q-56 3 -110 2v-90q70 0 152 -2h12v-25h-13q-82 2 -151 1v-126h-26v126q-67 -1 -107 -2.5t-42 -1.5l-12 -1l-2 26l13 1v0q4 0 44 1.5t106 2.5v89q-46 -1 -75.5 -2.5t-30.5 -2.5l-13 -1l-2 26l13 1q1 0 31 1.5t77 3.5v83q-56 -1 -91.5 -3t-37.5 -2l-12 -1l-2 25l13 1v0
q8 1 89 5l-4 6q-18 23 -28 42t-10 21l-5 12l23 10l5 -12q1 -1 10 -18.5t25 -39.5l8 -10l-15 -11q31 1 66 2l8 10q13 16 21.5 31.5t12.5 26.5l4 11l4 12z" />
    <glyph glyph-name="uni4F70" unicode="&#x4f70;" 
d="M136 -32h-25v288q-18 -38 -41 -77l-7 -11l-22 13l6 11q52 91 78.5 159.5t26.5 72.5l4 12l25 -7l-4 -13q0 -1 -10.5 -29.5t-30.5 -75.5v-343zM234 232h26v-71q22 3 67 5t80 -1l13 -1l-3 -25l-13 1q-34 3 -79 0.5t-65 -5.5v-108q23 2 69 4t85 -1l13 -1l-2 -25l-13 1
q-38 2 -84.5 0t-67.5 -4v-18h-26v249zM364 371l-3 -4q0 -2 -10.5 -21t-31.5 -45q5 1 11 1q113 6 143 -20q12 -11 12 -26q1 -7 0.5 -56.5t-2.5 -109t-8 -96.5l-2 -12l-25 4l2 13q4 25 6 67t3 85t1 73v32q0 1 -0.5 3t-3.5 4q-25 17 -95.5 14.5t-129.5 -11.5l-13 -2l-4 25l13 2
q1 0 16 2.5t39 4.5l7 8q36 43 46 65q-50 -1 -84 -2.5t-36 -1.5l-13 -1l-1 26l13 1q6 0 57 2t114.5 2.5t109.5 -1.5l13 -1l-2 -25h-12q-54 3 -130 1z" />
    <glyph glyph-name="uni4F73" unicode="&#x4f73;" 
d="M135 -31h-25v291q-20 -38 -43 -71l-7 -10l-21 15l7 10q30 43 54 92.5t39 86t16 39.5l4 12l24 -9l-4 -12q-2 -4 -13 -32.5t-31 -69.5v-342zM192 -11l-13 -1l-1 26h13v0q4 1 44 2t97 3v89q-46 -1 -79 -2t-37 -1h-1l-12 -1l-1 26h12q2 0 35.5 1.5t82.5 2.5v63h25v-62
q68 1 120 0l13 -1l-1 -26l-13 1q-51 2 -119 0v-90q82 2 141 0h13l-1 -26l-13 1q-50 1 -119.5 0t-124.5 -3t-61 -2v0zM180 220l-1 25l13 1q2 0 42.5 1.5t98.5 2.5v83q-49 -1 -83.5 -2.5t-36.5 -1.5l-13 -1l-1 26h13q2 0 36.5 1.5t84.5 2.5v74h25v-73q64 1 113 0l12 -1l-1 -25
h-12q-49 2 -112 0v-82q77 2 134 0l12 -1l-1 -25h-12q-51 2 -119.5 0.5t-121.5 -3.5t-57 -2h-13z" />
    <glyph glyph-name="uni4F7F" unicode="&#x4f7f;" 
d="M65 173l-7 -11l-22 12l6 11q30 55 54 107.5t38.5 87t14.5 36.5l5 12l24 -9l-5 -12q0 -1 -10.5 -26.5t-28.5 -66.5v-348h-26v292q-20 -42 -43 -85zM500 355q-58 2 -126 0q-1 -27 -5 -60q78 2 113 -20q7 -7 10 -13t3 -11q1 -41 -4.5 -68t-7.5 -29l-4 -13l-24 9l4 12
q1 1 6.5 25.5t3.5 61.5q0 1 -0.5 2.5t-2.5 3.5q-26 16 -101 14q-6 -40 -17 -84q40 1 68 0l13 -1l-2 -26l-13 1q-29 2 -73 0q-14 -47 -36 -93q61 -35 171 -67l13 -4l-7 -24l-13 3q-113 33 -175 69q-20 -36 -45 -69l-8 -10l-20 16l8 10q24 31 42 65q-45 28 -47 31l-10 8l15 20
l10 -8q1 -2 44 -28q18 40 30 80q-34 -2 -58.5 -4t-25.5 -2h-5v-20h-25v100h25v-55l3 1q3 0 30 2t64 4q12 44 18 85q-74 -4 -135 -13l-13 -2l-3 25l12 2q11 2 51.5 6.5t90.5 7.5q5 32 6 59q-61 -3 -104 -6t-46 -3l-12 -1l-2 26l13 1v0q4 0 47.5 3t104.5 5q1 43 0 46v12l25 2
l1 -13q1 -5 0 -46q68 3 126 0h13l-1 -26z" />
    <glyph glyph-name="uni4F84" unicode="&#x4f84;" 
d="M186 428l-4 -12q-1 -3 -10.5 -29.5t-25.5 -65.5v-350h-26v294q-23 -48 -50 -87l-7 -11l-21 15l7 10q30 43 54 96.5t39 93t15 42.5l4 12zM339 341q-53 -44 -75 -68q-5 -5 -8 -9.5l-5 -7.5t-3 -5.5t-1.5 -3.5t-0.5 -2v-1l0.5 -0.5t2 -1t4 -1.5t7 -2t10.5 -1.5t15 -0.5t20 1
q115 9 140 14q-15 18 -25.5 29.5l-10.5 11.5l20 17l9.5 -11t24.5 -28t30 -35l9 -9l-19 -17l-9 9q-4 6 -9 11l-12 -2q-3 -1 -42.5 -6.5t-104.5 -9.5h-20q-57 0 -63 23q-8 17 14.5 45.5t84.5 79.5l10 9l16 -20zM204 396h13q3 0 52.5 2t113.5 3t112 0l13 -1l-1 -25h-13
q-48 2 -111.5 0.5t-112.5 -3t-52 -1.5l-13 -1zM183 14h13v0q6 1 45.5 2.5t93.5 2.5v86q-46 -1 -79.5 -2.5t-36.5 -1.5v0l-13 -1l-1 26h13q2 1 35.5 2t81.5 3v71h26v-71q63 2 109 0h13l-1 -26l-13 1q-46 1 -108 0v-86q77 1 133 0l13 -1l-1 -25h-13q-55 2 -132 -1h-26
q-56 -1 -96 -2.5t-42 -1.5l-13 -1z" />
    <glyph glyph-name="uni4F88" unicode="&#x4f88;" 
d="M422 400q25 -2 36.5 -10t14.5 -17q3 -6 0.5 -18.5t-18.5 -29.5q-41 -39 -93 -70.5t-92.5 -50t-45.5 -20.5l-12 -5l-9 24l12 5q2 1 41 19t90.5 48.5t90.5 67.5q15 16 12 21q-3 8 -28 10t-52 0t-47 -4.5t-21 -2.5l-13 -2q-29 -28 -75 -56l-11 -7l-13 22l11 6q56 36 85.5 68
t30.5 35l7 10l21 -14l-7 -11q-1 -2 -19 -23q20 2 49 4t55 1zM294 345l54 -45l-17 -19l-53 44zM210 -13l12 4q2 1 42.5 17.5t96 49.5t104.5 81q8 8 10 13t1 6q-1 2 -6.5 5t-19.5 4q-22 1 -48.5 -0.5t-46 -4t-20.5 -2.5l-11 -1q-33 -31 -92 -68l-11 -7l-14 22l11 7
q68 43 101 75.5t33 35.5l8 10l20 -16l-7 -10q-1 -2 -18 -20q20 3 47 4.5t50 0.5q24 -2 34.5 -9.5t13.5 -15.5t0.5 -19.5t-16.5 -27.5q-52 -50 -109 -84t-98.5 -51.5t-46.5 -18.5l-12 -4zM311 127l54 -44l-17 -20l-53 45zM147 -25h-26v299q-24 -46 -47 -76l-8 -10l-20 16
l8 10q17 22 36 56.5t35.5 69.5t27 58.5t10.5 25.5l5 12l24 -10l-5 -12q-1 -3 -12 -28.5t-28 -60.5v-350z" />
    <glyph glyph-name="uni4F8B" unicode="&#x4f8b;" 
d="M142 -28h-25v282q-22 -44 -47 -80l-7 -10l-21 15l7 10q30 43 54 96t39 93t15 43l4 12l25 -8l-4 -12q-1 -4 -11.5 -33t-28.5 -70v-338zM419 332v-225h-25v225h25zM400 0l-8 10l20 16l8 -10q24 -28 31 -23q2 0 5.5 4.5t8 16.5t9 36t7 63t1.5 97q-1 81 -5 142.5t-5 65.5
l-1 13l26 2l1 -13q1 -4 5 -66t5 -144q0 -94 -7 -152q-11 -78 -41 -89q-6 -2 -11 -2q-17 0 -30 12.5t-19 20.5zM191 140l-7 -10l-21 15l7 10q26 37 43 85t26 88t12 54q-18 -1 -29 -2t-13 -1v0l-13 -1l-2 25l12 2q3 0 28.5 2t60 3.5t67.5 -0.5l12 -1l-1 -25h-13q-40 2 -83 -1
q-1 -3 -5.5 -28t-14.5 -63q17 4 39.5 5.5t38.5 -7.5q12 -8 14 -22q5 -29 -23 -114t-112 -180l-9 -9l-19 18l9 9q67 73 96 142l-5 1q-13 5 -25 11.5t-19.5 11.5t-8.5 6l-11 8l15 20l11 -7q0 -1 7 -5.5t17.5 -10.5t20.5 -9l7 -2q28 82 24 107q-1 1 -1.5 2t-1.5 1
q-10 6 -31.5 3.5t-41.5 -7.5q-19 -68 -57 -124z" />
    <glyph glyph-name="uni4F8D" unicode="&#x4f8d;" 
d="M39 176l7 11q54 88 82.5 156t29.5 73l4 12l24 -9l-4 -12q0 -2 -14.5 -38.5t-42.5 -92.5h3v-309h-26v265q-16 -29 -35 -59l-6 -11zM273 42q-22 15 -37.5 29t-16.5 15l-9 9l18 19l9 -9q0 -1 7 -7.5t18.5 -16t24.5 -18.5l11 -7l-14 -21zM507 168l-1 -25h-13q-30 1 -69 1
q1 -21 2 -44q0 -41 -4 -66.5t-10.5 -39t-12.5 -18.5t-9 -7q-8 -4 -16 -4q-21 0 -46 23l-10 9l17 19l10 -9q7 -6 16.5 -12t16.5 -3q14 9 19 52t2 100q-49 -1 -95 -2t-76 -2.5t-32 -1.5h-13l-1 25l13 1q2 0 32 1t75.5 2.5t94.5 1.5q-2 16 -4 31l-1 13l25 3l2 -13q0 -3 3 -33
q41 0 72 -1zM510 265l-1 -26l-13 1q-50 2 -119.5 0.5t-124.5 -3.5t-61 -2v0l-13 -1l-1 26l13 1q3 0 42 1.5t95 2.5v79q-45 -2 -77 -3t-35 -1v0l-13 -1l-1 26h12q2 0 34.5 1.5t79.5 2.5v63h26v-62q70 1 123 0l13 -1l-1 -25h-13q-53 2 -122 0v-78q83 1 144 0z" />
    <glyph glyph-name="uni4F97" unicode="&#x4f97;" 
d="M135 -30h-26v286q-17 -35 -39 -65l-7 -11l-21 15l7 10q29 43 51 91.5t34 84t12 37.5l4 13l24 -8l-3 -12q-1 -3 -10.5 -31t-25.5 -68v-342zM205 -22v349h26v-349h-26zM504 146q-2 -55 -8.5 -88.5t-14 -50t-15 -23t-11.5 -7.5q-6 -4 -15 -4q-16 0 -41 22l-9 9l18 18l9 -9
q6 -7 13.5 -11.5t13.5 -1.5q3 1 8 7t10.5 21t10 44t6.5 75q2 63 -0.5 122.5t-7.5 99.5q0 2 -1 4t-4 5q-11 11 -68.5 14.5t-191.5 -13.5l-13 -2l-3 25l12 2q103 13 160.5 14t84 -5.5t35.5 -14.5q13 -10 15 -26q4 -40 7 -101t0 -125zM286 174h26v-73q9 0 21 0.5t22 0.5h12v-26
h-13h-21.5t-20.5 -1v-11h-26v110zM396 203q0 1 -1 1q-1 2 -10.5 5t-33.5 3t-67 -6l-13 -2l-4 25l13 2q48 6 75 6t40 -4t18 -9q9 -9 9 -21q1 -21 -1 -58t-6 -69l-2 -13l-26 4l2 13q5 31 7 66.5t0 54.5v2zM417 292q-26 4 -59 3t-57 -3.5t-26 -3.5l-13 -1l-3 25l13 2q3 0 28 3
t59 4t62 -3l13 -2l-4 -26z" />
    <glyph glyph-name="uni4F9B" unicode="&#x4f9b;" 
d="M59 172l-7 -10l-21 14l7 11q58 89 86.5 158t29.5 73l4 13l24 -8l-4 -12q-1 -4 -12.5 -35t-35.5 -80v-326h-25v277q-20 -37 -46 -75zM279 93l7 11l22 -13l-7 -11q-1 -4 -26 -33.5t-76 -62.5l-11 -6l-13 21l11 7q47 31 70 58t23 29zM398 97q1 -1 16 -15.5t37.5 -35
t44.5 -37.5l11 -7l-16 -21l-10 8q-24 17 -46.5 37.5t-38 35.5t-16.5 17l-9 9l18 18zM280 301v-139q50 3 109 5v138q-60 -1 -109 -4zM415 168q48 1 91 -1l13 -1l-2 -25h-12q-64 3 -137 0t-125.5 -6.5t-55.5 -3.5l-13 -1l-2 25l13 1q4 1 69 5v138q-41 -3 -44 -3h-1l-12 -1
l-2 25l12 1q3 1 47 4v106h26v-105q49 3 109 5v100h26v-100q35 1 67 0l13 -1l-2 -26l-12 1q-31 1 -66 1v-138z" />
    <glyph glyph-name="uni4F9D" unicode="&#x4f9d;" 
d="M60 191l-7 -10l-21 14l7 11q30 42 53.5 87.5t37 77.5t14.5 34l5 12l24 -9l-5 -12q-1 -3 -12.5 -29.5t-30.5 -65.5v-331h-26v283q-18 -32 -39 -62zM145 128q52 35 86.5 80t53.5 80.5t21 43.5q-53 -3 -87 -5.5t-36 -2.5l-13 -1l-2 25l13 1q3 1 55 4.5t124.5 6t137.5 0.5
l13 -1l-2 -25h-12q-78 3 -163 -1l-4 -10q-1 -4 -18.5 -39.5t-52.5 -82.5l-1 -11q-5 -47 -1 -97.5t22 -62.5q16 -6 49 29l9 9l19 -17l-9 -10q-36 -38 -63 -37q-8 0 -16 3q-29 18 -35 69t-3 91q-30 -33 -71 -61l-10 -7l-14 22zM507 48l10 -9l-17 -19l-10 8q-41 36 -77.5 82.5
t-60 82.5t-25.5 41l-7 11l22 13l7 -11q0 -1 9.5 -16t25.5 -39q21 13 39 28t29 26l12 12l9 9l18 -18l-9 -9q-1 -2 -13 -13t-30.5 -26.5t-39.5 -29.5q47 -68 108 -123zM291 432l12 -4q1 -1 9.5 -4t20.5 -8.5t24 -11.5l11 -6l-12 -23l-11 6q-11 6 -22.5 11t-19.5 8.5t-9 3.5
l-12 4z" />
    <glyph glyph-name="uni4FA0" unicode="&#x4fa0;" 
d="M60 169l-22 14l7 11q56 93 81.5 158t25.5 68l4 12l24 -7l-3 -12q-1 -8 -38 -97v-346h-26v293q-20 -39 -47 -83zM262 226q-26 17 -43.5 32.5t-18.5 17.5l-9 9l18 18l9 -9q0 -1 8 -8t20.5 -17.5t28.5 -20.5l11 -7l-13 -21zM462 293l8 10l19 -17l-8 -9q-1 -2 -18.5 -18.5
t-49.5 -33.5l-11 -6l-12 23l11 6q29 15 44.5 29.5t16.5 15.5zM496 -26l-11 6q-37 22 -65 48.5t-44 46.5t-18 22l-7 11l21 14l7 -10q1 -1 16 -20t41.5 -44t61.5 -46l11 -6zM512 183l-1 -25h-13q-82 3 -169 -2q-34 -113 -92 -182l-8 -10l-20 17l8 10q58 72 85 164
q-48 -3 -78.5 -5t-31.5 -3l-13 -1l-2 26l12 1q2 0 35.5 2.5t84.5 5.5q23 87 29 155q-53 -3 -89 -5.5t-38 -3.5l-13 -1l-3 26l13 1q2 0 39.5 3t92.5 5q4 54 3 57v13h26v-13q1 -4 -3 -56q53 2 102 0h13l-1 -26h-13q-50 2 -103 1q-4 -37 -12 -82q-7 -38 -16 -73q84 4 163 2z
" />
    <glyph glyph-name="uni4FA3" unicode="&#x4fa3;" 
d="M74 179l-6 -11l-22 13l7 11q56 93 81.5 158t25.5 68l4 13l24 -8l-3 -12q-1 -8 -38 -97v-342h-26v289q-20 -39 -47 -82zM226 343h26v-76q19 1 66 2.5t85 -0.5h12l-1 -26l-13 1q-23 1 -54.5 0.5t-58 -1.5t-36.5 -2v-20h-26v122zM453 230l3 13q6 30 8.5 67t2.5 54
q-3 42 -242 17l-13 -2l-2 26l13 1q139 15 198 8q23 -2 45 -12t27 -35v-2q0 -18 -2.5 -56.5t-9.5 -71.5l-3 -12zM183 177l12 2q160 17 232.5 7t76.5 -49v-2q0 -19 -3 -61.5t-10 -77.5l-3 -13l-25 5l3 13q7 33 9.5 73.5t2.5 59.5q-9 47 -280 19l-13 -1zM407 -1l-13 1
q-45 3 -161 -3v-18h-25v131h25v-87q116 6 162 3l13 -1z" />
    <glyph glyph-name="uni4FA5" unicode="&#x4fa5;" 
d="M59 178l-6 -11l-22 14l7 11q56 93 81.5 157.5t25.5 68.5l4 12l24 -7l-3 -12q-1 -9 -38 -97v-343h-26v290q-20 -39 -47 -83zM178 322l-6 25l13 3q1 1 27.5 7t68.5 14q-9 22 -14.5 35.5t-5.5 14.5l-5 12l24 9l5 -12q0 -1 6 -15.5t16 -38.5q80 17 159 26l12 1l3 -25l-13 -2
q-73 -8 -150 -23q9 -19 19 -38q9 -17 18 -31q37 22 60 38t24 17l10 8l15 -20l-10 -8q-2 -2 -25.5 -18t-59.5 -38q39 -58 65 -58h1q15 2 26.5 19.5t17.5 38.5l4 12l25 -9l-5 -12q-25 -73 -68 -74v0h-1q-41 0 -88 70q-66 -39 -141 -58l-12 -3l-6 25l13 3q69 18 132 55
q-8 14 -17 31q-13 23 -23 44q-44 -9 -72 -15t-29 -7zM509 65q10 -45 -11 -69q-19 -21 -59 -21q-9 0 -20 1q-62 5 -62 82q0 12 0.5 29.5t1 30t0.5 14.5v5q-30 -1 -57 -3l-2 -6q0 -3 -10 -30t-29.5 -61.5t-50.5 -58.5l-10 -8l-15 20l10 8q24 20 41 48.5t26.5 53t12.5 33.5
q-39 -3 -63.5 -5t-25.5 -2l-13 -1l-2 26l13 1q3 0 53.5 3.5t121 6.5t135.5 0h13l-1 -26l-13 1q-51 2 -108 0l-1 -6v0v-14.5t-0.5 -29.5t-0.5 -29q0 -36 11.5 -46t27.5 -10q43 -5 57 11q12 14 5 46l-3 13l25 6z" />
    <glyph glyph-name="uni4FA6" unicode="&#x4fa6;" 
d="M145 -23h-26v289q-20 -39 -47 -82l-6 -11l-22 13l7 11q56 93 81.5 158t25.5 69l4 12l24 -7l-3 -13q-1 -8 -38 -97v-342zM231 241v-159h-25v159h25zM240 -28l-9 -10l-18 18l8 9q39 43 65 92t39 85t14 38l3 13l25 -8l-4 -12q-1 -4 -15 -41.5t-41 -88t-67 -95.5zM482 -27
q-53 31 -88.5 61t-38.5 34l-9 9l17 18l10 -9q0 -1 16.5 -15.5t44 -35.5t60.5 -40l11 -6l-12 -22zM323 433h26v-58q6 1 30 3t55 3.5t57 -0.5l13 -1l-2 -26l-13 2q-26 2 -57.5 0t-55 -4t-25.5 -3h-2v-54q41 2 74.5 -2.5t50.5 -18.5q13 -11 12 -27q-1 -34 -3.5 -68.5t-4 -58
t-2.5 -25.5l-1 -12l-25 2l1 12q0 2 2 25.5t4 58t4 67.5q0 2 -1 3.5t-3 3.5q-27 18 -107.5 14.5t-148.5 -15.5l-12 -2l-5 26l13 2q10 2 45.5 6.5t80.5 7.5v139z" />
    <glyph glyph-name="uni4FA7" unicode="&#x4fa7;" 
d="M64 178l-7 -12l-22 13l6 11q30 55 54 107t38.5 87t14.5 37l5 12l24 -10l-5 -12l-7 -17l11 2q9 2 45 7t76 4.5t62 -14.5q12 -9 13 -23q2 -19 2 -57.5t-0.5 -80t-1 -72t-0.5 -35.5v-12h-26l1 13q0 2 0.5 32t1 72t0 80.5t-1.5 57.5q0 1 -1 2l-3 3q-9 7 -49.5 9t-112.5 -11
l-13 -2l-4 22q-11 -26 -31 -73v-351h-26v296q-20 -42 -43 -85zM209 -33l-23 12l6 11q38 78 54 149.5t19 117.5t2 48l-1 13l26 1v-13q1 -5 -1.5 -52.5t-19 -120.5t-57.5 -155zM307 82q1 -1 8.5 -13t19.5 -28.5t26 -30.5l9 -9l-18 -18l-9 9q-15 15 -28 32.5t-21 30t-9 14.5
l-6 11l22 13zM212 347v-237h-25v237h25zM429 368v-244h-26v244h26zM463 1q1 0 3 2.5t5.5 9.5t6.5 21t6 37t4 57.5t0 82.5q-1 78 -5.5 138t-5.5 66v0l-1 13l26 2l1 -13q0 -4 4.5 -64.5t6.5 -141.5q1 -94 -5 -143.5t-16 -68.5t-21 -22q-5 -2 -10 -2q-19 0 -40 27l-8 10l20 16
l8 -11q9 -11 14 -14t7 -2z" />
    <glyph glyph-name="uni4FA8" unicode="&#x4fa8;" 
d="M58 178l-7 -11l-22 12l6 12q30 54 54 106.5t38.5 87t14.5 36.5l5 12l24 -9l-5 -12q0 -1 -10.5 -26.5t-28.5 -66.5v-348h-26v293q-20 -43 -43 -86zM508 169l12 -7l-13 -22l-11 6q-63 37 -101 75t-40 43l-5 6q-24 -1 -45 -2q-32 -65 -116 -139l-10 -8l-17 20l10 8
q72 61 102 117q-37 -2 -60.5 -3.5t-24.5 -1.5l-13 -1l-2 25l13 1q1 0 29 2.5t72 4.5q27 66 27 87q-43 -5 -84 -7l-13 -1l-1 25l13 1q45 3 91.5 8.5t78 10.5t33.5 5l13 2l4 -25l-13 -2q-1 -1 -28 -4.5t-68 -9.5q0 -6 -4.5 -29.5t-19.5 -59.5q85 5 163 2l13 -1l-2 -25h-12
q-45 2 -97 1q14 -16 47 -46t79 -56zM216 -12l7 10q19 32 27 68.5t9.5 64t1.5 28.5v12h26v-12q0 -4 -2 -33t-11 -68t-29 -73l-7 -11zM392 -23v194h26v-194h-26z" />
    <glyph glyph-name="uni4FA9" unicode="&#x4fa9;" 
d="M63 182l-7 -10l-21 15l8 11q34 47 59.5 98t40 87.5t15.5 38.5l4 12l24 -9l-4 -12q-1 -3 -13 -33.5t-34 -75.5v-336h-25v287q-21 -38 -47 -73zM328 445l23 -12l-6 -12q-1 -3 -19 -31.5t-53.5 -69t-88.5 -78.5l-11 -7l-14 21l10 8q51 35 84.5 74t51 66t17.5 29zM505 270
l10 -7l-14 -21l-11 7q-34 25 -64.5 52t-50 46t-21.5 21l-9 9l18 18l9 -9l20 -20t49.5 -45.5t63.5 -50.5zM248 253q4 0 35 2.5t72 4.5t75 0h13l-2 -26l-13 1q-32 1 -72.5 -0.5t-71 -4t-33.5 -3.5h-1l-12 -1l-3 25zM190 151q6 1 55.5 5t116 7t121.5 0h12l-1 -26l-13 1
q-54 3 -120.5 -0.5t-116 -7.5t-52.5 -4l-13 -2l-2 26zM306 101q-22 -18 -35.5 -32t-20 -23.5t-9 -15.5t-2.5 -9v-3q1 -2 5 -4.5t15 -5t32.5 -2t55.5 5t85 15.5q-17 23 -28 38t-13 18h-1l-7 11l21 15l7 -11v0q2 -3 22 -30t48 -64l8 -11l-20 -15l-8 10q-7 8 -13 17l-11 -3
q-97 -21 -151 -21q-58 0 -70 25q-19 37 74 115l10 8l16 -20z" />
    <glyph glyph-name="uni4FAE" unicode="&#x4fae;" 
d="M35 177l7 11q13 21 30 58t33.5 76t27.5 66t12 29l4 11l24 -9l-5 -12q-1 -4 -12 -30.5t-27 -64.5h3v-340h-26v287q-24 -53 -42 -85l-7 -11zM352 206q-10 8 -20 18.5t-17 19t-8 9.5l-8 10l20 16l8 -10q0 -1 6.5 -8.5t16 -17.5t18.5 -17l10 -8l-16 -20zM319 151q1 -1 8 -7.5
t18 -15.5t24 -17l11 -7l-14 -22l-11 7q-14 9 -26 19t-19.5 17t-8.5 8l-9 9l19 18zM441 73q7 46 8 95q-53 0 -111.5 -1.5t-103.5 -2.5q-2 -30 0 -54t11 -36q6 -6 16 -7q27 -1 79 0.5t101 5.5zM514 192l-1 -25h-13q-12 0 -25 1q-1 -17 -2 -35q-2 -32 -6 -59q10 1 17 2l13 1
l2 -26l-13 -1q-10 -1 -24 -2q-13 -59 -38 -74q-7 -5 -18 -5q-18 0 -44 24l-9 9l19 18l9 -10q19 -20 30 -14q16 11 25 51q-38 -3 -79 -4.5t-71 -1.5h-27q-21 2 -33 17q-24 30 -17 105q-27 -1 -31 -1v0h-13l-1 25l13 1q1 0 33 1q2 13 3 28l1 13l26 -3l-2 -12q-1 -13 -2 -25
q45 1 103 2.5t111 1.5q0 62 -4 79l-0.5 1t-2.5 2l-5 2.5t-9 3t-14.5 3t-20 2t-27.5 1t-36 -0.5q-45 -3 -79.5 -7t-37.5 -5v0l-13 -2l-2 18q-4 -4 -7 -8l-9 -9l-19 17l9 10q21 23 38 52t28 50.5t11 23.5l5 12l24 -11l-5 -11q-2 -4 -17 -35q37 2 109.5 3.5t126.5 0.5l13 -1
l-1 -25h-13q-42 1 -99.5 0t-101.5 -2.5t-48 -1.5q-16 -29 -37 -56h4q3 1 38 5t81 7q132 7 141 -32q3 -7 4 -30.5t1 -56.5h26z" />
    <glyph glyph-name="uni4FAF" unicode="&#x4faf;" 
d="M62 178l-7 -10l-21 14l7 11q30 42 54 93.5t39 90t15 40.5l5 12l24 -8l-4 -12q-1 -4 -12 -32.5t-28 -69.5v-335h-25v285q-22 -43 -47 -79zM320 135q14 33 17.5 54.5t3.5 22.5v2q-40 -1 -69 -2t-33 -1v0l-5 -1q-18 -23 -42 -44l-10 -9l-17 20l10 8q21 19 37 39.5t25.5 35.5
t9.5 16l6 11l23 -13l-6 -11q-2 -3 -17 -26q35 1 102.5 2.5t117.5 0.5l13 -1l-1 -25h-13q-45 2 -105 0l-1 -3q1 -3 -2.5 -23.5t-14.5 -51.5q86 2 147 0l13 -1l-1 -25h-13q-66 2 -158 0q-17 -34 -48.5 -69.5t-83.5 -64.5l-11 -7l-13 23l12 6q84 51 114 111q-49 -1 -82 -2
t-35 -1l-13 -1l-1 26h13h1q5 0 42 1.5t88 2.5zM503 3l13 -5l-9 -24l-12 4q-64 25 -100 46t-38 24l-10 8l15 20l11 -7q1 -2 35.5 -22.5t94.5 -43.5zM193 293h-12l-2 25l12 1q5 0 42 2.5t89.5 5t105.5 2.5q2 8 5 21t3 25q0 2 -0.5 3l-1.5 3q-15 11 -56.5 12t-86 -2.5
t-69.5 -6.5l-12 -1l-3 25l13 2q203 23 231 -10q11 -10 11 -25q0 -12 -2.5 -24t-4.5 -22q23 0 43 -1l12 -1l-1 -25h-13q-53 3 -122.5 1t-123 -5.5t-57.5 -4.5z" />
    <glyph glyph-name="uni4FB5" unicode="&#x4fb5;" 
d="M203 384l-3 25l13 2q222 26 249 -8q11 -10 11 -25q0 -8 -0.5 -29t-2.5 -46t-6 -44l-2 -12l-25 5l2 10h-8q-22 2 -57 1t-71.5 -2.5t-61.5 -3.5t-27 -2l-12 -1l-2 26l13 1q5 0 47 2.5t92 4.5t81 0l9 -1q3 20 4 41q-42 3 -90 1.5t-83 -3.5t-37 -2l-13 -1l-2 25l13 1
q4 0 39.5 2.5t83.5 3.5t90 -1q1 16 1 24q0 4 -4 6q-15 12 -57.5 13t-90.5 -3.5t-81 -8.5zM199 231l1 -13q0 -1 -0.5 -18t-4.5 -43l-3 -12l-25 5l3 12q4 24 4 39v15l-1 13zM494 215q11 -10 11.5 -24t-3 -25.5t-4.5 -14.5l-6 -12l-23 11l5 11q4 9 5.5 20t-1.5 15
q-32 19 -240 -3l-13 -2l-3 25l12 2q2 0 35 3.5t79 6.5q53 3 83.5 1.5t44 -5.5t18.5 -9zM204 -29l-8 24l13 4v0q2 1 29 10t65 26q5 2 10 5q-70 41 -72 47l-9 9l17 19l9 -9q1 -3 57 -37q11 -7 26 -15q62 35 79 68q2 4 2.5 6.5t0 3.5t-0.5 2q-26 25 -190 -3l-13 -2l-5 25l13 2
q2 1 28.5 5.5t63.5 7.5q45 4 70 1t37 -8.5t16 -12.5q5 -5 6.5 -15t-5.5 -24q-23 -39 -74 -69q48 -22 120 -42l12 -3l-6 -25l-13 4q-86 24 -140 51q-46 -24 -83.5 -37t-42.5 -14zM157 419l5 12l24 -10l-5 -12q-2 -4 -15.5 -34.5t-32.5 -71.5v-333h-25v280q-20 -41 -35 -66
l-7 -11l-22 13l7 11q13 22 30.5 58t35 73.5t29 63t11.5 27.5z" />
    <glyph glyph-name="uni4FBF" unicode="&#x4fbf;" 
d="M306 162q8 26 14 51q-31 -1 -56.5 -3t-37.5 -3v-49q26 2 80 4zM517 410l-2 -26l-12 1q-63 3 -142 0v-5q1 -6 0 -52q74 1 109 -23q13 -12 14 -29q0 -4 -1.5 -47t-10.5 -103l-2 -12l-25 4l2 13q9 57 10 99.5t1 45.5q0 2 -1 4.5t-4 4.5q-25 18 -93 17q-2 -28 -8 -62
q32 0 54 -2l13 -2l-3 -25l-12 2q-24 2 -57 1q-6 -25 -14 -51q46 2 81 -1l13 -1l-2 -26l-13 2q-37 2 -87 0q-14 -38 -35 -75q79 -34 182 -63l13 -3l-7 -25l-12 3q-108 31 -189 66q-21 -32 -48 -62l-9 -9l-19 17l9 10q24 26 43 54q-47 21 -50 22l-12 6l12 23l11 -6
q3 -1 52 -23q18 32 30 64q-48 -2 -70 -4v-14h-26v142h26v-27q14 1 41 3t58 3q6 35 9 63q-72 -3 -131 -13l-13 -2l-4 25l13 2q10 2 49 7t87 7q2 47 1 50l-1 6q-63 -3 -107 -6t-47 -3l-13 -1l-2 25l13 1q7 1 63 5t129.5 6t132.5 -1h13zM175 420l-5 -12q-2 -4 -15.5 -34
t-32.5 -71v-334h-25v280q-20 -41 -35 -66l-7 -11l-22 13l7 11q13 22 30.5 58t35 73.5t29 63.5t11.5 27l5 12z" />
    <glyph glyph-name="uni4FC3" unicode="&#x4fc3;" 
d="M62 179l-7 -11l-22 13l6 11q29 50 53.5 101.5t40 87.5t15.5 38l5 12l24 -10l-5 -12v0q-1 -2 -12 -28.5t-30 -66.5v-344h-25v291q-21 -42 -43 -82zM166 -10l7 11q28 40 42.5 79t20 64.5t5.5 26.5l1 13l26 -3l-2 -13q0 -3 -6 -30t-21.5 -68t-44.5 -84l-7 -11zM360 32
q59 -11 143 -15h13l-1 -26h-13q-104 6 -167.5 19t-67.5 16l-12 3l7 25l12 -4q3 -1 61 -14v208q-28 -1 -53 -2t-39 -1v-12h-25v124h25v-87q28 2 78 3t82 0l13 -1l-2 -26l-13 1q-16 1 -41 1v-83h3q2 1 21 2t45 2t50 0h13l-1 -26l-13 1q-23 1 -49 0t-44.5 -2.5t-19.5 -1.5
l-5 -1v-103zM202 404l12 1q202 25 247 -10q7 -6 10 -12t3 -11v-1q0 -9 -0.5 -31.5t-2.5 -49.5t-6 -47l-2 -13l-25 5l2 13q5 28 7 66.5t2 55.5q-1 0 -1.5 1.5t-2.5 3.5q-5 4 -26 9.5t-68.5 5.5t-133.5 -10l-12 -2z" />
    <glyph glyph-name="uni4FC4" unicode="&#x4fc4;" 
d="M311 423l12 4l8 -24l-12 -4q-1 0 -20.5 -6.5t-50.5 -15t-65 -16.5l-12 -3l-6 25l13 3q33 8 63 16.5t49.5 14.5t20.5 6zM505 281q-50 3 -115 1q4 -71 17 -143q65 72 66 78l8 10l21 -14l-8 -11q-3 -9 -81 -94q9 -38 22 -68q15 -33 23 -30q9 1 19 17.5t17 36.5l4 12l24 -8
l-4 -12q-2 -7 -9.5 -23.5t-19.5 -31.5t-30 -17h-1q-14 0 -23.5 9t-15 19.5t-8.5 16.5q-11 27 -19 59q-26 -25 -58 -51l-9 -8l-17 20l10 8q38 31 67 60q-16 83 -21 164q-48 -1 -92 -3q3 -40 4 -88q25 9 50 17l12 3l8 -24l-13 -4q-28 -9 -57 -19q1 -42 -1 -77q-5 -86 -41 -97
q-5 -2 -11 -2q-26 0 -56 37l-8 9l20 17l8 -10q29 -33 39 -27q17 2 23 74q2 31 2 67q-31 -11 -50.5 -18.5t-20.5 -7.5l-12 -5l-9 24l12 4q1 1 23.5 9.5t55.5 20.5q-1 52 -3 95q-35 -2 -56 -3.5t-22 -1.5l-13 -1l-1 26l12 1q9 0 78 5q-2 38 -2 42v0l-1 13l25 2l1 -13
q1 -3 3 -43q43 3 92 4q-2 51 -2 84t1 38v13l26 -1l-1 -13v-35t2 -85q66 1 118 -1l13 -1l-2 -26zM438 426l8 -10q1 -2 44 -58l8 -10l-20 -15l-8 10q-43 55 -44 57l-8 10zM57 171l-7 -11l-22 13l7 11q13 22 30.5 58t35 73t29 63t11.5 28l5 12l24 -11l-5 -11q-2 -4 -15 -33
t-31 -69h2v-333h-26v283q-22 -46 -38 -73z" />
    <glyph glyph-name="uni4FCA" unicode="&#x4fca;" 
d="M151 421l4 13l25 -8l-4 -12q0 -1 -9.5 -27.5t-27.5 -69.5v-348h-26v291q-19 -40 -44 -84l-7 -11l-22 13l6 11q42 73 68 133q18 44 27.5 71t9.5 28zM262 263l10 8l16 -19l-9 -9q-3 -6 -81 -53l-11 -7l-13 23l11 6q37 21 57 35.5t20 15.5zM497 222l12 -5l-10 -24l-11 5
q-23 9 -42 20t-31 19t-13 9l-11 8l15 20l11 -7q0 -1 11.5 -8.5t30 -18t38.5 -18.5zM257 346q-9 -10 -14 -15.5t-6 -8.5t-1 -4t3 -2t10 -2.5t19.5 -2t31.5 0.5q97 6 133 12q-15 15 -25.5 24.5t-10.5 10.5l-10 9l18 18l9 -8q1 -1 12 -11.5t28 -26.5t33 -32l9 -9l-18 -18l-9 9
l-12 12l-5 -1q-10 -4 -151 -14q-12 -1 -23 -1q-62 0 -67 23q-7 17 16.5 43t88.5 73l10 7l15 -20l-10 -8q-51 -37 -74 -58zM316 204l-8 -10q-6 -10 -13 -19q21 3 52 5q79 6 91 -20q11 -20 -14 -47q-29 -30 -64 -54q49 -30 130 -62l12 -4l-9 -24l-12 4q-93 37 -144 69
q-49 -31 -86.5 -49t-42.5 -19l-12 -5l-10 23l12 5q2 1 35.5 17t79.5 44q-36 24 -38 27l-9 8l16 20l10 -9q1 -2 44 -31q38 26 69 58q4 4 6.5 7.5t3.5 5.5t1 3v1l-0.5 0.5t-2.5 1.5t-5 2t-8 2t-12 1.5t-16.5 0.5t-22.5 -1q-27 -2 -46.5 -5t-20.5 -3l-8 -2q-25 -31 -59 -59
l-10 -9l-16 20l9 8q27 22 45.5 44t43.5 59l8 11z" />
    <glyph glyph-name="uni4FCF" unicode="&#x4fcf;" 
d="M62 176l-6 -11l-22 14l7 10q55 94 79.5 160t23.5 70l4 12l24 -6l-3 -12q0 -11 -42 -114h4v-330h-25v284q-19 -37 -44 -77zM268 335q-14 7 -30 18t-28 20t-14 11l-10 8l16 20l10 -8v0q1 -1 13 -10t27 -19.5t28 -16.5l11 -6l-11 -23zM495 425l20 -17l-9 -10
q-1 -1 -12.5 -14t-27.5 -30t-31 -30l-10 -9l-17 20l10 8q14 12 29.5 28.5t27 29.5t12.5 14v0zM470 274q16 -12 17 -29q5 -38 6.5 -95.5t-6.5 -108t-34 -66.5q-8 -4 -17 -4q-19 0 -41 19l-10 8l16 20l10 -9q7 -6 15 -10t15 -1q21 15 25.5 86.5t-4.5 157.5q0 3 -1.5 6t-5.5 6
q-9 10 -62 14.5t-184 -14.5l-13 -2l-4 25l13 2q75 12 129 15v145h26v-144q82 2 110 -21zM209 222h26v-30q21 2 73.5 5t98.5 1l12 -1l-2 -26l-12 1q-30 2 -65.5 1t-65 -3.5t-39.5 -3.5v-63q21 2 73.5 5.5t98.5 0.5l12 -1l-2 -25l-12 1q-30 2 -65.5 0.5t-65 -4t-39.5 -3.5
v-108h-26v253z" />
    <glyph glyph-name="uni4FD0" unicode="&#x4fd0;" 
d="M137 -25h-26v276q-17 -33 -40 -69l-6 -11l-22 13l7 11q39 64 61 117q21 48 30 77.5t9 31.5l3 12l24 -6l-2 -12q0 -10 -38 -109v-331zM392 94v269h25v-269h-25zM444 -32q-22 0 -47 31l-8 10l20 16l8 -10q22 -25 29 -21q2 1 6 5t8.5 16t9 35t7.5 60.5t4 93.5q0 79 -3 138.5
t-4 63.5l-1 12l26 2l1 -12q0 -4 3 -64t3 -140q-1 -91 -9 -146q-12 -77 -41 -87q-6 -3 -12 -3zM285 -20h-25v234q-21 -66 -64 -144l-6 -11l-23 13l7 11q60 114 76 186q-25 -2 -42 -3t-18 -2l-13 -1l-2 26l12 1q3 0 23.5 2t49.5 3v80q-23 -4 -50 -8l-13 -2l-3 26l12 1
q54 8 88 16t35 8l12 4l7 -25l-12 -3q-4 -2 -51 -12v-83q33 1 59 0h13l-1 -26l-13 1q-26 0 -58 -1v-38l18 10l6 -11q1 -1 12.5 -18.5t31.5 -42.5l8 -10l-19 -16l-9 9q-21 27 -33 45t-13 20l-2 3v-242z" />
    <glyph glyph-name="uni4FD7" unicode="&#x4fd7;" 
d="M64 179l-6 -10l-22 13l7 11q56 93 81.5 158t25.5 68l4 13l24 -8l-3 -12q-1 -8 -38 -97v-342h-26v289q-20 -39 -47 -83zM188 287l-15 20l11 8q24 18 43.5 37t31.5 32t13 14l8 10l20 -16l-8 -10q-3 -3 -29 -30.5t-64 -57.5zM413 395q0 -1 22.5 -25t65.5 -55l11 -7l-15 -21
l-10 7q-46 33 -70 58t-25 28l-8 10l21 15zM199 160l-11 -7l-13 22l10 7q53 33 84 67.5t45 58t14 25.5l4 12l24 -10l-5 -12q0 -3 -15 -28.5t-48.5 -62.5t-88.5 -72zM500 157l-10 7q-53 36 -85.5 66.5t-35.5 33.5l-8 10l18 17l9 -9q1 -2 33 -32t83 -65l10 -7zM228 105h26v-89
q23 2 66.5 4t79.5 -1l13 -1l-2 -25l-13 1q-36 3 -79.5 0.5t-64.5 -4.5v-12h-26v127zM428 -22l2 12q7 50 8 87t1 39t-0.5 3.5t-3.5 4.5q-24 15 -88 13t-118 -11l-12 -2l-4 25l12 2q12 3 57.5 8t95 3.5t74.5 -19.5q12 -11 13 -27q0 -3 -1 -40.5t-9 -89.5l-2 -12z" />
    <glyph glyph-name="uni4FD8" unicode="&#x4fd8;" 
d="M151 420l4 12l24 -9l-4 -12q0 -1 -10.5 -27t-28.5 -67v-347h-26v292q-17 -34 -36 -70l-7 -12l-22 13l6 11q45 83 72 147.5t28 68.5zM197 390l13 1q107 7 178.5 20t75.5 14l12 3l6 -25l-13 -3q-3 -1 -76 -14t-182 -21h-13zM231 355l5 -11v0q0 -1 3 -8t8.5 -17t12.5 -20
l8 -11l-21 -14l-8 10q-12 18 -19 33.5t-8 16.5l-4 12zM332 369l5 -12l3 -8.5t8.5 -20t11.5 -23.5l6 -11l-23 -12l-6 11q-6 12 -11.5 24.5t-9 21t-3.5 9.5l-5 12zM451 355l6 11l23 -12l-6 -11q0 -1 -5.5 -11t-14 -24t-18.5 -29l-8 -10l-21 15l8 10q9 13 17 27t13.5 23.5
t5.5 10.5v0zM164 131l13 1q2 0 44 3t104 6q-9 32 -10 33l-6 12l23 11l6 -12q0 -1 2 -7q35 16 55 30q9 7 12 11t2 5q1 1 -3 3t-13 4q-32 6 -66 4t-58 -6t-25 -4l-13 -3l-5 25l12 3q3 1 28.5 5t61 5.5t70.5 -3.5q20 -5 28 -13t8 -15q3 -7 -2 -18t-22 -24q-23 -16 -62 -33
q2 -5 3 -12q73 3 141 1l13 -1l-1 -25h-13q-65 3 -136 0q4 -25 4 -56q-1 -74 -33 -86q-5 -2 -12 -2q-9 0 -22 6.5t-29 23.5l-9 9l19 18l9 -10q27 -26 35 -21q1 0 3.5 2.5t5.5 8.5t5 18.5t2 32.5q0 31 -3 55q-63 -3 -105.5 -6t-45.5 -4l-13 -1z" />
    <glyph glyph-name="uni4FDD" unicode="&#x4fdd;" 
d="M138 421l4 12l25 -8l-4 -12q-1 -3 -12 -35t-28 -78v-332h-26v276q-14 -31 -30 -61l-7 -11l-22 12l6 12q27 49 48 100t33.5 87t12.5 38zM160 182l13 1q5 0 47.5 2t102.5 4v58h25v-58q87 2 151 -1l12 -1l-1 -26l-13 1q-62 4 -149 2v-196h-25v175q-17 -25 -51 -66t-76 -74
l-10 -8l-15 21l10 8q42 32 76 74t48 64q-54 -1 -91.5 -3t-39.5 -2h-13zM406 109q1 -2 26.5 -25t68.5 -50l11 -7l-14 -22l-11 7q-44 29 -71 53t-28 26l-9 10l18 17zM231 248h-26v111h26v-76q30 1 83 2.5t86 -0.5l12 -1l-1 -25h-13q-32 2 -85 1t-82 -2v-10zM193 404l13 1
q145 14 208.5 7t65.5 -38v-2q1 -16 -2 -52t-8 -64l-3 -13l-25 6l3 13q5 25 7.5 59.5t2.5 49.5q0 1 -2.5 3.5t-8 5t-16.5 4.5t-29 4q-60 4 -191 -8l-13 -2z" />
    <glyph glyph-name="uni4FDE" unicode="&#x4fde;" 
d="M94 186h26v-14q16 1 43.5 3t46.5 1h13l-1 -26l-13 1q-19 0 -46.5 -1.5t-42.5 -3.5v-47q16 1 43.5 3t47.5 1h13l-1 -26h-13q-20 1 -47.5 -1t-42.5 -3v-102h-26v215zM361 227v-159h-26v159h26zM408 -26q-18 0 -39 17l-10 8l17 20l9 -8q7 -6 14.5 -9.5t13.5 -0.5q3 1 9 10.5
t11 36t6 76.5q0 45 -2.5 78t-2.5 35l-1 13l25 3l2 -13q0 -3 2.5 -36.5t2.5 -79.5q-1 -46 -6 -74.5t-11.5 -43.5t-13 -20.5t-9.5 -7.5q-8 -4 -17 -4zM379 290l-13 1q-31 2 -73 1t-74.5 -2.5t-34.5 -1.5l-13 -1l-1 25l12 1q5 1 37.5 2.5t74.5 2.5t74 -2l13 -1zM68 273l-12 -6
l-10 24l12 5q93 43 149.5 87t58.5 48l9 9l18 -19l-9 -9q-4 -6 -62 -50.5t-154 -88.5zM493 275l-11 5q-65 30 -111.5 56.5t-49.5 28.5l-11 6l14 22l11 -6q2 -2 48 -28t109 -56l12 -5zM224 -28q-12 0 -30 14l-9 9l17 19l9 -9q10 -8 15 -7q12 7 18.5 65.5t-2.5 149.5
q0 2 -1 3.5t-3 3.5q-20 11 -66 8.5t-82 -10.5l-13 -3l-5 25l12 3q8 2 41 7t70 4.5t58 -13.5q13 -10 15 -25l3 -51t1 -74q-2 -44 -7.5 -68t-13 -34.5t-14.5 -13.5q-5 -3 -13 -3z" />
    <glyph glyph-name="uni4FE1" unicode="&#x4fe1;" 
d="M68 194l-7 -11l-22 13l6 11q30 51 51.5 96.5t50.5 118.5l5 12l24 -10l-5 -11q-25 -62 -43 -103v-338h-26v285q-15 -29 -34 -63zM293 426l20 16l8 -10q0 -1 9 -10.5t23 -22.5l10 -8l-16 -20l-10 8q-16 14 -26 25t-11 12zM510 372l-1 -26l-13 1q-61 2 -130.5 -0.5t-120 -6
t-54.5 -3.5l-12 -2l-3 26l13 1q3 0 54 3.5t121.5 6.5t133.5 0h12zM202 179l-3 26l13 1q3 0 44 3t99 5.5t112 0.5l12 -1l-1 -25h-12q-53 2 -110.5 0t-98 -5t-43.5 -4zM465 270q-55 2 -110.5 -0.5t-93 -5.5t-39.5 -4l-12 -1l-3 25l13 2q2 0 40 3t94 5.5t112 0.5h13l-2 -26z
M214 81h26v-66q28 1 78.5 2.5t81.5 -0.5l13 -1l-1 -25l-13 1q-31 1 -81 0t-78 -2v-17h-26v108zM201 105l-2 26l12 1q124 12 189 6q25 -2 49 -10t29 -30v-2q0 -15 -2.5 -49.5t-7.5 -61.5l-3 -13l-25 6l3 13q5 24 7 56.5t2 47.5q0 1 -3 4t-11 6t-24 5.5t-42 3.5t-65 -0.5
t-93 -6.5z" />
    <glyph glyph-name="uni4FE9" unicode="&#x4fe9;" 
d="M144 421l5 12l24 -10l-5 -12q-1 -3 -12.5 -32t-27.5 -69v-341h-26v282q-17 -38 -31 -62l-7 -11l-22 14l7 11q13 21 29 56.5t31 72t25 62t10 27.5zM378 389q-34 -1 -66 -3v-4q0 -4 -4 -60q39 2 67 2q4 56 3 60v5zM282 320q4 61 4 62v3q-39 -2 -64 -4t-26 -2l-13 -1l-2 26
l13 1q6 0 58.5 3.5t120.5 5.5t121 0l13 -1l-2 -26l-12 1q-39 2 -89 1v-5q0 -6 -3 -61q34 -2 51.5 -7.5t24.5 -12.5q13 -10 15 -25q1 -6 4.5 -46.5t3 -94t-10 -98.5t-33.5 -60q-7 -4 -16 -4q-16 0 -41 20l-9 9l17 19l10 -9q6 -6 13.5 -10t13.5 -2q21 14 27.5 92t-4.5 181
q0 1 -1 3.5t-5 4.5q-10 11 -62 15q-5 -52 -17.5 -116t-36.5 -123l-5 -12l-23 10l5 12q23 56 34.5 117.5t16.5 112.5q-28 0 -67 -3q-8 -96 -55 -221l-5 -12l-23 10l5 11q43 117 52 210q-39 -3 -89 -10l-13 -1l-3 25l12 2q54 7 95 10zM328 158l-9 9q-6 6 -9.5 10.5t-4.5 4.5
l-8 10l20 16l8 -10v0q1 0 4 -4t8 -9l9 -9zM440 113q-17 17 -27.5 30.5t-11.5 15.5l-8 10l21 15l8 -10v0q0 -2 10.5 -14.5t25.5 -27.5l9 -9l-18 -19zM216 240v-269h-25v269h25z" />
    <glyph glyph-name="uni4FED" unicode="&#x4fed;" 
d="M68 188l-7 -11l-22 13l7 11q31 53 51.5 103t31 83t10.5 35l4 12l24 -7l-3 -12q-1 -3 -8 -27t-22 -61v-358h-25v297q-18 -39 -41 -78zM159 235l11 7q50 40 84 82t51.5 72t17.5 32l5 11l24 -11l-6 -11q-1 -4 -19 -35t-53.5 -75t-88.5 -85l-10 -8zM501 257l10 -8l-15 -20
l-11 8q-34 27 -64 56t-49 50t-21 23l-8 10l19 17l8 -10q1 -1 20 -21.5t48.5 -49.5t62.5 -55zM265 49l-7 11q-15 24 -24.5 48t-14 40t-4.5 18l-3 13l25 5l3 -12q0 -1 4 -16t13 -37.5t23 -45.5l7 -10zM338 68l-6 12q-12 22 -20.5 46.5t-13 42t-5.5 19.5l-2 12l25 6l2 -13
q0 -1 4.5 -17.5t12.5 -39.5t20 -44l6 -11zM451 187l-4 -13q-1 -3 -9 -27.5t-22 -57.5t-34 -62q49 2 93 0l12 -1l-1 -25h-13q-55 2 -116 0t-104.5 -5.5t-45.5 -3.5l-13 -1l-2 25l12 1q3 1 44.5 4t100.5 5l5 7q20 26 35.5 60t24 60t8.5 28l4 13zM256 254q3 1 29.5 2.5t63 3
t70.5 0.5l12 -1l-1 -25h-12q-33 1 -69.5 0t-62.5 -3t-28 -2l-13 -1l-2 25z" />
    <glyph glyph-name="uni4FEE" unicode="&#x4fee;" 
d="M501 227l12 -5l-9 -23l-12 4q-75 31 -120 57q-48 -32 -84.5 -50.5t-40.5 -20.5l-12 -5l-10 24l12 5q2 0 34 16.5t76 45.5q-40 26 -42 28l-10 8l16 20l10 -8q1 -2 49 -32q32 23 60 51q4 4 6.5 7.5t3.5 6l1 2.5v0q0 1 -1.5 2t-5.5 2.5t-12 2.5t-20.5 1t-29.5 -1
q-27 -1 -46.5 -4t-21.5 -3v0l-7 -2q-26 -30 -59 -56l-10 -8l-16 20l10 8q26 21 48 45t36 42t15 19l7 11l21 -15l-7 -11q-2 -3 -20 -25q21 3 48 5q82 5 94 -21q10 -19 -16 -46q-25 -26 -53 -47q41 -23 106 -50zM387 195q-1 -2 -24.5 -19.5t-68.5 -40.5l-12 -6l-11 23l11 6
q43 21 65 37.5t22 18.5l10 8l17 -18zM259 71l11 5q35 17 67.5 38t54 37t22.5 17l10 8l16 -20l-10 -8q-2 -2 -24 -18.5t-55 -38t-70 -38.5l-11 -5zM244 -5l12 4q53 20 100.5 46.5t78.5 46.5t32 22l10 7l15 -20l-10 -8l-34.5 -23t-80 -48t-103.5 -47l-12 -5zM59 180l-22 14
l7 11q12 21 29 55.5t34 70.5t28 61t11 27l6 11l23 -10l-5 -12q-2 -3 -13 -28.5t-27 -61.5v-348h-26v295q-22 -46 -38 -74zM170 77v273h26v-273h-26z" />
    <glyph glyph-name="uni4FEF" unicode="&#x4fef;" 
d="M155 424l-4 -12v0q0 -5 -28 -88h2v-351h-26v283q-12 -33 -27 -71l-5 -12l-24 10l5 12q38 98 58.5 160t20.5 64l3 13zM181 -16l-3 -13l-25 7l3 12q16 63 23 131t8.5 117t1.5 50v13h25v-13q1 -5 -1 -54t-9 -117.5t-23 -132.5zM323 327l-3 -13q0 -2 -7 -24.5t-21 -55.5h7
v-260h-25v223q-12 -22 -27 -43l-8 -10l-21 15l8 11q24 33 39.5 67.5t22.5 58t7 24.5l3 13zM392 112l-22 -14l-7 11l-21 38.5t-10 18.5l-6 11l23 12l6 -12v0q1 -1 9.5 -17.5t20.5 -36.5zM506 227l-13 1h-38q1 -30 1 -63q1 -75 -5 -114t-15.5 -54.5t-18.5 -18.5q-6 -2 -12 -2
q-19 0 -40 23l-9 9l19 17l9 -9q17 -18 22 -14q2 0 5 3.5t6.5 13t6.5 27t5 47t2 72.5q0 32 -2 63q-34 -2 -59 -3.5t-28 -2.5v0l-13 -1l-2 26l13 1q3 0 28 2t60 3q-2 29 -3.5 47t-1.5 20v1l-1 12l25 3l1 -13q0 -1 2 -20t3 -49q22 0 41 -1h13zM375 378q63 2 119 0l13 -1l-1 -26
l-13 1q-64 2 -134 -0.5t-119.5 -6t-53.5 -4.5l-12 -1l-3 26l13 1q3 0 48 3.5t110 6.5q-11 13 -18.5 23t-8.5 12l-7 10l21 14l8 -10q0 -1 4.5 -7.5t12 -16t16.5 -18.5z" />
    <glyph glyph-name="uni4FF1" unicode="&#x4ff1;" 
d="M135 -29h-25v283q-19 -36 -44 -76l-6 -11l-22 13l7 11q55 94 79.5 160t23.5 70l4 12l24 -6l-3 -12q0 -10 -38 -106v-338zM270 74l9 9l18 -18l-8 -9q-2 -2 -16.5 -16t-36.5 -32t-48 -32l-11 -6l-12 22l11 6q24 14 45 31t34.5 30.5zM464 -20q-25 18 -46.5 37t-35 32.5
l-14.5 14.5l-9 10l19 17l8 -9l14 -14t33.5 -31.5t44.5 -35.5l11 -7l-14 -21zM174 88l-13 -1l-2 26l13 1v0q4 0 37 3v240h25v-26q22 2 70.5 4.5t95.5 0.5h13l-1 -26l-13 1q-47 1 -96 -1.5t-69 -4.5v-44q21 2 70 4.5t97 0.5h13l-2 -26l-12 1q-48 1 -97.5 -1.5t-68.5 -4.5v-43
q20 2 70 4.5t98 1.5l12 -1l-1 -25h-12q-49 2 -99 -1t-68 -4v-48q79 5 185 7q6 69 7 137.5t1 108.5v3q0 6 -4 9q-14 11 -52 12.5t-83 -2.5t-80 -8l-12 -1l-3 25l13 2q193 26 234 -8q12 -12 13 -29v-3q0 -40 -1.5 -108.5t-6.5 -137.5q29 0 54 -1h12l-1 -26l-13 1q-28 1 -62 1
q-62 0 -121 -3t-98.5 -6t-41.5 -4z" />
    <glyph glyph-name="uni4FFA" unicode="&#x4ffa;" 
d="M143 -37h-26v288q-20 -42 -43 -85l-7 -11l-22 12l6 11q38 71 66 134l1 2q18 41 29 67.5t11 27.5l5 12l24 -9l-5 -12q0 -2 -10.5 -27.5t-28.5 -65.5v-344zM225 93q29 3 88 5v18v33q-28 -1 -52 -3l-36 -3v-50zM179 255q70 52 101 101q-38 -2 -62 -3.5t-27 -2.5v0l-12 -1
l-3 26l13 1q2 0 32 2t76 5q13 23 18 37.5t5 15.5l3 12l25 -6l-3 -12q0 -5 -18 -46q77 4 148 1h13l-1 -26l-13 1q-79 2 -162 -2q-29 -51 -98 -109q35 6 99 10v37h26v-36q73 3 109 -22q14 -11 14 -28q1 -4 -0.5 -45.5t-10.5 -98.5l-2 -13l-25 4l2 13q8 55 9.5 96t1.5 44
q0 2 -1 4t-4 5q-26 17 -93 15v-45v-13q23 0 42 -2l12 -2l-3 -25l-12 1q-17 2 -39 2v-21q0 -16 -1 -30q28 0 50 -2l13 -1l-2 -26l-13 2q-21 1 -48 1v-22v-22q0 -2 1 -5t4.5 -6t11.5 -6q15 -5 42 -5q18 -1 38 2t31 13q7 7 7 21l-1 12l26 1v-13q1 -24 -14 -39t-39 -19t-49 -4
q-30 0 -49 7q-22 8 -28 20.5t-6 20.5v22v22q-28 -1 -52 -2.5t-36 -3.5v-13h-26v137h26v-22q13 1 37 3t51 3v12v47q-61 -4 -110 -12l-13 -2l-2 11l-5 -4l-15 21zM495 259l10 -6l-13 -22l-11 7q-38 24 -65.5 47t-30.5 26l-9 9l17 19l9 -9q1 -1 14 -12t34 -27t45 -32z" />
    <glyph glyph-name="uni500D" unicode="&#x500d;" 
d="M135 -30h-26v296q-20 -44 -42 -86l-6 -12l-23 13l6 11q27 51 50.5 103t37.5 87.5t15 37.5l4 12l24 -9l-4 -12q-1 -1 -10.5 -25t-25.5 -62v-354zM224 108h26v-97q24 1 67.5 2.5t77.5 -0.5l13 -1l-2 -25l-13 1q-33 2 -76.5 0.5t-66.5 -3.5v-14h-26v137zM436 -26l2 13
q6 29 8.5 68t1.5 56q-4 37 -218 14l-13 -1l-3 25l13 2q127 13 181 6q8 0 22.5 -3.5t27.5 -13t16 -27.5v-1q0 -9 -1 -32t-3 -50.5t-7 -47.5l-2 -13zM510 216l-13 1q-58 4 -129 1.5t-123.5 -6t-56.5 -3.5l-12 -1l-2 25l12 1q4 1 34 3t75 4l-7 6q-27 24 -42.5 41.5t-16.5 19.5
l-8 10l20 16l8 -11q1 0 15.5 -17t40.5 -40l10 -8l-14 -16q40 2 85 3l-11 12l9 9q17 14 29 29t19 25.5l7 10.5l6 11q-51 0 -105 -2t-91.5 -4.5t-39.5 -3.5l-13 -1l-2 26l12 1q5 0 46 3t97 5l-7 9q-7 8 -18.5 18t-17.5 16l-10 8l17 20l10 -9q1 -1 8 -7t15.5 -14.5t14.5 -15.5
l9 -9l-19 -16q73 3 135 -1h12l-1 -26l-13 1q-17 1 -37 1l21 -12l-7 -11q-1 -2 -17 -24.5t-43 -47.5l-2 -1q55 1 100 -2l13 -1z" />
    <glyph glyph-name="uni5012" unicode="&#x5012;" 
d="M179 425l-4 -12l-10.5 -31.5t-25.5 -69.5h3v-325h-26v272q-18 -39 -39 -72l-6 -11l-22 14l7 11q25 40 46.5 90.5t34.5 88.5t13 41l4 12zM380 247l7 -11l-21 -14l-7 10q-6 8 -10 16q-61 -18 -96 -18q-38 0 -49 20q-10 18 -1 41.5t25 45.5t28 35q-25 -2 -41.5 -4t-17.5 -2
l-12 -1l-4 25l13 2q4 0 34 3.5t69 5.5t70 -1l13 -2l-3 -25l-13 1q-33 3 -75 1l2 -3l-8 -9q-28 -29 -45.5 -58t-12.5 -42q1 -1 5.5 -3.5t16 -3.5t33 2t55.5 12q-22 42 -22 45l-5 12l24 10l4 -12q0 -1 11 -23t33 -55zM191 11l-12 -2l-6 25l12 2q3 1 26.5 6t56.5 11v81
q-26 -2 -43.5 -4t-18.5 -2l-13 -2l-3 26l12 1q3 1 21.5 2.5t44.5 3.5v59h25v-57q33 1 59 -1l13 -2l-3 -25l-13 1q-24 3 -56 1v-78q37 6 65 7l13 1l1 -26h-13q-21 -1 -49 -5t-55 -9.5t-45 -9t-19 -4.5zM425 353v-245h-26v245h26zM440 -29q-18 0 -37 20l-9 10l19 17l9 -9
q14 -15 21 -12q1 0 5 4.5t8.5 16.5t8.5 34.5t7 60t4 93.5q0 77 -3 136t-4 62l-1 13l26 2l1 -13q0 -4 3 -63t3 -138q0 -89 -9 -145q-11 -75 -39 -87q-6 -2 -13 -2z" />
    <glyph glyph-name="uni5014" unicode="&#x5014;" 
d="M468 297l3 13q7 25 8 66q-1 7 -7 12q-21 15 -69.5 15.5t-100.5 -5.5t-83 -11l-13 -2l-3 26l12 1q91 15 165.5 17.5t107.5 -21.5q15 -12 16 -30v-1q0 -46 -8 -73l-3 -13zM190 -25l2 12q22 153 26.5 257t4.5 105v13h26v-13l-1 -27q21 2 72.5 5.5t108.5 0.5l13 -1l-2 -25
l-13 1q-58 2 -111.5 -1.5t-67.5 -5.5q-2 -106 -30 -312l-2 -13zM504 -22h-25v27q-49 -6 -84 -8h-9q-11 -1 -24 -1q-20 0 -47 1t-40 16q-11 13 -12 30.5t2 39.5q1 11 1 23l1 13l25 -2v-12q-1 -13 -2 -24q-1 -17 -1 -30.5t5 -20.5q6 -6 22 -7q31 -1 53 -1v121v0h-3
q-21 0 -46 2q-23 1 -34 14q-9 11 -10 26.5t1 33.5q1 9 1 19l1 12l25 -1v-13q-1 -10 -2 -19q-1 -13 -1 -24.5t4 -16.5t17 -6q26 -2 47 -2v109h26v-108q26 2 61 8l9 1v72h26v-115h-26v17l-5 -1q-36 -5 -65 -7v-121q35 2 84 7v84h25v-136zM141 -25h-26v288q-20 -43 -41 -84
l-6 -11l-23 12l6 11q28 53 52.5 106.5t39.5 89.5t16 38l5 12l23 -9l-4 -12q-1 -2 -12 -29t-30 -69v-343z" />
    <glyph glyph-name="uni5018" unicode="&#x5018;" 
d="M209 -27v235h25v-235h-25zM495 233q4 -32 4.5 -73t-3.5 -79q-1 -13 -5 -37t-13.5 -46.5t-26.5 -30.5q-6 -2 -12 -2q-23 0 -48 34l-8 10l21 15l8 -10q19 -26 29 -23q14 7 22.5 47t10 92.5t-3.5 99.5q-8 36 -73.5 38.5t-187.5 -15.5l-13 -2l-3 25l12 2q76 11 129 15v140h26
v-138q21 0 39 -1q12 0 32.5 -4t39 -16.5t24.5 -39.5v-1zM396 62l1 13q7 64 5 96v1q-4 7 -36 9.5t-75 -5.5l-12 -3l-6 25l13 3q30 7 70 7t61 -15q7 -5 9 -11t2 -10q2 -34 -5 -100l-2 -13zM358 70q-9 0 -24.5 -0.5t-25.5 -0.5v-10h-26v91h26v-56q11 1 26.5 1.5t23.5 0.5h13
l-1 -26h-12zM235 398v0q1 -2 14.5 -17t34.5 -34l9 -9l-18 -19l-9 9q-21 21 -35 36.5t-16 16.5l-8 10l20 17zM488 381q0 -1 -8.5 -10.5t-21 -22t-26.5 -24.5l-9 -8l-17 19l10 9q12 11 24 23t20.5 21t8.5 10l8 10l20 -17zM139 -33h-26v289q-16 -35 -34 -70l-6 -11l-23 12l6 11
q34 64 57 122q17 42 26.5 68.5t9.5 27.5l4 13l24 -8l-4 -13q0 -1 -9 -26.5t-25 -66.5v-348z" />
    <glyph glyph-name="uni5019" unicode="&#x5019;" 
d="M58 178l-7 -11l-22 13l7 11q30 52 54 105t38.5 89t14.5 38l5 12l24 -8l-5 -12q0 -2 -10.5 -29.5t-29.5 -70.5v-345h-26v290q-20 -42 -43 -82zM198 358v-250h-25v250h25zM515 325l-2 -26l-13 1q-30 2 -72 1t-84 -3.5t-70 -4.5t-30 -2l-13 -1l-2 25l13 1q4 1 35 3t75.5 4.5
t87.5 3.5q2 5 3 51q0 2 -0.5 3t-0.5 2q-14 9 -64.5 7.5t-109.5 -7.5l-13 -1l-2 26l13 1q96 9 138.5 7.5t54.5 -14.5q10 -9 10 -23q0 -39 -3 -52q20 0 36 -1zM495 117q-54 2 -133 -2q-22 -61 -90 -133l-9 -9l-18 19l9 9q58 59 79 113q-37 -2 -62 -4t-26 -2l-13 -1l-2 26l13 1
q3 0 31.5 2t69.5 4q16 55 15 68q-28 -1 -47.5 -2.5t-21.5 -1.5v0l-12 -1q-11 -16 -25 -32l-9 -10l-19 17l9 9q17 20 29 39.5t18 32t6 13.5l5 12l24 -10l-5 -12q-1 -3 -16 -32q15 1 49 3t71.5 3.5t64.5 -0.5l12 -1l-1 -25l-13 1q-38 1 -93 -1q0 -4 -2.5 -22t-10.5 -47
q73 4 125 1h13l-2 -26zM407 83q0 -1 13.5 -13.5t36 -30.5t52.5 -35l11 -6l-12 -23l-11 7q-48 27 -77.5 53.5t-31.5 29.5l-8 10l18 17z" />
    <glyph glyph-name="uni501A" unicode="&#x501a;" 
d="M173 427l-4 -12q-1 -2 -11.5 -31t-29.5 -75h6v-340h-26v295q-18 -42 -40 -85l-6 -11l-23 11l6 12q28 55 50.5 107.5t35.5 87.5t14 37l4 12zM172 238q9 0 70.5 3.5t136 5t119.5 -3.5l13 -1l-3 -26l-12 2q-17 2 -39 2v-1q13 -222 -45 -249q-8 -4 -18 -4q-25 0 -57 29l-9 9
l18 19l9 -9q11 -10 23.5 -17.5t22.5 -3.5q4 1 10.5 10t12.5 32.5t9 67.5t-1 114q-1 2 -1 4q-52 0 -110 -2t-100 -4t-47 -3v0l-13 -1l-1 26zM351 436l-4 -12q0 -4 -15 -36q88 3 149 -2l13 -1l-3 -26l-13 1q-29 3 -72.5 3t-87.5 -1q-30 -55 -98 -104l-10 -7l-14 22l11 7
q52 36 79 80q-38 -1 -63 -2.5t-28 -1.5v0l-13 -1l-1 26h12q5 1 35 2.5t74 3.5q11 19 16 31.5t5 13.5l4 12zM473 256l-12 5q-53 18 -85 34.5t-35 18.5l-11 6l13 22l11 -6q2 -1 33 -17t82 -34l12 -5zM197 122h25v-54q13 1 32 1.5t29 0.5h13l-1 -26h-13q-5 1 -16.5 0.5
t-23.5 -1t-20 -0.5v-10h-25v89zM326 36l2 12q3 32 4.5 53.5t0.5 39.5v1q-9 8 -49.5 9t-85.5 -8l-12 -2l-6 25l13 2q34 8 83 9t73 -15q5 -5 7.5 -10.5t1.5 -9.5q1 -20 0 -41.5t-5 -54.5l-1 -13z" />
    <glyph glyph-name="uni501F" unicode="&#x501f;" 
d="M217 117h25v-21q19 1 59.5 3t77.5 0l13 -1l-2 -26l-12 1q-38 2 -78.5 0.5t-57.5 -3.5v-58q26 2 73.5 3.5t85.5 -0.5l12 -1l-2 -26l-12 1q-37 2 -84.5 0.5t-72.5 -3.5v-15h-25v146zM438 -26l3 13q6 35 8.5 82.5t2.5 67.5q-2 9 -9 15q-27 17 -95 15t-134 -10l-13 -2l-3 26
l13 1q210 26 248 -10q16 -13 18 -33v-1q0 -10 -1 -38t-3.5 -60.5t-6.5 -57.5l-3 -13zM285 337v-75q53 2 110 2v75q-58 0 -110 -2zM508 263l-1 -25h-12q-50 2 -119.5 0.5t-124.5 -3.5t-61 -2h-1l-12 -1l-1 26l12 1q1 0 20.5 0.5t51.5 1.5v75q-42 -1 -45 -2h-13l-1 25l13 1
q5 0 46 2v63h25v-62q52 1 110 2v62h26v-62q32 0 56 -1h13l-1 -26l-13 1q-24 1 -55 1v-75q43 0 75 -1zM153 421l5 11l23 -10l-5 -12q-1 -5 -38 -82v-357h-26v306q-19 -38 -41 -79l-7 -11l-22 12l6 11q46 85 75 146t30 65z" />
    <glyph glyph-name="uni5021" unicode="&#x5021;" 
d="M47 176l6 12q28 51 53 104t41 90.5t18 41.5v0l5 12l23 -10l-5 -12q0 -1 -9.5 -22.5t-24.5 -56.5v-364h-26v309q-25 -53 -52 -105l-7 -11zM237 355h26v-24q18 2 54.5 3.5t71.5 -0.5l13 -1l-2 -26l-13 1q-34 2 -71 0.5t-53 -2.5v-42q24 2 67.5 3.5t77.5 -1.5l13 -1l-2 -25
l-13 1q-33 2 -76.5 0.5t-66.5 -3.5v-10h-26v127zM442 241l2 12q6 31 8.5 66t1.5 53q-1 8 -7 13q-25 16 -87.5 14t-123.5 -10l-13 -1l-3 25l13 1q194 25 230 -9q15 -12 17 -31v-1q0 -19 -2.5 -55.5t-7.5 -68.5l-3 -13zM462 -20l2 13q7 38 9.5 84t2.5 68q-1 10 -10 17
q-35 32 -252 6l-12 -2l-3 26l12 1q230 28 271 -11q17 -13 20 -35v-1q0 -22 -3 -70t-10 -88l-2 -12zM417 -8q-40 2 -93 0.5t-80 -3.5v-12h-25v156h25v-35q20 2 65 4t87 -1l13 -1l-2 -25l-13 1q-42 2 -87.5 0t-62.5 -4v-57q28 1 81 3t94 -1l13 -1l-2 -25z" />
    <glyph glyph-name="uni5026" unicode="&#x5026;" 
d="M423 218q1 -2 25 -23.5t62 -49.5l10 -8l-15 -20l-10 7q-39 29 -63.5 51t-26.5 24l-9 9l18 19zM350 4q25 0 50.5 3.5t38.5 16.5q11 10 10 29v13h25l1 -12q0 -30 -17 -48q-19 -17 -48.5 -22.5t-60.5 -4.5q-38 0 -62 8q-24 9 -32 23t-8 26v17.5v23v20v8.5h26v0v-9.5v-20
v-22.5v-17t4 -12.5t19 -12.5q20 -7 54 -7zM232 416v0q1 -1 6.5 -8t13.5 -15.5t16 -14.5l10 -8l-16 -20l-10 8q-9 7 -18 16.5t-15.5 17t-6.5 8.5l-8 10l20 16zM438 418l8 10l19 -17l-8 -10q-1 -2 -13 -14.5t-27 -26.5l-9 -9l-18 19l9 9q10 9 18.5 18t14 15t6.5 6zM497 234
q-37 1 -95.5 0t-114.5 -2q-17 -31 -39 -63q34 6 87 8t80 -17q13 -10 13 -25q1 -17 -4.5 -44t-27.5 -40q-9 -5 -19 -5q-20 0 -44 19l-11 8l16 20l10 -8q8 -6 18 -10.5t18 -0.5q18 12 18 60q0 2 -0.5 3.5t-2.5 2.5q-9 8 -49.5 11t-112.5 -10l-10 -2q-11 -15 -24 -30l-8 -10
l-20 16l8 10q44 54 74 106q-65 -2 -76 -2v0l-13 -1l-1 26h13q1 0 26.5 1t65.5 2q16 30 28 56q-40 -1 -68 -2t-33 -1h-1l-13 -1l-1 26h13q4 0 36 1.5t78 2.5q29 80 28 85l2 13l25 -6l-2 -12q0 -7 -25 -79q85 3 136 1h13l-1 -26l-13 1q-24 1 -63.5 0t-82.5 -2q-11 -26 -27 -56
q54 1 108 1.5t89 -0.5h13l-1 -26zM57 177l-7 -11l-21 15l7 10q33 50 57.5 102.5t38.5 89.5t14 39l4 12l24 -8l-4 -12q0 -3 -11.5 -33.5t-31.5 -75.5h4v-334h-26v288q-21 -42 -48 -82z" />
    <glyph glyph-name="uni502A" unicode="&#x502a;" 
d="M137 420l4 12l24 -8l-4 -12q0 -1 -9 -27t-26 -67v-347h-25v285q-16 -37 -35 -75l-6 -12l-23 12l6 11q42 87 67.5 155.5t26.5 72.5zM293 437l11 7l14 -22l-11 -7q-2 -2 -34.5 -17.5t-93.5 -32.5l-12 -4l-7 25l12 3q58 17 89.5 32t31.5 16zM207 272v-82q17 1 54 2.5t76 2
t62 -0.5h13l-1 -26l-13 1h-19l-1 -10v-1q0 -3 -1 -23.5t-2.5 -44.5t-1.5 -34q0 -27 10.5 -36.5t29.5 -10.5q48 -4 61 12q9 11 3 36l-4 12l25 7l4 -13q10 -37 -8 -59q-18 -21 -63 -21q-9 0 -20 1q-28 2 -42 14t-18 28t-4 30q0 8 1 24.5t2 34.5t2 31t1 14v9q-26 0 -55 -1
l-1 -6q0 -4 -8.5 -35.5t-32.5 -72t-69 -73.5l-11 -7l-14 21l10 7q41 29 62.5 67t29.5 66.5t8 31.5q-45 -1 -65 -2v-14h-26v187h26v-40q16 1 40.5 2t46.5 -1l13 -1l-2 -25l-12 1q-22 1 -46.5 0.5t-39.5 -2.5zM437 152l2 13q9 52 11 111q-19 1 -39.5 0t-35 -2t-16.5 -1v0
l-13 -1l-2 26l13 1q2 0 17 1t36 1.5t41 -0.5q1 40 0 70q0 6 -5 10q-14 9 -41 8t-48 -6l-13 -2l-5 25l12 2q5 2 25.5 4.5t44.5 1.5t41 -13q14 -11 15 -29q1 -34 -1 -93t-12 -118l-2 -13z" />
    <glyph glyph-name="uni503A" unicode="&#x503a;" 
d="M201 -33l-12 22l12 6q52 29 80 64t38.5 61t10.5 28l2 12l25 -6l-2 -12q0 -4 -11.5 -32.5t-42.5 -66.5t-88 -70zM501 -22l-12 5q-121 57 -122 64l-10 7l15 21l10 -8q0 -5 117 -60l12 -5zM214 57v83h26v-83h-26zM478 166v0q3 -43 -6 -99l-3 -13l-25 4l2 13q9 53 6 92
q0 1 -0.5 1.5l-1.5 1.5q-22 14 -89.5 15t-145.5 -12l-12 -3l-5 26l13 2q76 13 150 12.5t104 -20.5q7 -5 9.5 -10.5t3.5 -9.5zM355 261q90 2 148 0h13l-1 -26l-12 1q-34 1 -86 0t-104.5 -2t-88 -2t-38.5 -1l-13 -1v26h12q3 0 44.5 1.5t99.5 2.5v38q-41 -1 -72 -2.5t-36 -1.5
h-1h-13l-1 25l13 1h1q6 0 37 1.5t72 2.5v41q-51 -2 -87 -3.5t-38 -1.5h-13l-1 25l13 1q4 0 40.5 1.5t85.5 2.5v46h26v-45q83 2 132 1h12l-1 -26l-12 1q-48 1 -131 -2v-40q72 2 112 0h12l-1 -26l-13 1q-38 1 -110 -1v-38zM63 183l-7 -11l-22 13l7 11q13 23 31.5 60t36 74.5
t29.5 63.5t13 28l5 11l23 -10l-5 -12q-2 -3 -13.5 -29.5t-29.5 -63.5v-345h-25v291q-25 -50 -43 -81z" />
    <glyph glyph-name="uni503C" unicode="&#x503c;" 
d="M61 183l-7 -12l-22 13l6 11q48 90 74.5 154t27.5 68l4 12l24 -9l-4 -12q0 -1 -11 -29t-32 -74v-335h-25v280q-16 -32 -35 -67zM515 -14l-12 1q-63 4 -139 1.5t-132.5 -6.5t-60.5 -4l-13 -1l-2 25l13 1q2 1 40 3v252h26v-23q26 2 77 5t91 1l13 -1l-1 -25h-13
q-40 2 -91.5 -0.5t-75.5 -4.5v-48q21 1 75.5 4.5t98.5 1.5l13 -1l-1 -25h-13q-28 2 -65 0.5t-67.5 -3.5t-40.5 -3l1 -51q4 0 35.5 2.5t72 4t71.5 0.5l13 -1l-1 -26l-13 1q-31 1 -71.5 -0.5t-71.5 -3.5t-33 -3h-3v-51q96 7 214 7q1 33 1.5 87t-1.5 103.5t-8 70.5l-0.5 1
t-3.5 3t-8 3.5t-13.5 3.5t-21 3t-30.5 1t-42 -1q-47 -3 -82 -7.5t-38 -4.5l-12 -2l-4 25l13 2q2 1 38 5.5t84 7.5v47q-57 -2 -95.5 -5t-40.5 -3l-13 -1l-2 26l13 1q5 0 43.5 3t94.5 5v53h25v-52q81 3 150 -1l13 -1l-2 -25l-13 1q-67 4 -148 0v-47q43 1 77 -5.5t43 -28.5
q7 -26 9 -84t1.5 -113t-1.5 -72q15 -1 29 -2h13z" />
    <glyph glyph-name="uni503E" unicode="&#x503e;" 
d="M212 59q-11 1 -21.5 10t-15.5 30q-3 18 -3.5 61.5t0.5 92.5t2.5 86t1.5 42v13l26 -1v-13q-2 -38 -3 -90l9 1v0q1 0 7.5 0.5t16 1t17.5 -0.5l13 -1l-2 -25h-13q-7 1 -15.5 0.5t-14.5 -0.5h-7v0l-12 -1q-1 -54 -0.5 -99t2.5 -62q4 -18 13 -19q6 0 12.5 7.5t11.5 22.5l3 12
l25 -7l-4 -12q-14 -46 -48 -49h-1zM129 -34h-26v297q-21 -45 -41 -82l-7 -12l-22 13l6 11q34 62 64 131q18 39 29 65t11 28l5 11l24 -9l-5 -12v0q-1 -2 -11 -26.5t-27 -61.5v-353zM516 414l-1 -25h-13q-40 2 -98 0l-28 -63q93 4 109 -15q12 -9 14 -24v-1q1 -9 2 -42.5
t-0.5 -75.5t-7.5 -79l-2 -13l-25 4l2 13q7 51 7 110t-1 81q0 2 -1 3.5t-4 3.5q-3 3 -19 7t-53.5 3.5t-104.5 -12.5l-13 -2l-4 25l12 2q34 6 60 9l28 65q-37 -2 -63.5 -3.5t-29.5 -1.5h-1l-12 -1l-2 26h13q5 1 46 3t91.5 4t85.5 0zM316 257v-185h-25v185h25zM304 -37l-19 17
l9 10q41 48 60 106.5t23.5 102t4.5 46.5v13h25v-13q1 -6 -4 -52t-25.5 -107.5t-65.5 -112.5zM502 -4l9 -8l-16 -19l-10 8q-20 18 -39 41.5t-31.5 41.5t-14.5 21l-7 10l22 14l7 -11q0 -1 12.5 -18.5t30.5 -40t37 -39.5z" />
    <glyph glyph-name="uni5047" unicode="&#x5047;" 
d="M461 254l1 12q7 70 6 115v1q0 1 -0.5 1.5t-1.5 0.5q-11 8 -43.5 9t-67.5 -6l-12 -3l-6 25l13 3q32 7 71.5 7t61.5 -15q6 -6 8 -11.5t2 -10.5q2 -47 -5 -118l-1 -13zM358 301v0q3 0 14.5 0.5t25 1t20.5 0.5l13 -1l-1 -25h-12h-14.5t-19.5 -0.5t-17.5 -1l-7.5 -0.5l-13 -1
l-1 26zM322 267l-1 -13l-26 3l2 13q7 69 5 111v1q0 1 -1 2q-12 8 -46 9t-69 -6l-13 -3l-5 25l12 3q32 7 73.5 7t63.5 -15q6 -6 8.5 -11.5t2.5 -10.5q1 -44 -6 -115zM214 178h-12v-60h4h14t27.5 0.5t29 1t19.5 0.5l13 -1l-1 -25h-13h-21t-34.5 -0.5t-32.5 -1.5h-5v-121h-25
v369h25v-39q13 1 29.5 1.5t24.5 0.5l13 -1l-1 -25h-13q-7 0 -23.5 -0.5t-29.5 -1.5v-71h12v0q4 0 21 0.5t35 1t26 0.5h13l-1 -26h-13h-20t-31.5 -0.5t-29.5 -1.5zM420 73q32 -35 87 -75l10 -7l-15 -21l-10 7q-56 41 -90 77q-31 -29 -55.5 -50.5t-31.5 -26.5l-10 -8l-16 20
l10 8q33 26 85 76q-42 51 -43 56l-6 11l22 13l7 -11q-1 -3 38 -51q50 51 58 85q0 6 -1.5 9.5t-3.5 5.5q-17 12 -52.5 10.5t-63.5 -8.5l-13 -3l-5 25l12 3q7 2 33 6t56.5 2.5t49.5 -16.5q15 -14 13 -37q-3 -21 -21.5 -47.5t-43.5 -52.5zM129 -30h-26v297q-21 -45 -41 -82
l-7 -11l-22 12l6 11q34 62 64 131q18 39 29 65t11 28l5 12l24 -10l-5 -12v0q-1 -2 -11 -26.5t-27 -61.5v-353z" />
    <glyph glyph-name="uni504F" unicode="&#x504f;" 
d="M177 428l-4 -12q-1 -1 -10.5 -28.5t-28.5 -71.5v-346h-25v290q-15 -31 -32 -62l-7 -11l-22 12l6 11q44 82 69 146t25 68l4 12zM189 355l-3 25l12 2q16 3 53 7.5t82 8.5q-5 7 -9 12l-4 5v0l-9 9l19 18l8 -10q1 0 5 -5t9.5 -12t10.5 -16q40 2 73.5 -2t48.5 -16q7 -5 9 -11
t2 -10q-1 -84 -6 -87l-3 -12l-25 6l4 13q4 1 5 79q0 1 -0.5 1.5t-1.5 0.5q-3 3 -16 7t-44 5.5t-85 -2.5q-48 -4 -83 -8.5t-39 -5.5v0zM181 -10l-2 -13l-25 6l3 13q29 130 34.5 219t5.5 90v13h26v-13v-16h2q4 1 38 4.5t77 6t75 -0.5l13 -1l-2 -25l-13 1q-31 2 -74 -0.5
t-75.5 -6t-35.5 -3.5l-7 -1q-1 -91 -40 -273zM342 115q25 1 51 2v82q-22 0 -51 -2v-82zM457 -6q3 0 8 12.5t9 44.5q5 58 -3 131l-0.5 1.5t-3.5 3.5q-6 7 -49 11v-81h19l13 -1l-1 -25h-13q-8 0 -18 1v-104h-25v103q-25 0 -51 -2v-96h-26v95q-33 -2 -46 -3v-112h-26v182h26
v-44q14 1 46 3v81q-31 -3 -70 -8l-13 -1l-3 25l13 2q88 11 137.5 11.5t72.5 -5t30 -12.5q12 -9 13 -22q4 -34 5 -79.5t-5.5 -83.5t-25.5 -50q-5 -4 -13 -4t-19 8l-10 8l15 20l11 -8q1 -1 2 -1.5z" />
    <glyph glyph-name="uni505A" unicode="&#x505a;" 
d="M55 181l-6 -11l-22 14l7 11q26 41 50.5 93.5t40.5 92t17 42.5l4 12l24 -9l-4 -12q-2 -4 -13.5 -33t-29.5 -71h3v-337h-26v289q-22 -45 -45 -81zM177 147h26v-86q9 1 21.5 1.5t22.5 0.5h13l-1 -26h-12q-11 1 -23.5 0t-20.5 -2v-12h-26v124zM322 311q-28 0 -62 -1v-103
q32 -1 46 -13q5 -4 9 -11.5t5 -19.5q1 -26 -1 -55t-8 -72l-1 -12l-25 3l1 12q5 42 7 70t1 53v1q0 5 -1.5 7.5t-2.5 3.5q-10 8 -31 8t-43 -3.5t-34 -5.5l-12 -2l-5 25l13 2q32 6 56 8v102q-29 -2 -49 -3.5t-22 -1.5v0l-12 -1l-3 25l13 1q2 1 22.5 2.5t50.5 3.5v92h26v-91
q34 2 62 1h13l-1 -26zM368 265q1 -6 46 -92q45 115 46 141q-31 -2 -56 -4t-28 -2h-1h-2l-10 -32zM429 144q36 -63 87 -137l7 -10l-21 -15l-7 10q-46 66 -79 124q-30 -63 -80 -136l-7 -10l-21 14l7 11q55 81 86 148q-39 71 -51 100q-4 -9 -8 -17l-6 -12l-23 11l6 12
q18 39 30.5 81t19.5 71.5t7 31.5l3 12l25 -5l-3 -12q0 -3 -5 -25.5t-15 -56.5q19 2 55 4.5t67 1.5l13 -1l-1 -25h-13h-15l-1 -1q1 -4 -11.5 -49t-45.5 -120z" />
    <glyph glyph-name="uni505C" unicode="&#x505c;" 
d="M181 127l-5 -12l-24 10l5 12q4 10 7 22.5t5 22t2 10.5v0l2 12l25 -4l-2 -12q0 -2 -2 -12t-5 -23.5t-8 -25.5zM472 123l7 12q3 7 4 11t0 6.5l-1 2.5q-20 20 -93 18.5t-142 -13.5l-13 -3l-4 26l13 2q21 4 75.5 10t109 3t75.5 -28q5 -7 6 -19t-8 -29l-6 -11zM354 388
q77 2 131 -4l12 -2l-3 -25l-13 2q-34 4 -83 3.5t-97.5 -3t-81 -5t-34.5 -2.5l-13 -1l-2 25l12 1q6 1 46 4t95 6q-14 18 -15 19l-8 10l20 16l8 -10v0q2 -2 24 -30zM218 268h26v-23q26 2 74 4.5t80 1.5h13l-1 -25h-13q-31 0 -79.5 -2.5t-73.5 -3.5v-9h-26v57zM425 217l1 13
q2 12 2.5 28.5t-0.5 25.5q0 3 -2 6.5t-11 7t-27 4.5q-47 3 -165 -9l-13 -1l-3 26l13 1q121 12 169 9q9 -1 23.5 -3.5t26.5 -11.5t15 -27v-1q0 -10 -0.5 -27.5t-1.5 -30.5l-2 -13zM446 99q-43 2 -95 0q1 -9 2 -25t0 -30q-3 -61 -30 -69q-4 -2 -8 -2q-22 0 -48 34l-8 10l20 16
l8 -11q12 -15 19.5 -19.5t8.5 -3.5q3 0 7 10t6 36q0 14 -1 30t-2 22q-43 -2 -73.5 -4.5t-32.5 -2.5l-13 -1l-2 26l13 1q4 0 43.5 3t91.5 5t96 0h12l-1 -26zM127 -32h-26v281q-16 -36 -33 -68l-7 -11l-22 13l6 11q31 57 56 121l1 1q16 41 26 69.5t11 32.5v0l4 12l25 -8
l-4 -12q-1 -4 -11 -32t-26 -68v-342z" />
    <glyph glyph-name="uni5065" unicode="&#x5065;" 
d="M172 -19l-7 -11l-22 14l7 11q28 43 45 77q-28 14 -31 16l-11 6l13 23l11 -7q1 -1 29 -15q18 39 24 63.5t6 36v11.5q-1 4 -4 5q-11 5 -30 2.5t-35 -7.5l-13 20q25 30 40.5 51t23 35t10 22.5t2 12.5t-1.5 6q-6 6 -23.5 5t-33.5 -6l-12 -4l-8 25l12 3q6 3 23 6t35 1t28 -16
q24 -35 -51 -128q25 4 46 -5q13 -8 17 -22q11 -26 -31 -127q42 -19 110 -42t156 -39l12 -2l-4 -25l-13 2q-91 17 -160.5 40t-112.5 43q-18 -37 -46 -81zM449 258l2 46q-31 0 -63 -2v-44q35 2 61 0zM388 373v-45q32 1 64 1v23q0 5 -1.5 8t-2.5 4q-14 11 -60 9zM444 210l2 13
q1 4 1 10q-25 1 -59 -1v-48q44 3 77 0h13l-2 -26l-13 1q-32 2 -75 -1v-33q50 2 92 0l12 -1l-2 -26l-12 1q-41 3 -90 0v-49h-25v48q-31 -2 -51 -4t-22 -2v0l-13 -1l-3 25l13 2q3 0 24 2t52 4v33q-27 -2 -45.5 -4t-19.5 -2l-13 -1l-2 25l12 2q3 0 21.5 1.5t46.5 3.5v49
q-25 -2 -41.5 -3.5t-17.5 -1.5l-13 -2l-2 26l12 1q2 0 19.5 2t42.5 4v44q-36 -3 -59 -5t-25 -2l-13 -1l-2 25l13 1q2 1 26 3t60 4v46q-34 -2 -74 -6l-12 -1l-2 26l12 1q44 4 76 6v35h25v-34q57 2 77 -16q13 -12 13 -31q0 -7 -1 -23q12 -1 22 -1l13 -1l-2 -26l-13 1
q-10 1 -20 1q-1 -23 -2.5 -46t-3.5 -38l-1 -12zM128 -28h-26v290q-17 -35 -36 -70l-7 -12l-22 13l6 11q34 62 59 120l1 2q18 42 28.5 69.5t10.5 28.5l4 12l24 -8l-4 -12v0q-1 -3 -11 -29.5t-27 -67.5v-347z" />
    <glyph glyph-name="uni5076" unicode="&#x5076;" 
d="M151 426l5 11l23 -9l-4 -12q-1 -3 -13.5 -34t-32.5 -74h8v-333h-25v296q-20 -42 -41 -78l-7 -11l-22 13l7 11q25 44 48 94t38 86.5t16 39.5zM244 251q12 1 36.5 3t53.5 3v47q-30 -1 -55 -3t-35 -3v-47zM334 180v51q-30 -1 -55 -2.5t-35 -2.5v-13h-25v138h25v-27
q12 1 36.5 3t53.5 3v62q-62 -3 -112 -12l-13 -2l-4 25l12 2q13 3 63.5 9t106 4.5t82.5 -21.5q15 -12 15 -30q0 -3 -1.5 -43.5t-9.5 -98.5l-2 -13l-26 4l2 13q9 57 10.5 96.5t0.5 41.5q0 2 -1 4.5t-4 5.5q-26 18 -93 16v-62q20 -1 36 -2l13 -2l-3 -25l-13 1q-14 2 -33 2v-48
q24 0 43 -2l13 -1l-2 -25l-13 1q-18 1 -41 1v-51q81 2 112 -8t33 -28v0v0q3 -21 2 -56t-9.5 -67.5t-28.5 -44.5q-6 -3 -15 -3q-15 0 -39 21l-9 9l18 18l9 -9q5 -5 12 -10t13 -3q14 10 20 54t1 87l-1 1t-3.5 2.5t-8.5 3.5t-15 3.5t-22.5 3t-32.5 1.5h-36v-69q25 4 49 9
q-6 14 -6 16l-4 12l25 8l3 -13q1 -1 7.5 -17t20.5 -38l7 -10l-21 -15l-7 11q-8 11 -14 22q-35 -7 -70 -12t-60 -7t-27 -2l-13 -1l-2 25l13 1q1 0 21.5 2t51.5 6v71q-60 -3 -146 -11l-12 -1l-3 25l13 1q89 9 148 12zM220 110v-134h-25v134h25z" />
    <glyph glyph-name="uni5077" unicode="&#x5077;" 
d="M61 186l-6 -11l-23 12l6 11q27 50 50.5 102t39 88t16.5 38l4 12l24 -10l-5 -12q0 -1 -11.5 -28t-29.5 -68h2v-352h-26v302q-20 -43 -41 -84zM154 287l11 6q48 28 81.5 59.5t51 54.5t18.5 24l6 11l22 -13l-7 -11q-1 -3 -20 -27.5t-54 -57.5t-86 -62l-11 -6zM506 306l12 -5
l-11 -23l-11 5q-60 29 -99 57t-42 32l-10 8l16 20l10 -9q2 -2 40 -29.5t95 -55.5zM261 307q2 1 23 3.5t52 4.5t63 0h13l-2 -26l-13 1q-30 2 -60 0t-50 -5t-22 -3l-12 -2l-4 25zM288 -33q-14 0 -30 16l-9 9l18 18l9 -9q3 -3 5.5 -5t4 -2.5t2 -1l0.5 -0.5v0l1 1t2.5 3.5t3 7.5
t3 12.5t2.5 19t2 27.5q1 65 -3 121q-1 20 -1 32q0 6 -4 9q-15 9 -47 6t-59 -11l-12 -4l-7 25l12 3q6 2 30 7t52 5.5t46 -11.5q14 -10 15 -29q0 -11 1 -31q4 -83 2 -128.5t-9.5 -64.5t-19.5 -23q-5 -2 -10 -2zM188 197h26v-27q9 1 23.5 2t30.5 1h13l-1 -26l-13 1
q-15 0 -30.5 -1.5t-22.5 -1.5v-47q9 1 23.5 2t30.5 1l13 -1l-1 -25h-13q-15 0 -30.5 -1t-22.5 -2v-101h-26v226zM392 235v-172h-26v172h26zM426 2q33 25 16 241l-2 13l26 2l1 -12q1 -3 3.5 -38t2.5 -82q0 -57 -5.5 -87.5t-14 -43t-16.5 -16.5q-7 -3 -14 -3q-17 0 -38 20
l-9 9l18 18l9 -9q16 -14 23 -12z" />
    <glyph glyph-name="uni507F" unicode="&#x507f;" 
d="M66 181l-7 -11l-22 13l7 11q13 23 31.5 60t36 74.5t29.5 63.5t13 27l5 12l23 -10l-5 -12q-2 -4 -13.5 -30t-29.5 -64v-344h-25v291q-25 -50 -43 -81zM267 332l-10 7q-11 9 -20.5 20t-15.5 19.5t-6 9.5l-7 10l21 14l7 -10q0 -1 5.5 -8.5t13.5 -17t18 -16.5l10 -8zM412 358
q10 11 19.5 22t15 18.5t5.5 8.5l8 10l21 -15l-8 -10q-1 -2 -13.5 -17.5t-28.5 -33.5l-9 -10l-19 18zM174 240l5 11q4 10 7 22t4.5 20.5l1.5 8.5l2 13l25 -4l-2 -13q0 -1 -1.5 -10.5t-5 -22t-7.5 -23.5l-5 -12zM350 321q47 4 90.5 -0.5t62.5 -25.5q6 -7 7.5 -19.5t-7.5 -30.5
l-6 -12l-23 12l6 11q4 8 4.5 13t-0.5 7.5t-2 3.5q-19 19 -86.5 17t-130.5 -14l-13 -2l-5 25l13 2q18 4 65 10v116h25v-113zM248 229q4 0 35 2.5t72 4t75 0.5l13 -1l-2 -26l-12 1q-34 1 -74.5 -0.5t-71 -4t-33.5 -2.5l-12 -1l-3 26zM197 138q6 0 56 4t116 6.5t121 0.5l13 -1
l-2 -25h-12q-54 3 -120.5 0t-116 -6.5t-53.5 -4.5l-12 -1l-3 26zM306 90q-14 -10 -24 -18.5t-17.5 -15.5t-12 -12.5t-7.5 -9.5t-4 -7t-1.5 -5t-0.5 -3v-1l2 -1.5t6 -3.5t12.5 -3t22 -1.5t33.5 1t47.5 5.5t64.5 11q-18 21 -28.5 34.5t-11.5 14.5l-8 10l20 16l8 -10
q1 -2 21 -26t49 -59l9 -10l-20 -17l-8 10q-6 8 -12 15l-9 -2q-98 -19 -151 -19q-61 0 -70 25q-18 35 74 103l11 7l15 -20z" />
    <glyph glyph-name="uni5080" unicode="&#x5080;" 
d="M286 194q13 39 20 72q-56 -3 -85 -6v-70q22 2 65 4zM479 340q0 -6 -1 -57t-11 -115l-2 -12l-25 4l2 12q6 41 8.5 79t2.5 62.5v25.5q0 3 -1 6t-4 6q-28 19 -101 17q1 -12 -9 -76q29 1 51 -2l13 -1l-3 -25l-13 1q-23 2 -53 2q-7 -33 -19 -71q47 1 87 -2l13 -1l-2 -25l-13 1
q-43 3 -94 1q-32 -95 -106 -194l-8 -10l-20 16l8 10q67 89 98 176q-38 -2 -56 -4v-7h-25v165h25v-37q32 4 90 7q11 61 11 76q-73 -4 -131 -14l-13 -2l-4 26l12 2q7 1 29.5 4t53.5 6l6 7q13 16 21.5 28t9.5 14v0l7 10l21 -14l-7 -10q0 -1 -6.5 -10t-16.5 -22q49 3 93.5 -1
t66.5 -22q15 -12 15 -30zM507 76l4 -12q5 -23 1 -38t-11 -23q-26 -29 -88 -30q-11 0 -23 1q-16 1 -32.5 7.5t-28 23.5t-11.5 51q0 12 0.5 29t1.5 30t1 15v1v12l26 -1l-1 -13q0 -1 -0.5 -13.5t-1 -30t-0.5 -29.5q0 -33 12.5 -44t35.5 -12q66 -5 89 20q12 13 5 37l-3 13z
M423 145l-7 -10q-17 -21 -26 -39t-8 -24q1 -1 6 -1t16.5 3.5t30.5 11.5q-3 8 -5 13.5t-3 5.5l-4 12l24 9l4 -11q1 -2 4 -10.5t7.5 -19.5t7.5 -21l4 -12l-24 -8l-4 12l-2 6q-40 -16 -58 -16q-10 0 -15.5 2.5t-8.5 6.5q-8 13 -3 31t16.5 36t19.5 29l8 10zM173 414l-5 -12
q-2 -3 -14 -29.5t-29 -64.5h3v-343h-26v294q-25 -54 -40 -84l-6 -11l-23 12l6 11q11 20 28 56.5t34.5 75t30 65.5t13.5 29l5 11z" />
    <glyph glyph-name="uni5085" unicode="&#x5085;" 
d="M64 175l-7 -12l-22 13l6 11q33 60 65 131l30 70t13 30l5 12l24 -10l-5 -12q-1 -1 -12.5 -28.5t-29.5 -67.5v-352h-26v297q-21 -45 -41 -82zM447 386q-10 2 -22.5 7t-23 9.5t-11.5 4.5l-12 5l11 24l11 -5q1 0 6.5 -2.5t14 -6t17.5 -7t16 -4.5l12 -4l-6 -24zM515 104
l-2 -25l-13 1q-31 1 -72 1q2 -33 -4 -67t-26 -47q-8 -4 -16 -4q-21 0 -47 23l-10 9l17 19l10 -8q23 -21 34 -17q18 12 16 92q-99 -3 -174 -7l8 -5l8.5 -5t20 -12t22.5 -11l11 -6l-10 -23l-12 5q-11 5 -23.5 12t-21 12.5t-9.5 5.5l-11 7l12 20q-45 -3 -47 -3l-13 -1l-2 25
l13 1q4 0 38.5 2.5t85 4.5t102.5 3q0 6 -1 13l-2 12l26 4l1 -13q1 -5 2 -15q43 0 76 -2zM323 196v29q-25 -1 -47.5 -2t-37 -2t-15.5 -1v-30q13 1 40.5 3t59.5 3zM174 344l-2 25l13 1q5 1 44 3.5t94 5.5v53h26v-52q79 3 142 0l13 -1l-2 -26l-13 1q-61 3 -140 0v-36
q130 0 132 -49v-1q1 -15 -1.5 -51.5t-8.5 -69.5l-2 -13l-26 5l3 13q5 29 7.5 63.5t2.5 51.5q-1 10 -24 17.5t-83 7.5v-40q32 1 52 -1l13 -1l-2 -25l-13 1q-19 1 -50 0v-29q34 1 54 -1l13 -1l-2 -25l-12 1q-20 1 -53 0v-35h-26v34q-33 -1 -61 -2.5t-39 -2.5v-35h-25v135h25
v-20q9 1 37.5 2.5t62.5 3.5v40q-51 -1 -129 -9l-13 -1l-2 26l12 1q77 8 132 9v36q-56 -3 -95 -5.5t-41 -2.5z" />
    <glyph glyph-name="uni5088" unicode="&#x5088;" 
d="M57 178l-7 -11l-22 13l7 11q13 23 31.5 61t36 77t29.5 66t12 29l5 11l24 -10l-5 -11q-1 -4 -12 -29t-27 -61v-356h-26v301q-26 -57 -46 -91zM376 335v64q-35 -1 -71 -2v-63q42 2 71 1zM376 246v64q-33 0 -71 -2v-63q37 1 71 1zM499 399h-97v-65q61 -5 76 -21
q14 -11 15 -28v0v0q2 -20 -3 -59l-3 -13l-25 4l2 13q6 35 4 53q-1 6 -6 10q-17 13 -60 16v-63h1h1h13l-1 -26h-12q-44 1 -101 -0.5t-84 -3.5v-7h-26v57h26v-24q20 1 60 2v63q-44 -3 -88 -7l-12 -1l-3 25l13 1q51 5 90 7v64q-38 -2 -92 -4l-11 -1l-1 22h11q98 6 157 7.5
t156 0.5h11v-22h-11zM400 148q68 1 109 -2l13 -1l-3 -26l-13 1q-57 5 -155 0v-149h-26v128q-28 -40 -136 -112l-11 -7l-13 22l11 7q54 34 87 64t45 46q-55 -3 -93.5 -5.5t-42.5 -2.5v0l-13 -1l-2 25l13 1q6 1 50 3.5t105 5.5v63h26v-62l48 2l-10 23l12 5q13 6 24.5 11.5
t19 10l7.5 4.5l11 6l13 -22l-11 -6q-2 -1 -17.5 -9.5t-36.5 -18.5zM393 81q1 -1 18 -13t42.5 -27.5t51.5 -27.5l12 -5l-10 -24l-12 5q-27 13 -53.5 29t-44 28.5t-19.5 14.5l-11 8l16 20zM213 206l11 -7l7.5 -4.5t19.5 -11t24 -11.5l12 -4l-9 -24l-12 4q-14 6 -26.5 12.5
t-20.5 11.5t-9 5l-11 7z" />
    <glyph glyph-name="uni508D" unicode="&#x508d;" 
d="M62 175l-7 -11l-22 12l6 12q24 43 48.5 96t41.5 92.5t18 41.5l5 12l24 -10l-5 -11v-1q-2 -3 -13.5 -30t-28.5 -67v-343h-26v289q-21 -45 -41 -82zM517 199l-2 -26l-13 1q-37 2 -88 1t-101 -3q1 -8 -7 -42q23 3 62 5q28 2 55.5 -3t34.5 -27q9 -43 -0.5 -76.5t-28.5 -47.5
q-10 -10 -30 -10q-15 0 -36 12l-11 6l13 22l11 -6q12 -7 19.5 -8t12 1t6.5 4q14 12 19.5 39.5t-0.5 58.5q0 1 -6 4t-20 5t-38 1q-27 -1 -47.5 -4t-22.5 -3q-16 -58 -72 -121l-9 -9l-19 18l9 9q48 53 63.5 103.5t16.5 66.5q-41 -2 -67.5 -4t-27.5 -2l-13 -1l-2 26l13 1
q5 0 48.5 3t102.5 6l-4 4q-7 7 -14 15t-11.5 13.5t-4.5 6.5l-8 10l20 16l8 -11l4.5 -5t10.5 -12.5t13 -14.5l9 -9l-12 -13q87 4 151 1zM193 371l13 1q4 1 43 4t93 6l-4 4q-7 7 -13.5 15t-11.5 14l-5 6l-8 11l20 15l8 -10l4.5 -5.5t11 -13.5t13.5 -15l8 -9l-12 -12
q71 3 130 0l12 -1l-1 -25l-13 1q-47 2 -105 0t-105 -5l5 -11h1q0 -1 2.5 -6t7.5 -12t10 -12l10 -9l-10 -10q30 3 68 5h14l1 2q7 10 13.5 20t10 16t4.5 7l6 11l22 -13l-6 -11q-1 -1 -6.5 -10t-13.5 -22q31 0 56 -6t34 -20q4 -6 4 -15t-8 -22l-8 -11l-21 15l8 11q4 6 3 9
q-8 11 -67.5 13.5t-150.5 -9.5l-13 -2l-3 26l12 1q2 1 26 3l-2 2q-8 7 -13.5 15.5t-9 15t-4.5 7.5l-5 11l22 11q-28 -2 -44.5 -3.5t-17.5 -1.5l-13 -1zM209 233l-6 -12l-23 12l6 12q4 7 6.5 18.5t4.5 19.5l2 13l25 -4l-2 -12q0 -2 -1.5 -10.5t-4.5 -19t-7 -17.5z" />
    <glyph glyph-name="uni50A3" unicode="&#x50a3;" 
d="M128 -29h-25v287q-18 -40 -38 -79l-6 -11l-23 12l6 11q36 69 61 132v2q17 41 26 67.5t10 28.5l4 12l24 -8l-4 -12q0 -2 -9.5 -28t-25.5 -66v-348zM296 -8q5 1 11 13t6 41q0 48 -4 85.5t-4 40.5l-2 12l26 4l1 -13q1 -4 4.5 -42t3.5 -87q0 -44 -11.5 -60t-22.5 -18
q-5 -2 -10 -2q-20 0 -38 23l-8 11l21 15l7 -10q12 -15 20 -13zM412 151l9 9l17 -19l-9 -9q-1 0 -12 -8t-33 -18l-12 -5l-10 23l12 5q19 9 28.5 15.5zM383 80q1 -1 27.5 -14.5t66.5 -24.5l13 -3l-6 -25l-13 3q-43 12 -71.5 26.5t-30.5 16.5l-11 6l14 22zM267 82l10 7l14 -21
l-10 -7q-3 -2 -30 -17t-66 -29l-12 -4l-8 24l12 4q24 8 44.5 18t32.5 17.5t13 7.5zM417 205q1 -1 25 -22.5t61 -50.5l10 -7l-15 -21l-10 8q-39 29 -63.5 51t-25.5 24l-9 9l17 18zM490 225q-38 1 -97.5 0t-115.5 -2q-20 -33 -48 -68l10 -7l5.5 -4t13.5 -9t17 -10l11 -6
l-12 -22l-11 6q-10 5 -18.5 10.5t-14.5 9.5l-6 4l-11 7l3 5q-18 -22 -39 -43l-9 -9l-18 18l9 9q54 55 87 108q-32 -1 -51.5 -1.5t-20.5 -0.5h-13l-1 25l13 1v0q3 0 27 0.5t62 1.5q15 27 26 51q-35 -1 -58 -2t-25 -1h-12l-1 25l12 1q4 0 30 1t64 2q9 23 14 41
q-49 -1 -83 -2.5t-37 -1.5l-12 -1l-1 26l12 1q5 0 41.5 1.5t86.5 2.5q6 31 5 33l1 13l26 -2l-1 -13q0 -3 -5 -30q81 2 129 1h13l-1 -26h-12q-51 2 -135 -1q-4 -18 -13 -41q39 1 74.5 1.5t57.5 0.5l13 -1l-1 -26l-13 1q-23 1 -61.5 0t-79.5 -2q-10 -24 -24 -51q54 1 108.5 2
t90.5 0l13 -1l-1 -25h-13z" />
    <glyph glyph-name="uni50A8" unicode="&#x50a8;" 
d="M65 178l-6 -12l-23 12l6 12q24 47 47 98.5t38.5 88.5t16.5 40l4 11l24 -9l-5 -12v0q-1 -2 -11.5 -28t-26.5 -65v-346h-25v291q-20 -43 -39 -81zM211 331q-9 12 -16 24.5t-11 21.5t-5 10l-5 12l24 10l5 -12l4 -8.5t10 -20t14 -22.5l8 -10l-21 -15zM246 66l4 12l24 -8
l-4 -12q-23 -67 -52 -67h-2q-9 1 -17 11t-11 37q-4 94 7 160q4 26 5 41v1v3.5v1.5v0l-1 0.5t-3.5 0.5h-7t-11.5 -1t-17 -4l-13 -3l-6 25l12 3q48 12 63 -2q11 -8 9 -26q0 -17 -4 -44q-12 -64 -8 -154q1 -12 3 -17t3 -7q9 3 27 49zM410 274q53 2 91 1h13v-26l-13 1
q-48 1 -116 -2q-24 -26 -51 -52q27 6 63 7t60 -15q20 -14 21 -39q3 -4 -8 -152l-1 -13l-25 3l1 12q10 147 7 149q0 13 -10 20q-20 14 -73 8q-21 -3 -36 -6.5t-16 -4.5v0l-12 -3l-1 4q-16 -15 -32 -29l-9 -8l-17 19l9 8q49 44 94 90q-36 -1 -59 -2t-24 -2h-13l-2 25l13 1
q3 0 24 1t52 3v71q-23 -1 -39.5 -2t-17.5 -1l-13 -1l-1 26l13 1q2 0 18.5 1t39.5 1v65h26v-64q35 1 59 0l13 -1l-2 -26l-12 1q-24 1 -58 1v-71h8q42 45 68 74.5t28 31.5l8 10l19 -17l-8 -9q-1 -2 -22 -26.5t-57 -62.5zM309 148h26v-41q16 2 40 4t39 1h13l-1 -26l-13 1
q-15 0 -39.5 -2t-38.5 -4v-62q14 2 38 3.5t41 1.5h13l-1 -26h-13q-17 1 -41 -1t-37 -3v-10h-26v164z" />
    <glyph glyph-name="uni50AC" unicode="&#x50ac;" 
d="M264 21q3 0 30 1t66 2v52q-38 -1 -67 -2t-36 -1v-52h7zM360 176v51q-39 -1 -66.5 -2.5t-31.5 -1.5v0l-5 -1v-51q7 1 35.5 2t67.5 3zM360 102v48q-40 -1 -69.5 -2.5t-32.5 -1.5h-1v-48q9 1 37.5 2t65.5 2zM386 25q68 1 114 -1h13l-2 -26l-12 1q-26 1 -64.5 1t-77 -1
t-65 -2t-27.5 -1l-8 -1v-26h-26v202q-14 -27 -28 -46l-8 -11l-20 16l7 10q13 17 27 43.5t25.5 53t19 44.5t8.5 20l5 11l23 -9l-4 -12q-1 -1 -5.5 -13t-12.5 -29q13 0 41.5 1.5t63.5 2.5l-4 5q-26 31 -27 32l-9 9l19 17l9 -9q1 -1 28 -33l8 -9l-14 -12q72 3 115 -2l13 -1
l-3 -26l-13 2q-40 4 -109 2v-52q59 1 100 -2l12 -1l-2 -25l-13 1q-39 3 -97 1v-48q59 2 98 -1l12 -1l-1 -25l-13 1q-38 2 -96 1v-52zM64 176l-7 -10l-21 14l7 11q59 88 84 156t24 73l3 12l25 -6l-3 -12q0 -3 -9.5 -32.5t-29.5 -75.5v-337h-25v285q-20 -38 -48 -78zM342 438
h26v-90q40 3 69.5 6t37.5 4v59h26v-106h-26v21q-20 -3 -78 -8t-116 -5q-45 0 -59 18q-10 12 -11 29.5t2 38.5l2 13l25 -3l-1 -13q-6 -38 2 -49q8 -9 40 -9q30 0 61 2v92z" />
    <glyph glyph-name="uni50B2" unicode="&#x50b2;" 
d="M57 188l-7 -11l-21 14l7 11q25 39 48.5 88.5t39 86.5t15.5 39l5 12l24 -9l-5 -12q-1 -3 -10.5 -27t-25.5 -59v-353h-25v299q-22 -44 -45 -79zM315 353q-22 1 -52 -1v-47q26 1 44 0l12 -1l-2 -26l-12 1q-17 1 -42 0v-48q36 2 66 -1l12 -1l-2 -25l-12 1q-42 2 -90 -1l-1 -5
q0 -3 -6 -43q18 5 43.5 6t44.5 -9q14 -9 17 -25q6 -44 -3.5 -87t-34.5 -59q-7 -5 -19 -5q-13 0 -32 14l-10 8l17 20l9 -9q7 -5 11.5 -6.5t7 -1t3.5 1.5q15 9 23 43.5t2 76.5q0 4 -5 7q-13 7 -37 5t-43 -7q-11 -61 -41 -144l-5 -12l-24 9l5 12q30 83 41 143.5t11 64.5
q-17 -1 -27 -2l-10 -1l-13 -1l-3 25l13 2q2 0 20.5 1.5t45.5 3.5v48q-17 -1 -29 -2t-13 -2l-13 -1l-2 26l13 1v0q2 0 14.5 1t29.5 2v48q-23 -2 -39 -3.5t-17 -1.5v0l-13 -1l-3 25l13 2q2 0 18.5 1.5t40.5 3.5v60h26v-59q30 2 54 0l13 -1l-2 -25zM382 270q0 -6 41 -108
q23 66 29 108t6 49q-24 -1 -41 -2.5t-18 -1.5l-6 -1q-6 -16 -14 -34zM438 129q29 -63 75 -138l7 -11l-22 -14l-6 11q-40 65 -67 120q-26 -57 -69 -120l-7 -11l-21 15l7 10q49 73 75 137q-37 85 -48 120q-2 -5 -5 -10l-7 -11l-22 13l7 11q23 41 36.5 79t18.5 62.5t5 25.5
l2 13l25 -4l-2 -12q0 -2 -4 -22.5t-14 -51.5q15 1 45.5 3t56.5 0l13 -1l-2 -25l-13 1h-19q1 -5 -6.5 -57t-38.5 -133z" />
    </font>
</defs>
</svg>
